<?xml version="1.0" encoding="UTF-8" standalone="no"?>
<svg
   xmlns:dc="http://purl.org/dc/elements/1.1/"
   xmlns:cc="http://creativecommons.org/ns#"
   xmlns:rdf="http://www.w3.org/1999/02/22-rdf-syntax-ns#"
   xmlns:svg="http://www.w3.org/2000/svg"
   xmlns="http://www.w3.org/2000/svg"
   xmlns:sodipodi="http://sodipodi.sourceforge.net/DTD/sodipodi-0.dtd"
   xmlns:inkscape="http://www.inkscape.org/namespaces/inkscape"
   width="18.3738mm"
   height="24.999962mm"
   viewBox="0 0 18.3738 24.999962"
   version="1.1"
   id="svg8"
   inkscape:version="1.0.1 (3bc2e813f5, 2020-09-07)"
   sodipodi:docname="astra bonnet stay clip.svg">
  <defs
     id="defs2">
    <inkscape:path-effect
       center_point="120.72898,233.0754"
       end_point="120.72898,284.70305"
       start_point="120.72898,181.44775"
       effect="mirror_symmetry"
       id="path-effect6889"
       is_visible="true"
       lpeversion="1"
       mode="vertical"
       discard_orig_path="false"
       fuse_paths="true"
       oposite_fuse="false"
       split_items="false" />
  </defs>
  <sodipodi:namedview
     id="base"
     pagecolor="#ffffff"
     bordercolor="#666666"
     borderopacity="1.0"
     inkscape:pageopacity="0.0"
     inkscape:pageshadow="2"
     inkscape:zoom="5.9651515"
     inkscape:cx="45.384524"
     inkscape:cy="51.981102"
     inkscape:document-units="mm"
     inkscape:current-layer="layer1"
     inkscape:document-rotation="0"
     showgrid="false"
     viewbox-height="297"
     fit-margin-top="0"
     fit-margin-left="0"
     fit-margin-right="0"
     fit-margin-bottom="0"
     inkscape:window-width="1920"
     inkscape:window-height="1027"
     inkscape:window-x="1192"
     inkscape:window-y="831"
     inkscape:window-maximized="1" />
  <metadata
     id="metadata5">
    <rdf:RDF>
      <cc:Work
         rdf:about="">
        <dc:format>image/svg+xml</dc:format>
        <dc:type
           rdf:resource="http://purl.org/dc/dcmitype/StillImage" />
        <dc:title></dc:title>
      </cc:Work>
    </rdf:RDF>
  </metadata>
  <g
     inkscape:label="Layer 1"
     inkscape:groupmode="layer"
     id="layer1"
     style="display:inline"
     transform="translate(-12.712265,-10.887673)">
    <path
       id="path4906-5"
       style="color:#000000;font-style:normal;font-variant:normal;font-weight:normal;font-stretch:normal;font-size:medium;line-height:normal;font-family:sans-serif;font-variant-ligatures:normal;font-variant-position:normal;font-variant-caps:normal;font-variant-numeric:normal;font-variant-alternates:normal;font-variant-east-asian:normal;font-feature-settings:normal;font-variation-settings:normal;text-indent:0;text-align:start;text-decoration:none;text-decoration-line:none;text-decoration-style:solid;text-decoration-color:#000000;letter-spacing:normal;word-spacing:normal;text-transform:none;writing-mode:lr-tb;direction:ltr;text-orientation:mixed;dominant-baseline:auto;baseline-shift:baseline;text-anchor:start;white-space:normal;shape-padding:0;shape-margin:0;inline-size:0;clip-rule:nonzero;display:inline;overflow:visible;visibility:visible;opacity:1;isolation:auto;mix-blend-mode:normal;color-interpolation:sRGB;color-interpolation-filters:linearRGB;solid-color:#000000;solid-opacity:1;vector-effect:none;fill:#000000;fill-opacity:1;fill-rule:nonzero;stroke:none;stroke-width:0.0107612;stroke-linecap:butt;stroke-linejoin:miter;stroke-miterlimit:4;stroke-dasharray:none;stroke-dashoffset:0;stroke-opacity:1;color-rendering:auto;image-rendering:auto;shape-rendering:auto;text-rendering:auto;enable-background:accumulate;stop-color:#000000"
       d="m 16.505874,10.887845 c -0.315321,-0.01635 -0.624932,0.08363 -0.89012,0.183817 -0.20665,0.09472 -0.411805,0.227012 -0.583589,0.339741 -0.387466,0.32285 -0.674123,0.705095 -0.965871,1.037849 -0.282126,0.366208 -0.485873,0.58129 -0.741096,0.958675 -0.32435,0.495454 -0.497722,1.016796 -0.587805,1.597316 0.192795,2.250573 0.155754,4.358215 0.743112,6.150075 0.05838,0.180704 0.225466,0.581169 0.2837,0.680038 0.11714,0.253871 0.267417,0.519204 0.39832,0.743827 0.574833,0.99185 1.249217,2.000008 1.676404,3.028774 0.211848,0.52278 -0.0049,0.477727 -0.393409,0.664798 -0.021,0.0072 -0.166309,0.06987 -0.322917,0.139194 -0.321188,0.156913 -0.668101,0.359407 -1.217654,0.73514 -0.201077,0.149904 -0.3889,0.319058 -0.555984,0.500141 -0.08893,0.153559 -0.131148,0.334507 -0.105438,0.451687 0.08192,0.373397 0.294724,0.545987 0.540049,0.437986 0.564294,-0.247259 1.107704,-0.701508 1.804415,-0.779469 0.355264,-0.01334 0.663094,0.06261 0.772967,0.235946 0.0655,0.103325 0.130689,0.386572 0.142371,0.61868 0.02662,0.52895 0.184507,0.647509 0.439128,0.47353 0.373653,-0.255309 1.094586,-0.8028 1.990968,-0.884312 0.19683,-0.03326 0.290003,-0.03682 0.381495,0.08062 l 0.05904,5.332679 C 19.3096,33.72831 19.100783,33.513903 19.100783,33.513903 l -1.930952,-3.711836 c -0.111847,-0.215002 -0.978016,-0.07585 -1.076524,-0.02909 -0.330232,0.09914 -0.799311,0.508467 -0.686739,0.805634 0.729923,1.58844 1.61056,3.165999 2.426171,4.735293 0.121757,0.199435 0.520613,0.465941 0.833579,0.556978 0.128992,0.03757 0.678899,4e-4 0.874632,-9e-4 h 5.240147 c 0.195733,0.0012 0.74564,0.03842 0.874632,9e-4 0.312966,-0.09104 0.72703,-0.34902 0.833579,-0.556978 l 2.426172,-4.735293 c 0.116361,-0.227108 -0.413547,-0.749307 -0.740124,-0.80923 -0.348362,-0.06392 -0.858514,-0.207138 -1.02314,0.03269 l -1.930898,3.711839 c 0,0 -0.20882,0.214407 -0.273177,0.100674 l 0.05904,-5.33268 c 0.09149,-0.117441 0.184666,-0.113881 0.381495,-0.08062 0.896382,0.08151 1.617365,0.629003 1.991017,0.884312 0.254621,0.173979 0.412457,0.05542 0.439079,-0.473529 0.01168,-0.232109 0.07688,-0.515356 0.142371,-0.618681 0.109873,-0.173335 0.417704,-0.249289 0.772967,-0.235946 0.696712,0.07796 1.240121,0.532211 1.804416,0.77947 0.245323,0.108001 0.458175,-0.06459 0.540098,-0.437986 0.02571,-0.117181 -0.01656,-0.298128 -0.105488,-0.451687 -0.0487,-0.0841 -0.312053,-0.329397 -0.433866,-0.404131 -0.399119,-0.34981 -0.885856,-0.630342 -1.339772,-0.831151 -0.309944,-0.151369 -0.64301,-0.24167 -0.970418,-0.34649 -0.412856,-0.132165 -0.463049,-0.389989 -0.455112,-0.656011 0.0068,-0.226724 0.266292,-0.366697 0.420528,-0.534981 0.350228,-0.382128 0.741185,-0.683044 0.850342,-0.836661 0.543778,-0.716028 0.883553,-1.637079 1.068494,-2.395396 0.13981,-1.520711 0.219031,-3.900719 0.377826,-5.601686 0.09624,-0.968526 0.0137,-1.67524 -0.272978,-2.336374 -0.337103,-0.923943 -1.307394,-1.71612 -2.176375,-2.09681 -0.65583,-0.187352 -1.382685,-0.372451 -1.956023,-0.309414 -1.62952,0.627976 -3.495495,1.624578 -4.490816,2.791826 -0.115613,0.194934 -0.161495,0.65663 -0.08072,0.812332 0.06184,0.119204 0.231269,0.147544 0.653033,0.162774 1.411934,0.05099 2.122549,-0.271137 3.163399,0.05837 0.200508,0.06348 0.253924,0.345843 0.352302,0.509813 0.206491,0.448736 0.437116,0.878603 0.520138,1.36092 0.140017,0.817977 0.106395,1.467929 0.10505,2.276307 -0.104498,0.929454 -0.472086,1.679955 -0.921702,2.279485 -0.312226,0.422227 -0.831727,0.752645 -1.227038,1.039095 -0.326837,0.178631 -0.78158,0.326185 -1.100112,0.416886 -1.014266,0.283105 -1.996559,0.299056 -2.963244,0.19222 -0.757357,-0.09097 -1.403847,-0.466141 -1.981292,-0.90774 -0.375359,-0.349462 -0.592471,-0.777905 -0.73658,-1.192784 -0.07734,-0.247908 -0.09054,-0.842895 -0.02413,-1.088537 0.088,-0.539196 0.247919,-1.099791 0.401896,-1.562513 0.147059,-0.443433 0.177872,-0.910297 0.31453,-1.441885 0.05524,-0.143133 -0.01706,-0.550692 -0.130855,-0.73787 -0.315636,-0.367059 -0.690229,-0.616997 -1.115144,-0.839092 -0.348795,-0.195484 -0.766989,0.216692 -0.634815,0.625681 0.07466,0.29513 0.309279,0.538204 0.528627,0.619724 0.11263,0.04186 0.189794,0.119657 0.255748,0.180496 -0.0052,0.343933 -0.108861,0.639537 -0.19081,0.969398 -0.124302,0.532896 -0.28509,1.01846 -0.435946,1.674258 -0.0623,0.18369 -0.159545,0.953325 -0.136018,1.076425 0.07025,0.539474 0.250979,1.110033 0.47839,1.553329 0.132164,0.235803 0.311748,0.456917 0.490455,0.662262 0.745675,0.726763 1.794698,1.251463 2.699993,1.423584 1.475191,0.08103 3.051043,-0.01319 4.420126,-0.55885 0.427399,-0.173164 0.813391,-0.432918 1.173819,-0.721984 0.266731,-0.213379 0.504143,-0.424729 0.568741,-0.506243 0.282113,-0.309872 0.534929,-0.66008 0.715733,-0.944873 0.28948,-0.451939 0.470648,-0.983033 0.59499,-1.417915 0.220971,-0.734168 0.186978,-1.535284 0.276808,-2.306738 0.03267,-0.202838 0.358946,-0.21089 0.549531,-0.01355 0.133425,0.872862 0.0142,1.694792 -0.20988,2.542734 -0.209819,0.691516 -0.513492,1.2747 -0.834425,1.842338 -0.270044,0.377366 -0.585182,0.786966 -0.90814,1.077071 -0.296923,0.281983 -0.481024,0.425998 -0.717666,0.561444 -0.325011,0.247002 -0.714066,0.423384 -1.041477,0.571513 -0.407731,0.150368 -0.854465,0.245308 -1.243865,0.31751 -0.526485,0.08395 -1.032566,0.0776 -1.555117,0.08714 -0.129305,0.01423 -0.498729,0.03618 -1.075828,0.0033 -0.400013,-0.01627 -0.779205,-0.08165 -1.135597,-0.187494 -0.316064,-0.07912 -0.628885,-0.236841 -0.907544,-0.349376 -0.307314,-0.126807 -0.469957,-0.226873 -0.743579,-0.414456 -0.559685,-0.400011 -1.098476,-0.958909 -1.480952,-1.454941 -0.203242,-0.290448 -0.406875,-0.606908 -0.557771,-0.882525 -0.183632,-0.384923 -0.311915,-0.708562 -0.44235,-1.074736 -0.171201,-0.456142 -0.224478,-0.885499 -0.268757,-1.353523 -0.13164,-0.853165 -0.210868,-1.714566 -0.331446,-2.623946 -0.03497,-0.571733 -0.07939,-0.921426 0.06964,-1.41344 0.04554,-0.123047 0.114093,-0.247379 0.169974,-0.34898 0.579972,-0.665933 1.067414,-1.497044 1.801086,-1.951302 0.784127,-0.18947 1.168316,0.524414 1.775276,0.742387 0.380785,-0.146322 0.523278,-0.322591 0.58175,-0.679988 0.06284,-0.67239 -0.475621,-0.985581 -0.946856,-1.333911 -0.348972,-0.171331 -0.704113,-0.341006 -1.069724,-0.474277 -0.09761,-0.04026 -0.352988,-0.05992 -0.60076,-0.05739 z"
       sodipodi:nodetypes="ccccccccccccccsccsssccccscccccccssscccccsssccsscccascccccccssscccccccccccccccsccccccccccccccccccccccccccccccccccccccc" />
  </g>
</svg>
