solid OpenSCAD_Model
  facet normal -0 0 1
    outer loop
      vertex -2.15625 1.82886 29.5
      vertex -0.34375 0.599991 29.5
      vertex -0.34375 1.82886 29.5
    endloop
  endfacet
  facet normal 0 0 1
    outer loop
      vertex -0.34375 0.599991 29.5
      vertex -2.15625 1.82886 29.5
      vertex -2.15625 0.599991 29.5
    endloop
  endfacet
  facet normal 0 0.642796 0.766038
    outer loop
      vertex -0.297055 4.5 27.2586
      vertex -2.15625 1.82886 29.5
      vertex -0.34375 1.82886 29.5
    endloop
  endfacet
  facet normal 0 0.642796 0.766038
    outer loop
      vertex -2.15625 1.82886 29.5
      vertex -0.297055 4.5 27.2586
      vertex -2.20294 4.5 27.2586
    endloop
  endfacet
  facet normal 0 1 0
    outer loop
      vertex -0.276221 4.5 26.2586
      vertex -2.20294 4.5 27.2586
      vertex -0.297055 4.5 27.2586
    endloop
  endfacet
  facet normal 0 1 0
    outer loop
      vertex -2.20294 4.5 27.2586
      vertex -0.276221 4.5 26.2586
      vertex -2.22378 4.5 26.2586
    endloop
  endfacet
  facet normal 0 0.642773 -0.766057
    outer loop
      vertex -0.25 3 25
      vertex -2.22378 4.5 26.2586
      vertex -0.276221 4.5 26.2586
    endloop
  endfacet
  facet normal 0 0.642773 -0.766057
    outer loop
      vertex -2.22378 4.5 26.2586
      vertex -0.25 3 25
      vertex -2.25 3 25
    endloop
  endfacet
  facet normal 0 1 0
    outer loop
      vertex 0 3 13
      vertex -2.25 3 25
      vertex -0.25 3 25
    endloop
  endfacet
  facet normal 0 1 0
    outer loop
      vertex -2.25 3 25
      vertex 0 3 13
      vertex -2.5 3 13
    endloop
  endfacet
  facet normal -0 0 1
    outer loop
      vertex -2.5 6.2 13
      vertex 0 3 13
      vertex 0 6.2 13
    endloop
  endfacet
  facet normal 0 0 1
    outer loop
      vertex 0 3 13
      vertex -2.5 6.2 13
      vertex -2.5 3 13
    endloop
  endfacet
  facet normal 0 -0.99934 0.0363391
    outer loop
      vertex -2.5 0 13
      vertex -0.34375 0.599991 29.5
      vertex -2.15625 0.599991 29.5
    endloop
  endfacet
  facet normal 0 -0.99934 0.0363391
    outer loop
      vertex -0.34375 0.599991 29.5
      vertex -2.5 0 13
      vertex 0 0 13
    endloop
  endfacet
  facet normal 0.999783 -4.48169e-07 0.0208295
    outer loop
      vertex -0.297055 4.5 27.2586
      vertex -0.25 3 25
      vertex -0.276221 4.5 26.2586
    endloop
  endfacet
  facet normal 0.999783 3.99056e-07 0.0208289
    outer loop
      vertex -0.34375 1.82886 29.5
      vertex -0.25 3 25
      vertex -0.297055 4.5 27.2586
    endloop
  endfacet
  facet normal 0.999783 -0 0.0208288
    outer loop
      vertex -0.34375 0.599991 29.5
      vertex -0.25 3 25
      vertex -0.34375 1.82886 29.5
    endloop
  endfacet
  facet normal 0.999783 0 0.0208288
    outer loop
      vertex -0.25 3 25
      vertex -0.34375 0.599991 29.5
      vertex 0 0 13
    endloop
  endfacet
  facet normal 0.999783 0 0.0208288
    outer loop
      vertex -0.25 3 25
      vertex 0 0 13
      vertex 0 3 13
    endloop
  endfacet
  facet normal -0.999783 0 0.0208288
    outer loop
      vertex -2.5 0 13
      vertex -2.25 3 25
      vertex -2.5 3 13
    endloop
  endfacet
  facet normal -0.999783 0 0.0208288
    outer loop
      vertex -2.15625 0.599991 29.5
      vertex -2.25 3 25
      vertex -2.5 0 13
    endloop
  endfacet
  facet normal -0.999783 0 0.0208288
    outer loop
      vertex -2.25 3 25
      vertex -2.15625 0.599991 29.5
      vertex -2.15625 1.82886 29.5
    endloop
  endfacet
  facet normal -0.999783 -6.148e-06 0.0208355
    outer loop
      vertex -2.25 3 25
      vertex -2.20294 4.5 27.2586
      vertex -2.22378 4.5 26.2586
    endloop
  endfacet
  facet normal -0.999783 2.79339e-06 0.0208295
    outer loop
      vertex -2.20294 4.5 27.2586
      vertex -2.25 3 25
      vertex -2.15625 1.82886 29.5
    endloop
  endfacet
  facet normal -0 0 1
    outer loop
      vertex -2.15625 8.60001 29.5
      vertex -0.34375 7.37114 29.5
      vertex -0.34375 8.60001 29.5
    endloop
  endfacet
  facet normal 0 0 1
    outer loop
      vertex -0.34375 7.37114 29.5
      vertex -2.15625 8.60001 29.5
      vertex -2.15625 7.37114 29.5
    endloop
  endfacet
  facet normal 0 -0.642796 0.766038
    outer loop
      vertex -2.15625 7.37114 29.5
      vertex -0.297055 4.7 27.2586
      vertex -0.34375 7.37114 29.5
    endloop
  endfacet
  facet normal 0 -0.642796 0.766038
    outer loop
      vertex -0.297055 4.7 27.2586
      vertex -2.15625 7.37114 29.5
      vertex -2.20294 4.7 27.2586
    endloop
  endfacet
  facet normal 0 -1 0
    outer loop
      vertex -2.22378 4.7 26.2586
      vertex -0.297055 4.7 27.2586
      vertex -2.20294 4.7 27.2586
    endloop
  endfacet
  facet normal 0 -1 -0
    outer loop
      vertex -0.297055 4.7 27.2586
      vertex -2.22378 4.7 26.2586
      vertex -0.276221 4.7 26.2586
    endloop
  endfacet
  facet normal 0 -0.642773 -0.766057
    outer loop
      vertex -2.22378 4.7 26.2586
      vertex -0.25 6.2 25
      vertex -0.276221 4.7 26.2586
    endloop
  endfacet
  facet normal -0 -0.642773 -0.766057
    outer loop
      vertex -0.25 6.2 25
      vertex -2.22378 4.7 26.2586
      vertex -2.25 6.2 25
    endloop
  endfacet
  facet normal 0 -1 0
    outer loop
      vertex -2.5 6.2 13
      vertex -0.25 6.2 25
      vertex -2.25 6.2 25
    endloop
  endfacet
  facet normal 0 -1 -0
    outer loop
      vertex -0.25 6.2 25
      vertex -2.5 6.2 13
      vertex 0 6.2 13
    endloop
  endfacet
  facet normal 0 0.99934 0.036339
    outer loop
      vertex 0 9.2 13
      vertex -2.15625 8.60001 29.5
      vertex -0.34375 8.60001 29.5
    endloop
  endfacet
  facet normal 0 0.99934 0.036339
    outer loop
      vertex -2.15625 8.60001 29.5
      vertex 0 9.2 13
      vertex -2.5 9.2 13
    endloop
  endfacet
  facet normal 0.999783 -3.99056e-07 0.0208289
    outer loop
      vertex -0.297055 4.7 27.2586
      vertex -0.25 6.2 25
      vertex -0.34375 7.37114 29.5
    endloop
  endfacet
  facet normal 0.999783 4.48169e-07 0.0208295
    outer loop
      vertex -0.25 6.2 25
      vertex -0.297055 4.7 27.2586
      vertex -0.276221 4.7 26.2586
    endloop
  endfacet
  facet normal 0.999783 0 0.0208288
    outer loop
      vertex -0.25 6.2 25
      vertex -0.34375 8.60001 29.5
      vertex -0.34375 7.37114 29.5
    endloop
  endfacet
  facet normal 0.999783 0 0.0208288
    outer loop
      vertex -0.34375 8.60001 29.5
      vertex -0.25 6.2 25
      vertex 0 9.2 13
    endloop
  endfacet
  facet normal 0.999783 0 0.0208288
    outer loop
      vertex 0 9.2 13
      vertex -0.25 6.2 25
      vertex 0 6.2 13
    endloop
  endfacet
  facet normal -0.999783 0 0.0208288
    outer loop
      vertex -2.25 6.2 25
      vertex -2.15625 8.60001 29.5
      vertex -2.5 9.2 13
    endloop
  endfacet
  facet normal -0.999783 0 0.0208288
    outer loop
      vertex -2.25 6.2 25
      vertex -2.5 9.2 13
      vertex -2.5 6.2 13
    endloop
  endfacet
  facet normal -0.999783 0 0.0208288
    outer loop
      vertex -2.15625 8.60001 29.5
      vertex -2.25 6.2 25
      vertex -2.15625 7.37114 29.5
    endloop
  endfacet
  facet normal -0.999783 6.148e-06 0.0208355
    outer loop
      vertex -2.20294 4.7 27.2586
      vertex -2.25 6.2 25
      vertex -2.22378 4.7 26.2586
    endloop
  endfacet
  facet normal -0.999783 -2.79339e-06 0.0208295
    outer loop
      vertex -2.25 6.2 25
      vertex -2.20294 4.7 27.2586
      vertex -2.15625 7.37114 29.5
    endloop
  endfacet
  facet normal 0 1 0
    outer loop
      vertex -2.4998 2.5 5
      vertex -2.5 2.5 5
      vertex -2.5 2.5 5.00083
    endloop
  endfacet
  facet normal 0 -1 0
    outer loop
      vertex -2.5 2.5 5.00083
      vertex -2.5 2.5 7.5
      vertex -3.09999 2.5 7.5
    endloop
  endfacet
  facet normal 0 -1 0
    outer loop
      vertex -2.5 6.7 5.00083
      vertex -2.5 6.7 5
      vertex -2.4998 6.7 5
    endloop
  endfacet
  facet normal 0 1 0
    outer loop
      vertex -2.5 6.7 7.5
      vertex -2.5 6.7 5.00083
      vertex -3.09999 6.7 7.5
    endloop
  endfacet
  facet normal -0.972174 0 -0.234259
    outer loop
      vertex -2.5 2.5 5.00083
      vertex -2.5 6.7 5.00083
      vertex -2.4998 6.7 5
    endloop
  endfacet
  facet normal -0.972174 0 -0.234259
    outer loop
      vertex -2.5 2.5 5.00083
      vertex -2.4998 6.7 5
      vertex -2.4998 2.5 5
    endloop
  endfacet
  facet normal -0.972371 -0 -0.233443
    outer loop
      vertex -2.5 6.7 5.00083
      vertex -2.5 2.5 5.00083
      vertex -3.09999 6.7 7.5
    endloop
  endfacet
  facet normal -0.972371 -0 -0.233443
    outer loop
      vertex -3.09999 6.7 7.5
      vertex -2.5 2.5 5.00083
      vertex -3.09999 2.5 7.5
    endloop
  endfacet
  facet normal -0 0 1
    outer loop
      vertex -3.09999 6.7 7.5
      vertex -2.5 2.5 7.5
      vertex -2.5 6.7 7.5
    endloop
  endfacet
  facet normal 0 0 1
    outer loop
      vertex -2.5 2.5 7.5
      vertex -3.09999 6.7 7.5
      vertex -3.09999 2.5 7.5
    endloop
  endfacet
  facet normal -1 0 0
    outer loop
      vertex -2.5 6.7 5.00083
      vertex -2.5 9.2 0
      vertex -2.5 6.7 5
    endloop
  endfacet
  facet normal -1 0 0
    outer loop
      vertex -2.5 9.2 0
      vertex -2.5 2.5 5
      vertex -2.5 6.7 5
    endloop
  endfacet
  facet normal -1 0 0
    outer loop
      vertex -2.5 0 0
      vertex -2.5 2.5 5.00083
      vertex -2.5 2.5 5
    endloop
  endfacet
  facet normal -1 -0 0
    outer loop
      vertex -2.5 2.5 5.00083
      vertex -2.5 0 0
      vertex -2.5 2.5 7.5
    endloop
  endfacet
  facet normal -1 0 0
    outer loop
      vertex -2.5 0 0
      vertex -2.5 2.5 5
      vertex -2.5 9.2 0
    endloop
  endfacet
  facet normal -1 0 0
    outer loop
      vertex -2.5 6.7 7.5
      vertex -2.5 9.2 0
      vertex -2.5 6.7 5.00083
    endloop
  endfacet
  facet normal -1 0 0
    outer loop
      vertex -2.5 9.2 0
      vertex -2.5 6.7 7.5
      vertex -2.5 9.2 13
    endloop
  endfacet
  facet normal -1 0 0
    outer loop
      vertex -2.5 6.7 7.5
      vertex -2.5 6.2 13
      vertex -2.5 9.2 13
    endloop
  endfacet
  facet normal -1 0 0
    outer loop
      vertex -2.5 6.7 7.5
      vertex -2.5 3 13
      vertex -2.5 6.2 13
    endloop
  endfacet
  facet normal -1 0 0
    outer loop
      vertex -2.5 2.5 7.5
      vertex -2.5 3 13
      vertex -2.5 6.7 7.5
    endloop
  endfacet
  facet normal -1 0 0
    outer loop
      vertex -2.5 0 13
      vertex -2.5 2.5 7.5
      vertex -2.5 0 0
    endloop
  endfacet
  facet normal -1 0 0
    outer loop
      vertex -2.5 2.5 7.5
      vertex -2.5 0 13
      vertex -2.5 3 13
    endloop
  endfacet
  facet normal 1 -0 0
    outer loop
      vertex 0 6.2 13
      vertex 0 9.2 0
      vertex 0 9.2 13
    endloop
  endfacet
  facet normal 1 -0 0
    outer loop
      vertex 0 3 13
      vertex 0 9.2 0
      vertex 0 6.2 13
    endloop
  endfacet
  facet normal 1 0 0
    outer loop
      vertex 0 0 0
      vertex 0 3 13
      vertex 0 0 13
    endloop
  endfacet
  facet normal 1 0 0
    outer loop
      vertex 0 3 13
      vertex 0 0 0
      vertex 0 9.2 0
    endloop
  endfacet
  facet normal -0 0 1
    outer loop
      vertex -2.5 6.7 5
      vertex -2.4998 2.5 5
      vertex -2.4998 6.7 5
    endloop
  endfacet
  facet normal 0 0 1
    outer loop
      vertex -2.4998 2.5 5
      vertex -2.5 6.7 5
      vertex -2.5 2.5 5
    endloop
  endfacet
  facet normal 0 0 -1
    outer loop
      vertex -2.5 0 0
      vertex 0 9.2 0
      vertex 0 0 0
    endloop
  endfacet
  facet normal -0 0 -1
    outer loop
      vertex 0 9.2 0
      vertex -2.5 0 0
      vertex -2.5 9.2 0
    endloop
  endfacet
  facet normal 0 1 -0
    outer loop
      vertex 0 9.2 0
      vertex -2.5 9.2 13
      vertex 0 9.2 13
    endloop
  endfacet
  facet normal 0 1 0
    outer loop
      vertex -2.5 9.2 13
      vertex 0 9.2 0
      vertex -2.5 9.2 0
    endloop
  endfacet
  facet normal 0 -1 0
    outer loop
      vertex -2.5 0 0
      vertex 0 0 13
      vertex -2.5 0 13
    endloop
  endfacet
  facet normal 0 -1 -0
    outer loop
      vertex 0 0 13
      vertex -2.5 0 0
      vertex 0 0 0
    endloop
  endfacet
  facet normal -1 0 0
    outer loop
      vertex 0 16.26 1.26
      vertex 0 25.46 14.26
      vertex 0 25.46 1.26
    endloop
  endfacet
  facet normal -1 -0 0
    outer loop
      vertex 0 25.46 14.26
      vertex 0 16.26 1.26
      vertex 0 16.26 14.26
    endloop
  endfacet
  facet normal 0 0 -1
    outer loop
      vertex -3.76 15 7.24792e-07
      vertex -3.75999 26.72 7.24792e-07
      vertex -3.75999 15 7.24792e-07
    endloop
  endfacet
  facet normal -0 0 -1
    outer loop
      vertex -3.75999 26.72 7.24792e-07
      vertex -3.76 15 7.24792e-07
      vertex -3.76 26.72 7.24792e-07
    endloop
  endfacet
  facet normal -1 0 0
    outer loop
      vertex -3.76 26.72 7.24792e-07
      vertex -3.76 25.46 1.26
      vertex -3.76 26.72 14.26
    endloop
  endfacet
  facet normal -1 0 0
    outer loop
      vertex -3.76 26.72 7.24792e-07
      vertex -3.76 25.11 1.26
      vertex -3.76 25.46 1.26
    endloop
  endfacet
  facet normal -1 0 0
    outer loop
      vertex -3.76 25.11 1.26
      vertex -3.76 23.11 6.06
      vertex -3.76 25.11 10.06
    endloop
  endfacet
  facet normal -1 0 0
    outer loop
      vertex -3.76 25.11 1.26
      vertex -3.76 18.61 6.06
      vertex -3.76 23.11 6.06
    endloop
  endfacet
  facet normal -1 0 0
    outer loop
      vertex -3.76 16.61 1.26
      vertex -3.76 25.11 1.26
      vertex -3.76 26.72 7.24792e-07
    endloop
  endfacet
  facet normal -1 0 0
    outer loop
      vertex -3.76 16.61 10.06
      vertex -3.76 18.61 6.06
      vertex -3.76 16.61 1.26
    endloop
  endfacet
  facet normal -1 0 0
    outer loop
      vertex -3.76 25.11 1.26
      vertex -3.76 16.61 1.26
      vertex -3.76 18.61 6.06
    endloop
  endfacet
  facet normal -1 0 0
    outer loop
      vertex -3.76 15 7.24792e-07
      vertex -3.76 16.61 1.26
      vertex -3.76 26.72 7.24792e-07
    endloop
  endfacet
  facet normal -1 -0 0
    outer loop
      vertex -3.76 16.61 1.26
      vertex -3.76 15 7.24792e-07
      vertex -3.76 16.26 1.26
    endloop
  endfacet
  facet normal -1 0 0
    outer loop
      vertex -3.76 15 14.26
      vertex -3.76 16.26 1.26
      vertex -3.76 15 7.24792e-07
    endloop
  endfacet
  facet normal -1 0 0
    outer loop
      vertex -3.76 16.26 1.26
      vertex -3.76 15 14.26
      vertex -3.76 16.26 14.26
    endloop
  endfacet
  facet normal -1 -0 0
    outer loop
      vertex -3.76 26.72 14.26
      vertex -3.76 25.46 1.26
      vertex -3.76 25.46 14.26
    endloop
  endfacet
  facet normal -1 0 0
    outer loop
      vertex -3.76 23.11 9.06
      vertex -3.76 25.11 10.06
      vertex -3.76 23.11 6.06
    endloop
  endfacet
  facet normal -1 0 0
    outer loop
      vertex -3.76 18.61 9.06
      vertex -3.76 25.11 10.06
      vertex -3.76 23.11 9.06
    endloop
  endfacet
  facet normal -1 0 0
    outer loop
      vertex -3.76 18.61 9.06
      vertex -3.76 16.61 10.06
      vertex -3.76 25.11 10.06
    endloop
  endfacet
  facet normal -1 0 0
    outer loop
      vertex -3.76 18.61 6.06
      vertex -3.76 16.61 10.06
      vertex -3.76 18.61 9.06
    endloop
  endfacet
  facet normal 0 1 -0
    outer loop
      vertex 1.26 26.72 0
      vertex 0 26.72 14.26
      vertex 1.26 26.72 14.26
    endloop
  endfacet
  facet normal 0 1 0
    outer loop
      vertex 0 26.72 14.26
      vertex 1.26 26.72 0
      vertex -3.75999 26.72 7.24792e-07
    endloop
  endfacet
  facet normal 0 1 0
    outer loop
      vertex -3.75999 26.72 7.24792e-07
      vertex 1.26 26.72 0
      vertex -3.75999 26.72 0
    endloop
  endfacet
  facet normal 0 1 -0
    outer loop
      vertex -3.75999 26.72 7.24792e-07
      vertex -3.76 26.72 14.26
      vertex 0 26.72 14.26
    endloop
  endfacet
  facet normal 0 1 0
    outer loop
      vertex -3.76 26.72 14.26
      vertex -3.75999 26.72 7.24792e-07
      vertex -3.76 26.72 7.24792e-07
    endloop
  endfacet
  facet normal -0 0 1
    outer loop
      vertex -3.76 16.26 14.26
      vertex 0 15 14.26
      vertex 0 16.26 14.26
    endloop
  endfacet
  facet normal 0 0 1
    outer loop
      vertex 0 15 14.26
      vertex -3.76 16.26 14.26
      vertex -3.76 15 14.26
    endloop
  endfacet
  facet normal -0 0 1
    outer loop
      vertex -3.76 26.72 14.26
      vertex 0 25.46 14.26
      vertex 0 26.72 14.26
    endloop
  endfacet
  facet normal 0 0 1
    outer loop
      vertex 0 25.46 14.26
      vertex -3.76 26.72 14.26
      vertex -3.76 25.46 14.26
    endloop
  endfacet
  facet normal 0 -1 0
    outer loop
      vertex -3.75999 15 7.24792e-07
      vertex -3.76 15 14.26
      vertex -3.76 15 7.24792e-07
    endloop
  endfacet
  facet normal 0 -1 0
    outer loop
      vertex -3.76 15 14.26
      vertex -3.75999 15 7.24792e-07
      vertex 0 15 14.26
    endloop
  endfacet
  facet normal 0 -1 0
    outer loop
      vertex 1.26 15 0
      vertex 0 15 14.26
      vertex -3.75999 15 7.24792e-07
    endloop
  endfacet
  facet normal 0 -1 0
    outer loop
      vertex 1.26 15 0
      vertex -3.75999 15 7.24792e-07
      vertex -3.75999 15 0
    endloop
  endfacet
  facet normal 0 -1 0
    outer loop
      vertex 0 15 14.26
      vertex 1.26 15 0
      vertex 1.26 15 14.26
    endloop
  endfacet
  facet normal 0 0 1
    outer loop
      vertex 0 25.46 1.26
      vertex -2.5 25.11 1.26
      vertex 0 16.26 1.26
    endloop
  endfacet
  facet normal -0 0 1
    outer loop
      vertex -3.76 25.46 1.26
      vertex -2.5 25.11 1.26
      vertex 0 25.46 1.26
    endloop
  endfacet
  facet normal 0 0 1
    outer loop
      vertex -2.5 25.11 1.26
      vertex -3.76 25.46 1.26
      vertex -3.76 25.11 1.26
    endloop
  endfacet
  facet normal -0 0 1
    outer loop
      vertex -2.5 16.61 1.26
      vertex 0 16.26 1.26
      vertex -2.5 25.11 1.26
    endloop
  endfacet
  facet normal 0 0 1
    outer loop
      vertex -3.76 16.26 1.26
      vertex -2.5 16.61 1.26
      vertex -3.76 16.61 1.26
    endloop
  endfacet
  facet normal 0 0 1
    outer loop
      vertex -2.5 16.61 1.26
      vertex -3.76 16.26 1.26
      vertex 0 16.26 1.26
    endloop
  endfacet
  facet normal 0 -1 0
    outer loop
      vertex -3.76 25.46 1.26
      vertex 0 25.46 14.26
      vertex -3.76 25.46 14.26
    endloop
  endfacet
  facet normal 0 -1 -0
    outer loop
      vertex 0 25.46 14.26
      vertex -3.76 25.46 1.26
      vertex 0 25.46 1.26
    endloop
  endfacet
  facet normal 0 1 -0
    outer loop
      vertex 0 16.26 1.26
      vertex -3.76 16.26 14.26
      vertex 0 16.26 14.26
    endloop
  endfacet
  facet normal 0 1 0
    outer loop
      vertex -3.76 16.26 14.26
      vertex 0 16.26 1.26
      vertex -3.76 16.26 1.26
    endloop
  endfacet
  facet normal -0 0 1
    outer loop
      vertex -3.76 25.11 10.06
      vertex -3.13 16.61 10.06
      vertex -3.13 25.11 10.06
    endloop
  endfacet
  facet normal 0 0 1
    outer loop
      vertex -3.13 16.61 10.06
      vertex -3.76 25.11 10.06
      vertex -3.76 16.61 10.06
    endloop
  endfacet
  facet normal 0 -1 0
    outer loop
      vertex -3.76 16.61 1.26
      vertex -3.13 16.61 10.06
      vertex -3.76 16.61 10.06
    endloop
  endfacet
  facet normal 0 -1 -0
    outer loop
      vertex -3.13 16.61 10.06
      vertex -3.76 16.61 1.26
      vertex -2.5 16.61 1.26
    endloop
  endfacet
  facet normal 0 1 0
    outer loop
      vertex -3.76 25.11 1.26
      vertex -3.13 25.11 10.06
      vertex -2.5 25.11 1.26
    endloop
  endfacet
  facet normal 0 1 0
    outer loop
      vertex -3.13 25.11 10.06
      vertex -3.76 25.11 1.26
      vertex -3.76 25.11 10.06
    endloop
  endfacet
  facet normal -0 0 1
    outer loop
      vertex -3.76 23.11 6.06
      vertex -2.84364 18.61 6.06
      vertex -2.84364 23.11 6.06
    endloop
  endfacet
  facet normal 0 0 1
    outer loop
      vertex -2.84364 18.61 6.06
      vertex -3.76 23.11 6.06
      vertex -3.76 18.61 6.06
    endloop
  endfacet
  facet normal 0 0 -1
    outer loop
      vertex -3.76 18.61 9.06
      vertex -3.05841 23.11 9.06
      vertex -3.05841 18.61 9.06
    endloop
  endfacet
  facet normal -0 0 -1
    outer loop
      vertex -3.05841 23.11 9.06
      vertex -3.76 18.61 9.06
      vertex -3.76 23.11 9.06
    endloop
  endfacet
  facet normal 0 -1 0
    outer loop
      vertex -3.76 23.11 6.06
      vertex -3.05841 23.11 9.06
      vertex -3.76 23.11 9.06
    endloop
  endfacet
  facet normal 0 -1 -0
    outer loop
      vertex -3.05841 23.11 9.06
      vertex -3.76 23.11 6.06
      vertex -2.84364 23.11 6.06
    endloop
  endfacet
  facet normal 0 1 0
    outer loop
      vertex -3.76 18.61 6.06
      vertex -3.05841 18.61 9.06
      vertex -2.84364 18.61 6.06
    endloop
  endfacet
  facet normal 0 1 0
    outer loop
      vertex -3.05841 18.61 9.06
      vertex -3.76 18.61 6.06
      vertex -3.76 18.61 9.06
    endloop
  endfacet
  facet normal 0.997447 7.38259e-17 0.0714072
    outer loop
      vertex -2.84364 23.11 6.06
      vertex -3.13 25.11 10.06
      vertex -3.05841 23.11 9.06
    endloop
  endfacet
  facet normal 0.997447 0 0.0714072
    outer loop
      vertex -3.13 25.11 10.06
      vertex -3.05841 18.61 9.06
      vertex -3.05841 23.11 9.06
    endloop
  endfacet
  facet normal 0.997447 -8.30542e-17 0.0714072
    outer loop
      vertex -3.05841 18.61 9.06
      vertex -3.13 16.61 10.06
      vertex -2.84364 18.61 6.06
    endloop
  endfacet
  facet normal 0.997447 -0 0.0714072
    outer loop
      vertex -3.13 16.61 10.06
      vertex -3.05841 18.61 9.06
      vertex -3.13 25.11 10.06
    endloop
  endfacet
  facet normal 0.997447 -1.81354e-06 0.0714082
    outer loop
      vertex -3.13 25.11 10.06
      vertex -2.84364 23.11 6.06
      vertex -2.5 25.11 1.26
    endloop
  endfacet
  facet normal 0.997447 -0 0.0714089
    outer loop
      vertex -2.84364 18.61 6.06
      vertex -2.5 25.11 1.26
      vertex -2.84364 23.11 6.06
    endloop
  endfacet
  facet normal 0.997447 0 0.0714089
    outer loop
      vertex -2.84364 18.61 6.06
      vertex -2.5 16.61 1.26
      vertex -2.5 25.11 1.26
    endloop
  endfacet
  facet normal 0.997447 1.81354e-06 0.0714082
    outer loop
      vertex -2.5 16.61 1.26
      vertex -2.84364 18.61 6.06
      vertex -3.13 16.61 10.06
    endloop
  endfacet
  facet normal -1 0 0
    outer loop
      vertex -3.75999 15 0
      vertex -3.75999 26.72 7.24792e-07
      vertex -3.75999 26.72 0
    endloop
  endfacet
  facet normal -1 -0 0
    outer loop
      vertex -3.75999 26.72 7.24792e-07
      vertex -3.75999 15 0
      vertex -3.75999 15 7.24792e-07
    endloop
  endfacet
  facet normal 0 0 1
    outer loop
      vertex 0 25.46 14.26
      vertex 1.26 26.72 14.26
      vertex 0 26.72 14.26
    endloop
  endfacet
  facet normal 0 0 1
    outer loop
      vertex 1.26 26.72 14.26
      vertex 0 25.46 14.26
      vertex 1.26 15 14.26
    endloop
  endfacet
  facet normal -0 0 1
    outer loop
      vertex 0 16.26 14.26
      vertex 1.26 15 14.26
      vertex 0 25.46 14.26
    endloop
  endfacet
  facet normal 0 0 1
    outer loop
      vertex 1.26 15 14.26
      vertex 0 16.26 14.26
      vertex 0 15 14.26
    endloop
  endfacet
  facet normal 1 -0 0
    outer loop
      vertex 1.26 15 14.26
      vertex 1.26 26.72 0
      vertex 1.26 26.72 14.26
    endloop
  endfacet
  facet normal 1 0 0
    outer loop
      vertex 1.26 26.72 0
      vertex 1.26 15 14.26
      vertex 1.26 15 0
    endloop
  endfacet
  facet normal 0 0 -1
    outer loop
      vertex -3.75999 15 0
      vertex 1.26 26.72 0
      vertex 1.26 15 0
    endloop
  endfacet
  facet normal -0 0 -1
    outer loop
      vertex 1.26 26.72 0
      vertex -3.75999 15 0
      vertex -3.75999 26.72 0
    endloop
  endfacet
endsolid OpenSCAD_Model
