solid OpenSCAD_Model
  facet normal -1 0 0
    outer loop
      vertex 0 0 0
      vertex 0 248.4 138.5
      vertex 0 248.4 0
    endloop
  endfacet
  facet normal -1 -0 0
    outer loop
      vertex 0 248.4 138.5
      vertex 0 0 0
      vertex 0 0 138.5
    endloop
  endfacet
  facet normal 0 0 1
    outer loop
      vertex 138.4 248.4 138.5
      vertex 137.9 247.9 138.5
      vertex 138.4 0 138.5
    endloop
  endfacet
  facet normal -0 0 1
    outer loop
      vertex 94.2 248.4 138.5
      vertex 137.9 247.9 138.5
      vertex 138.4 248.4 138.5
    endloop
  endfacet
  facet normal 0 0 1
    outer loop
      vertex 137.9 247.9 138.5
      vertex 94.2 248.4 138.5
      vertex 94.2 247.9 138.5
    endloop
  endfacet
  facet normal -0 0 1
    outer loop
      vertex 137.9 0.5 138.5
      vertex 138.4 0 138.5
      vertex 137.9 247.9 138.5
    endloop
  endfacet
  facet normal 0 0 1
    outer loop
      vertex 94.2 0 138.5
      vertex 137.9 0.5 138.5
      vertex 94.2 0.5 138.5
    endloop
  endfacet
  facet normal 0 0 1
    outer loop
      vertex 137.9 0.5 138.5
      vertex 94.2 0 138.5
      vertex 138.4 0 138.5
    endloop
  endfacet
  facet normal 0 0 1
    outer loop
      vertex 44.2 248.4 138.5
      vertex 0.5 247.9 138.5
      vertex 44.2 247.9 138.5
    endloop
  endfacet
  facet normal 0 0 1
    outer loop
      vertex 0.5 247.9 138.5
      vertex 0 248.4 138.5
      vertex 0.5 0.5 138.5
    endloop
  endfacet
  facet normal -0 0 1
    outer loop
      vertex 0 248.4 138.5
      vertex 0.5 247.9 138.5
      vertex 44.2 248.4 138.5
    endloop
  endfacet
  facet normal -0 0 1
    outer loop
      vertex 0.5 0.5 138.5
      vertex 44.2 0 138.5
      vertex 44.2 0.5 138.5
    endloop
  endfacet
  facet normal 0 0 1
    outer loop
      vertex 0.5 0.5 138.5
      vertex 0 0 138.5
      vertex 44.2 0 138.5
    endloop
  endfacet
  facet normal 0 0 1
    outer loop
      vertex 0 0 138.5
      vertex 0.5 0.5 138.5
      vertex 0 248.4 138.5
    endloop
  endfacet
  facet normal 1 -0 0
    outer loop
      vertex 138.4 0 138.5
      vertex 138.4 248.4 0
      vertex 138.4 248.4 138.5
    endloop
  endfacet
  facet normal 1 0 0
    outer loop
      vertex 138.4 248.4 0
      vertex 138.4 0 138.5
      vertex 138.4 0 0
    endloop
  endfacet
  facet normal 0 1 0
    outer loop
      vertex 138.4 248.4 138.5
      vertex 93.6537 248.4 133.302
      vertex 94.2 248.4 138.5
    endloop
  endfacet
  facet normal 0 1 0
    outer loop
      vertex 138.4 248.4 138.5
      vertex 92.0386 248.4 128.332
      vertex 93.6537 248.4 133.302
    endloop
  endfacet
  facet normal 0 1 0
    outer loop
      vertex 138.4 248.4 138.5
      vertex 89.4254 248.4 123.805
      vertex 92.0386 248.4 128.332
    endloop
  endfacet
  facet normal 0 1 0
    outer loop
      vertex 138.4 248.4 138.5
      vertex 85.9283 248.4 119.921
      vertex 89.4254 248.4 123.805
    endloop
  endfacet
  facet normal 0 1 -0
    outer loop
      vertex 138.4 248.4 0
      vertex 85.9283 248.4 119.921
      vertex 138.4 248.4 138.5
    endloop
  endfacet
  facet normal 0 1 0
    outer loop
      vertex 85.9283 248.4 119.921
      vertex 138.4 248.4 0
      vertex 81.7 248.4 116.849
    endloop
  endfacet
  facet normal 0 1 0
    outer loop
      vertex 71.8132 248.4 113.637
      vertex 138.4 248.4 0
      vertex 66.5868 248.4 113.637
    endloop
  endfacet
  facet normal 0 1 0
    outer loop
      vertex 76.9254 248.4 114.724
      vertex 138.4 248.4 0
      vertex 71.8132 248.4 113.637
    endloop
  endfacet
  facet normal 0 1 0
    outer loop
      vertex 81.7 248.4 116.849
      vertex 138.4 248.4 0
      vertex 76.9254 248.4 114.724
    endloop
  endfacet
  facet normal 0 1 0
    outer loop
      vertex 44.7463 248.4 133.302
      vertex 0 248.4 138.5
      vertex 44.2 248.4 138.5
    endloop
  endfacet
  facet normal 0 1 0
    outer loop
      vertex 46.3614 248.4 128.332
      vertex 0 248.4 138.5
      vertex 44.7463 248.4 133.302
    endloop
  endfacet
  facet normal 0 1 0
    outer loop
      vertex 48.9746 248.4 123.805
      vertex 0 248.4 138.5
      vertex 46.3614 248.4 128.332
    endloop
  endfacet
  facet normal 0 1 0
    outer loop
      vertex 52.4717 248.4 119.921
      vertex 0 248.4 138.5
      vertex 48.9746 248.4 123.805
    endloop
  endfacet
  facet normal 0 1 0
    outer loop
      vertex 0 248.4 0
      vertex 52.4717 248.4 119.921
      vertex 56.7 248.4 116.849
    endloop
  endfacet
  facet normal 0 1 0
    outer loop
      vertex 0 248.4 0
      vertex 56.7 248.4 116.849
      vertex 61.4746 248.4 114.724
    endloop
  endfacet
  facet normal 0 1 0
    outer loop
      vertex 0 248.4 0
      vertex 66.5868 248.4 113.637
      vertex 138.4 248.4 0
    endloop
  endfacet
  facet normal 0 1 0
    outer loop
      vertex 66.5868 248.4 113.637
      vertex 0 248.4 0
      vertex 61.4746 248.4 114.724
    endloop
  endfacet
  facet normal 0 1 0
    outer loop
      vertex 52.4717 248.4 119.921
      vertex 0 248.4 0
      vertex 0 248.4 138.5
    endloop
  endfacet
  facet normal 0 0 -1
    outer loop
      vertex 0 0 0
      vertex 138.4 248.4 0
      vertex 138.4 0 0
    endloop
  endfacet
  facet normal -0 0 -1
    outer loop
      vertex 138.4 248.4 0
      vertex 0 0 0
      vertex 0 248.4 0
    endloop
  endfacet
  facet normal 0 -1 0
    outer loop
      vertex 0 0 138.5
      vertex 44.7463 0 133.302
      vertex 44.2 0 138.5
    endloop
  endfacet
  facet normal 0 -1 0
    outer loop
      vertex 0 0 138.5
      vertex 46.3614 0 128.332
      vertex 44.7463 0 133.302
    endloop
  endfacet
  facet normal 0 -1 0
    outer loop
      vertex 0 0 138.5
      vertex 48.9746 0 123.805
      vertex 46.3614 0 128.332
    endloop
  endfacet
  facet normal 0 -1 0
    outer loop
      vertex 0 0 138.5
      vertex 52.4717 0 119.921
      vertex 48.9746 0 123.805
    endloop
  endfacet
  facet normal 0 -1 0
    outer loop
      vertex 0 0 0
      vertex 52.4717 0 119.921
      vertex 0 0 138.5
    endloop
  endfacet
  facet normal 0 -1 -0
    outer loop
      vertex 52.4717 0 119.921
      vertex 0 0 0
      vertex 56.7 0 116.849
    endloop
  endfacet
  facet normal 0 -1 -0
    outer loop
      vertex 66.5868 0 113.637
      vertex 0 0 0
      vertex 71.8132 0 113.637
    endloop
  endfacet
  facet normal 0 -1 -0
    outer loop
      vertex 61.4746 0 114.724
      vertex 0 0 0
      vertex 66.5868 0 113.637
    endloop
  endfacet
  facet normal 0 -1 -0
    outer loop
      vertex 56.7 0 116.849
      vertex 0 0 0
      vertex 61.4746 0 114.724
    endloop
  endfacet
  facet normal 0 -1 0
    outer loop
      vertex 93.6537 0 133.302
      vertex 138.4 0 138.5
      vertex 94.2 0 138.5
    endloop
  endfacet
  facet normal 0 -1 0
    outer loop
      vertex 92.0386 0 128.332
      vertex 138.4 0 138.5
      vertex 93.6537 0 133.302
    endloop
  endfacet
  facet normal 0 -1 0
    outer loop
      vertex 89.4254 0 123.805
      vertex 138.4 0 138.5
      vertex 92.0386 0 128.332
    endloop
  endfacet
  facet normal 0 -1 0
    outer loop
      vertex 85.9283 0 119.921
      vertex 138.4 0 138.5
      vertex 89.4254 0 123.805
    endloop
  endfacet
  facet normal 0 -1 0
    outer loop
      vertex 138.4 0 0
      vertex 85.9283 0 119.921
      vertex 81.7 0 116.849
    endloop
  endfacet
  facet normal 0 -1 0
    outer loop
      vertex 138.4 0 0
      vertex 81.7 0 116.849
      vertex 76.9254 0 114.724
    endloop
  endfacet
  facet normal 0 -1 0
    outer loop
      vertex 138.4 0 0
      vertex 71.8132 0 113.637
      vertex 0 0 0
    endloop
  endfacet
  facet normal 0 -1 0
    outer loop
      vertex 71.8132 0 113.637
      vertex 138.4 0 0
      vertex 76.9254 0 114.724
    endloop
  endfacet
  facet normal 0 -1 0
    outer loop
      vertex 85.9283 0 119.921
      vertex 138.4 0 0
      vertex 138.4 0 138.5
    endloop
  endfacet
  facet normal 1 -0 0
    outer loop
      vertex 0.5 0.5 138.5
      vertex 0.5 247.9 1
      vertex 0.5 247.9 138.5
    endloop
  endfacet
  facet normal 1 0 0
    outer loop
      vertex 0.5 247.9 1
      vertex 0.5 0.5 138.5
      vertex 0.5 0.5 1
    endloop
  endfacet
  facet normal -1 0 0
    outer loop
      vertex 137.9 0.5 1
      vertex 137.9 247.9 138.5
      vertex 137.9 247.9 1
    endloop
  endfacet
  facet normal -1 -0 0
    outer loop
      vertex 137.9 247.9 138.5
      vertex 137.9 0.5 1
      vertex 137.9 0.5 138.5
    endloop
  endfacet
  facet normal 0 -1 0
    outer loop
      vertex 0.5 247.9 138.5
      vertex 44.7463 247.9 133.302
      vertex 44.2 247.9 138.5
    endloop
  endfacet
  facet normal 0 -1 0
    outer loop
      vertex 0.5 247.9 138.5
      vertex 46.3614 247.9 128.332
      vertex 44.7463 247.9 133.302
    endloop
  endfacet
  facet normal 0 -1 0
    outer loop
      vertex 0.5 247.9 138.5
      vertex 48.9746 247.9 123.805
      vertex 46.3614 247.9 128.332
    endloop
  endfacet
  facet normal 0 -1 0
    outer loop
      vertex 0.5 247.9 138.5
      vertex 52.4717 247.9 119.921
      vertex 48.9746 247.9 123.805
    endloop
  endfacet
  facet normal 0 -1 0
    outer loop
      vertex 0.5 247.9 1
      vertex 52.4717 247.9 119.921
      vertex 0.5 247.9 138.5
    endloop
  endfacet
  facet normal 0 -1 -0
    outer loop
      vertex 52.4717 247.9 119.921
      vertex 0.5 247.9 1
      vertex 56.7 247.9 116.849
    endloop
  endfacet
  facet normal 0 -1 -0
    outer loop
      vertex 66.5868 247.9 113.637
      vertex 0.5 247.9 1
      vertex 71.8132 247.9 113.637
    endloop
  endfacet
  facet normal 0 -1 -0
    outer loop
      vertex 61.4746 247.9 114.724
      vertex 0.5 247.9 1
      vertex 66.5868 247.9 113.637
    endloop
  endfacet
  facet normal 0 -1 -0
    outer loop
      vertex 56.7 247.9 116.849
      vertex 0.5 247.9 1
      vertex 61.4746 247.9 114.724
    endloop
  endfacet
  facet normal 0 -1 0
    outer loop
      vertex 93.6537 247.9 133.302
      vertex 137.9 247.9 138.5
      vertex 94.2 247.9 138.5
    endloop
  endfacet
  facet normal 0 -1 0
    outer loop
      vertex 92.0386 247.9 128.332
      vertex 137.9 247.9 138.5
      vertex 93.6537 247.9 133.302
    endloop
  endfacet
  facet normal 0 -1 0
    outer loop
      vertex 89.4254 247.9 123.805
      vertex 137.9 247.9 138.5
      vertex 92.0386 247.9 128.332
    endloop
  endfacet
  facet normal 0 -1 0
    outer loop
      vertex 85.9283 247.9 119.921
      vertex 137.9 247.9 138.5
      vertex 89.4254 247.9 123.805
    endloop
  endfacet
  facet normal 0 -1 0
    outer loop
      vertex 137.9 247.9 1
      vertex 85.9283 247.9 119.921
      vertex 81.7 247.9 116.849
    endloop
  endfacet
  facet normal 0 -1 0
    outer loop
      vertex 137.9 247.9 1
      vertex 81.7 247.9 116.849
      vertex 76.9254 247.9 114.724
    endloop
  endfacet
  facet normal 0 -1 0
    outer loop
      vertex 137.9 247.9 1
      vertex 71.8132 247.9 113.637
      vertex 0.5 247.9 1
    endloop
  endfacet
  facet normal 0 -1 0
    outer loop
      vertex 71.8132 247.9 113.637
      vertex 137.9 247.9 1
      vertex 76.9254 247.9 114.724
    endloop
  endfacet
  facet normal 0 -1 0
    outer loop
      vertex 85.9283 247.9 119.921
      vertex 137.9 247.9 1
      vertex 137.9 247.9 138.5
    endloop
  endfacet
  facet normal -0 0 1
    outer loop
      vertex 0.5 247.9 1
      vertex 137.9 0.5 1
      vertex 137.9 247.9 1
    endloop
  endfacet
  facet normal 0 0 1
    outer loop
      vertex 137.9 0.5 1
      vertex 0.5 247.9 1
      vertex 0.5 0.5 1
    endloop
  endfacet
  facet normal 0 1 0
    outer loop
      vertex 137.9 0.5 138.5
      vertex 93.6537 0.5 133.302
      vertex 94.2 0.5 138.5
    endloop
  endfacet
  facet normal 0 1 0
    outer loop
      vertex 137.9 0.5 138.5
      vertex 92.0386 0.5 128.332
      vertex 93.6537 0.5 133.302
    endloop
  endfacet
  facet normal 0 1 0
    outer loop
      vertex 137.9 0.5 138.5
      vertex 89.4254 0.5 123.805
      vertex 92.0386 0.5 128.332
    endloop
  endfacet
  facet normal 0 1 0
    outer loop
      vertex 137.9 0.5 138.5
      vertex 85.9283 0.5 119.921
      vertex 89.4254 0.5 123.805
    endloop
  endfacet
  facet normal 0 1 -0
    outer loop
      vertex 137.9 0.5 1
      vertex 85.9283 0.5 119.921
      vertex 137.9 0.5 138.5
    endloop
  endfacet
  facet normal 0 1 0
    outer loop
      vertex 85.9283 0.5 119.921
      vertex 137.9 0.5 1
      vertex 81.7 0.5 116.849
    endloop
  endfacet
  facet normal 0 1 0
    outer loop
      vertex 71.8132 0.5 113.637
      vertex 137.9 0.5 1
      vertex 66.5868 0.5 113.637
    endloop
  endfacet
  facet normal 0 1 0
    outer loop
      vertex 76.9254 0.5 114.724
      vertex 137.9 0.5 1
      vertex 71.8132 0.5 113.637
    endloop
  endfacet
  facet normal 0 1 0
    outer loop
      vertex 81.7 0.5 116.849
      vertex 137.9 0.5 1
      vertex 76.9254 0.5 114.724
    endloop
  endfacet
  facet normal 0 1 0
    outer loop
      vertex 44.7463 0.5 133.302
      vertex 0.5 0.5 138.5
      vertex 44.2 0.5 138.5
    endloop
  endfacet
  facet normal 0 1 0
    outer loop
      vertex 46.3614 0.5 128.332
      vertex 0.5 0.5 138.5
      vertex 44.7463 0.5 133.302
    endloop
  endfacet
  facet normal 0 1 0
    outer loop
      vertex 48.9746 0.5 123.805
      vertex 0.5 0.5 138.5
      vertex 46.3614 0.5 128.332
    endloop
  endfacet
  facet normal 0 1 0
    outer loop
      vertex 52.4717 0.5 119.921
      vertex 0.5 0.5 138.5
      vertex 48.9746 0.5 123.805
    endloop
  endfacet
  facet normal 0 1 0
    outer loop
      vertex 0.5 0.5 1
      vertex 52.4717 0.5 119.921
      vertex 56.7 0.5 116.849
    endloop
  endfacet
  facet normal 0 1 0
    outer loop
      vertex 0.5 0.5 1
      vertex 56.7 0.5 116.849
      vertex 61.4746 0.5 114.724
    endloop
  endfacet
  facet normal 0 1 0
    outer loop
      vertex 0.5 0.5 1
      vertex 66.5868 0.5 113.637
      vertex 137.9 0.5 1
    endloop
  endfacet
  facet normal 0 1 0
    outer loop
      vertex 66.5868 0.5 113.637
      vertex 0.5 0.5 1
      vertex 61.4746 0.5 114.724
    endloop
  endfacet
  facet normal 0 1 0
    outer loop
      vertex 52.4717 0.5 119.921
      vertex 0.5 0.5 1
      vertex 0.5 0.5 138.5
    endloop
  endfacet
  facet normal -0.207979 0 0.978133
    outer loop
      vertex 71.8132 248.4 113.637
      vertex 76.9254 247.9 114.724
      vertex 76.9254 248.4 114.724
    endloop
  endfacet
  facet normal -0.207979 0 0.978133
    outer loop
      vertex 76.9254 247.9 114.724
      vertex 71.8132 248.4 113.637
      vertex 71.8132 247.9 113.637
    endloop
  endfacet
  facet normal -0.207979 0 0.978133
    outer loop
      vertex 71.8132 0.5 113.637
      vertex 76.9254 0 114.724
      vertex 76.9254 0.5 114.724
    endloop
  endfacet
  facet normal -0.207979 0 0.978133
    outer loop
      vertex 76.9254 0 114.724
      vertex 71.8132 0.5 113.637
      vertex 71.8132 0 113.637
    endloop
  endfacet
  facet normal -0.866064 0 0.499933
    outer loop
      vertex 89.4254 247.9 123.805
      vertex 92.0386 248.4 128.332
      vertex 89.4254 248.4 123.805
    endloop
  endfacet
  facet normal -0.866064 0 0.499933
    outer loop
      vertex 92.0386 248.4 128.332
      vertex 89.4254 247.9 123.805
      vertex 92.0386 247.9 128.332
    endloop
  endfacet
  facet normal -0.866064 0 0.499933
    outer loop
      vertex 89.4254 0 123.805
      vertex 92.0386 0.5 128.332
      vertex 89.4254 0.5 123.805
    endloop
  endfacet
  facet normal -0.866064 0 0.499933
    outer loop
      vertex 92.0386 0.5 128.332
      vertex 89.4254 0 123.805
      vertex 92.0386 0 128.332
    endloop
  endfacet
  facet normal 0.406611 0 0.913602
    outer loop
      vertex 56.7 248.4 116.849
      vertex 61.4746 247.9 114.724
      vertex 61.4746 248.4 114.724
    endloop
  endfacet
  facet normal 0.406611 0 0.913602
    outer loop
      vertex 61.4746 247.9 114.724
      vertex 56.7 248.4 116.849
      vertex 56.7 247.9 116.849
    endloop
  endfacet
  facet normal 0.406611 0 0.913602
    outer loop
      vertex 56.7 0.5 116.849
      vertex 61.4746 0 114.724
      vertex 61.4746 0.5 114.724
    endloop
  endfacet
  facet normal 0.406611 0 0.913602
    outer loop
      vertex 61.4746 0 114.724
      vertex 56.7 0.5 116.849
      vertex 56.7 0 116.849
    endloop
  endfacet
  facet normal -0 0 1
    outer loop
      vertex 66.5868 248.4 113.637
      vertex 71.8132 247.9 113.637
      vertex 71.8132 248.4 113.637
    endloop
  endfacet
  facet normal 0 0 1
    outer loop
      vertex 71.8132 247.9 113.637
      vertex 66.5868 248.4 113.637
      vertex 66.5868 247.9 113.637
    endloop
  endfacet
  facet normal -0 0 1
    outer loop
      vertex 66.5868 0.5 113.637
      vertex 71.8132 0 113.637
      vertex 71.8132 0.5 113.637
    endloop
  endfacet
  facet normal 0 0 1
    outer loop
      vertex 71.8132 0 113.637
      vertex 66.5868 0.5 113.637
      vertex 66.5868 0 113.637
    endloop
  endfacet
  facet normal 0.743151 -0 0.669123
    outer loop
      vertex 48.9746 247.9 123.805
      vertex 52.4717 248.4 119.921
      vertex 48.9746 248.4 123.805
    endloop
  endfacet
  facet normal 0.743151 0 0.669123
    outer loop
      vertex 52.4717 248.4 119.921
      vertex 48.9746 247.9 123.805
      vertex 52.4717 247.9 119.921
    endloop
  endfacet
  facet normal 0.743151 -0 0.669123
    outer loop
      vertex 48.9746 0 123.805
      vertex 52.4717 0.5 119.921
      vertex 48.9746 0.5 123.805
    endloop
  endfacet
  facet normal 0.743151 0 0.669123
    outer loop
      vertex 52.4717 0.5 119.921
      vertex 48.9746 0 123.805
      vertex 52.4717 0 119.921
    endloop
  endfacet
  facet normal 0.951043 -0 0.30906
    outer loop
      vertex 44.7463 247.9 133.302
      vertex 46.3614 248.4 128.332
      vertex 44.7463 248.4 133.302
    endloop
  endfacet
  facet normal 0.951043 0 0.30906
    outer loop
      vertex 46.3614 248.4 128.332
      vertex 44.7463 247.9 133.302
      vertex 46.3614 247.9 128.332
    endloop
  endfacet
  facet normal 0.951043 -0 0.30906
    outer loop
      vertex 44.7463 0 133.302
      vertex 46.3614 0.5 128.332
      vertex 44.7463 0.5 133.302
    endloop
  endfacet
  facet normal 0.951043 0 0.30906
    outer loop
      vertex 46.3614 0.5 128.332
      vertex 44.7463 0 133.302
      vertex 46.3614 0 128.332
    endloop
  endfacet
  facet normal 0.994523 -0 0.104522
    outer loop
      vertex 44.2 0 138.5
      vertex 44.7463 0.5 133.302
      vertex 44.2 0.5 138.5
    endloop
  endfacet
  facet normal 0.994523 0 0.104522
    outer loop
      vertex 44.7463 0.5 133.302
      vertex 44.2 0 138.5
      vertex 44.7463 0 133.302
    endloop
  endfacet
  facet normal 0.994523 -0 0.104522
    outer loop
      vertex 44.2 247.9 138.5
      vertex 44.7463 248.4 133.302
      vertex 44.2 248.4 138.5
    endloop
  endfacet
  facet normal 0.994523 0 0.104522
    outer loop
      vertex 44.7463 248.4 133.302
      vertex 44.2 247.9 138.5
      vertex 44.7463 247.9 133.302
    endloop
  endfacet
  facet normal -0.406611 0 0.913602
    outer loop
      vertex 76.9254 248.4 114.724
      vertex 81.7 247.9 116.849
      vertex 81.7 248.4 116.849
    endloop
  endfacet
  facet normal -0.406611 0 0.913602
    outer loop
      vertex 81.7 247.9 116.849
      vertex 76.9254 248.4 114.724
      vertex 76.9254 247.9 114.724
    endloop
  endfacet
  facet normal -0.406611 0 0.913602
    outer loop
      vertex 76.9254 0.5 114.724
      vertex 81.7 0 116.849
      vertex 81.7 0.5 116.849
    endloop
  endfacet
  facet normal -0.406611 0 0.913602
    outer loop
      vertex 81.7 0 116.849
      vertex 76.9254 0.5 114.724
      vertex 76.9254 0 114.724
    endloop
  endfacet
  facet normal -0.58778 0 0.809021
    outer loop
      vertex 81.7 248.4 116.849
      vertex 85.9283 247.9 119.921
      vertex 85.9283 248.4 119.921
    endloop
  endfacet
  facet normal -0.58778 0 0.809021
    outer loop
      vertex 85.9283 247.9 119.921
      vertex 81.7 248.4 116.849
      vertex 81.7 247.9 116.849
    endloop
  endfacet
  facet normal -0.58778 0 0.809021
    outer loop
      vertex 81.7 0.5 116.849
      vertex 85.9283 0 119.921
      vertex 85.9283 0.5 119.921
    endloop
  endfacet
  facet normal -0.58778 0 0.809021
    outer loop
      vertex 85.9283 0 119.921
      vertex 81.7 0.5 116.849
      vertex 81.7 0 116.849
    endloop
  endfacet
  facet normal -0.743151 0 0.669123
    outer loop
      vertex 85.9283 247.9 119.921
      vertex 89.4254 248.4 123.805
      vertex 85.9283 248.4 119.921
    endloop
  endfacet
  facet normal -0.743151 0 0.669123
    outer loop
      vertex 89.4254 248.4 123.805
      vertex 85.9283 247.9 119.921
      vertex 89.4254 247.9 123.805
    endloop
  endfacet
  facet normal -0.743151 0 0.669123
    outer loop
      vertex 85.9283 0 119.921
      vertex 89.4254 0.5 123.805
      vertex 85.9283 0.5 119.921
    endloop
  endfacet
  facet normal -0.743151 0 0.669123
    outer loop
      vertex 89.4254 0.5 123.805
      vertex 85.9283 0 119.921
      vertex 89.4254 0 123.805
    endloop
  endfacet
  facet normal -0.951043 0 0.30906
    outer loop
      vertex 92.0386 247.9 128.332
      vertex 93.6537 248.4 133.302
      vertex 92.0386 248.4 128.332
    endloop
  endfacet
  facet normal -0.951043 0 0.30906
    outer loop
      vertex 93.6537 248.4 133.302
      vertex 92.0386 247.9 128.332
      vertex 93.6537 247.9 133.302
    endloop
  endfacet
  facet normal -0.951043 0 0.30906
    outer loop
      vertex 92.0386 0 128.332
      vertex 93.6537 0.5 133.302
      vertex 92.0386 0.5 128.332
    endloop
  endfacet
  facet normal -0.951043 0 0.30906
    outer loop
      vertex 93.6537 0.5 133.302
      vertex 92.0386 0 128.332
      vertex 93.6537 0 133.302
    endloop
  endfacet
  facet normal -0.994523 0 0.104522
    outer loop
      vertex 93.6537 0 133.302
      vertex 94.2 0.5 138.5
      vertex 93.6537 0.5 133.302
    endloop
  endfacet
  facet normal -0.994523 0 0.104522
    outer loop
      vertex 94.2 0.5 138.5
      vertex 93.6537 0 133.302
      vertex 94.2 0 138.5
    endloop
  endfacet
  facet normal -0.994523 0 0.104522
    outer loop
      vertex 93.6537 247.9 133.302
      vertex 94.2 248.4 138.5
      vertex 93.6537 248.4 133.302
    endloop
  endfacet
  facet normal -0.994523 0 0.104522
    outer loop
      vertex 94.2 248.4 138.5
      vertex 93.6537 247.9 133.302
      vertex 94.2 247.9 138.5
    endloop
  endfacet
  facet normal 0.207979 0 0.978133
    outer loop
      vertex 61.4746 248.4 114.724
      vertex 66.5868 247.9 113.637
      vertex 66.5868 248.4 113.637
    endloop
  endfacet
  facet normal 0.207979 0 0.978133
    outer loop
      vertex 66.5868 247.9 113.637
      vertex 61.4746 248.4 114.724
      vertex 61.4746 247.9 114.724
    endloop
  endfacet
  facet normal 0.207979 0 0.978133
    outer loop
      vertex 61.4746 0.5 114.724
      vertex 66.5868 0 113.637
      vertex 66.5868 0.5 113.637
    endloop
  endfacet
  facet normal 0.207979 0 0.978133
    outer loop
      vertex 66.5868 0 113.637
      vertex 61.4746 0.5 114.724
      vertex 61.4746 0 114.724
    endloop
  endfacet
  facet normal 0.58778 0 0.809021
    outer loop
      vertex 52.4717 248.4 119.921
      vertex 56.7 247.9 116.849
      vertex 56.7 248.4 116.849
    endloop
  endfacet
  facet normal 0.58778 0 0.809021
    outer loop
      vertex 56.7 247.9 116.849
      vertex 52.4717 248.4 119.921
      vertex 52.4717 247.9 119.921
    endloop
  endfacet
  facet normal 0.58778 0 0.809021
    outer loop
      vertex 52.4717 0.5 119.921
      vertex 56.7 0 116.849
      vertex 56.7 0.5 116.849
    endloop
  endfacet
  facet normal 0.58778 0 0.809021
    outer loop
      vertex 56.7 0 116.849
      vertex 52.4717 0.5 119.921
      vertex 52.4717 0 119.921
    endloop
  endfacet
  facet normal 0.866064 -0 0.499933
    outer loop
      vertex 46.3614 247.9 128.332
      vertex 48.9746 248.4 123.805
      vertex 46.3614 248.4 128.332
    endloop
  endfacet
  facet normal 0.866064 0 0.499933
    outer loop
      vertex 48.9746 248.4 123.805
      vertex 46.3614 247.9 128.332
      vertex 48.9746 247.9 123.805
    endloop
  endfacet
  facet normal 0.866064 -0 0.499933
    outer loop
      vertex 46.3614 0 128.332
      vertex 48.9746 0.5 123.805
      vertex 46.3614 0.5 128.332
    endloop
  endfacet
  facet normal 0.866064 0 0.499933
    outer loop
      vertex 48.9746 0.5 123.805
      vertex 46.3614 0 128.332
      vertex 48.9746 0 123.805
    endloop
  endfacet
  facet normal -1 0 0
    outer loop
      vertex 149 143.079 122.272
      vertex 149 249 139
      vertex 149 249 0
    endloop
  endfacet
  facet normal -1 0 0
    outer loop
      vertex 149 249 139
      vertex 149 148.276 131.275
      vertex 149 149.363 136.387
    endloop
  endfacet
  facet normal -1 0 0
    outer loop
      vertex 149 249 139
      vertex 149 146.151 126.5
      vertex 149 148.276 131.275
    endloop
  endfacet
  facet normal -1 0 0
    outer loop
      vertex 149 249 139
      vertex 149 143.079 122.272
      vertex 149 146.151 126.5
    endloop
  endfacet
  facet normal -1 0 0
    outer loop
      vertex 149 249 0
      vertex 149 139.195 118.775
      vertex 149 143.079 122.272
    endloop
  endfacet
  facet normal -1 0 0
    outer loop
      vertex 149 249 0
      vertex 149 134.668 116.161
      vertex 149 139.195 118.775
    endloop
  endfacet
  facet normal -1 0 0
    outer loop
      vertex 149 249 0
      vertex 149 129.698 114.546
      vertex 149 134.668 116.161
    endloop
  endfacet
  facet normal -1 0 0
    outer loop
      vertex 149 249 0
      vertex 149 124.5 114
      vertex 149 129.698 114.546
    endloop
  endfacet
  facet normal -1 0 0
    outer loop
      vertex 149 0 0
      vertex 149 124.5 114
      vertex 149 249 0
    endloop
  endfacet
  facet normal -1 -0 0
    outer loop
      vertex 149 124.5 114
      vertex 149 0 0
      vertex 149 119.302 114.546
    endloop
  endfacet
  facet normal -1 -0 0
    outer loop
      vertex 149 119.302 114.546
      vertex 149 0 0
      vertex 149 114.332 116.161
    endloop
  endfacet
  facet normal -1 -0 0
    outer loop
      vertex 149 114.332 116.161
      vertex 149 0 0
      vertex 149 109.805 118.775
    endloop
  endfacet
  facet normal -1 0 0
    outer loop
      vertex 149 0 0
      vertex 149 105.921 122.272
      vertex 149 109.805 118.775
    endloop
  endfacet
  facet normal -1 0 0
    outer loop
      vertex 149 0 139
      vertex 149 105.921 122.272
      vertex 149 0 0
    endloop
  endfacet
  facet normal -1 0 0
    outer loop
      vertex 149 105.921 122.272
      vertex 149 0 139
      vertex 149 102.849 126.5
    endloop
  endfacet
  facet normal -1 0 0
    outer loop
      vertex 149 102.849 126.5
      vertex 149 0 139
      vertex 149 100.724 131.275
    endloop
  endfacet
  facet normal -1 0 0
    outer loop
      vertex 149 100.724 131.275
      vertex 149 0 139
      vertex 149 99.637 136.387
    endloop
  endfacet
  facet normal -1 0 0
    outer loop
      vertex 149 99.637 136.387
      vertex 149 0 139
      vertex 149 99.637 139
    endloop
  endfacet
  facet normal -1 -0 0
    outer loop
      vertex 149 249 139
      vertex 149 149.363 136.387
      vertex 149 149.363 139
    endloop
  endfacet
  facet normal 0 0 1
    outer loop
      vertex 149.5 99.637 139
      vertex 149 99.637 139
      vertex 149.5 0.5 139
    endloop
  endfacet
  facet normal 0 0 1
    outer loop
      vertex 287.5 0.5 139
      vertex 288 99.637 139
      vertex 287.5 99.637 139
    endloop
  endfacet
  facet normal 0 0 1
    outer loop
      vertex 288 99.637 139
      vertex 287.5 0.5 139
      vertex 288 0 139
    endloop
  endfacet
  facet normal -0 0 1
    outer loop
      vertex 149.5 0.5 139
      vertex 288 0 139
      vertex 287.5 0.5 139
    endloop
  endfacet
  facet normal 0 0 1
    outer loop
      vertex 149.5 0.5 139
      vertex 149 0 139
      vertex 288 0 139
    endloop
  endfacet
  facet normal 0 0 1
    outer loop
      vertex 149 0 139
      vertex 149.5 0.5 139
      vertex 149 99.637 139
    endloop
  endfacet
  facet normal 0 0 1
    outer loop
      vertex 288 249 139
      vertex 287.5 248.5 139
      vertex 288 149.363 139
    endloop
  endfacet
  facet normal 0 0 1
    outer loop
      vertex 288 249 139
      vertex 149.5 248.5 139
      vertex 287.5 248.5 139
    endloop
  endfacet
  facet normal -0 0 1
    outer loop
      vertex 149 249 139
      vertex 149.5 248.5 139
      vertex 288 249 139
    endloop
  endfacet
  facet normal 0 0 1
    outer loop
      vertex 149 149.363 139
      vertex 149.5 248.5 139
      vertex 149 249 139
    endloop
  endfacet
  facet normal 0 0 1
    outer loop
      vertex 149.5 248.5 139
      vertex 149 149.363 139
      vertex 149.5 149.363 139
    endloop
  endfacet
  facet normal 0 0 1
    outer loop
      vertex 288 149.363 139
      vertex 287.5 248.5 139
      vertex 287.5 149.363 139
    endloop
  endfacet
  facet normal 1 0 0
    outer loop
      vertex 288 99.637 139
      vertex 288 0 139
      vertex 288 99.637 136.387
    endloop
  endfacet
  facet normal 1 0 0
    outer loop
      vertex 288 149.363 136.387
      vertex 288 249 139
      vertex 288 149.363 139
    endloop
  endfacet
  facet normal 1 0 0
    outer loop
      vertex 288 148.276 131.275
      vertex 288 249 139
      vertex 288 149.363 136.387
    endloop
  endfacet
  facet normal 1 0 0
    outer loop
      vertex 288 146.151 126.5
      vertex 288 249 139
      vertex 288 148.276 131.275
    endloop
  endfacet
  facet normal 1 0 0
    outer loop
      vertex 288 143.079 122.272
      vertex 288 249 139
      vertex 288 146.151 126.5
    endloop
  endfacet
  facet normal 1 0 0
    outer loop
      vertex 288 249 139
      vertex 288 143.079 122.272
      vertex 288 249 0
    endloop
  endfacet
  facet normal 1 -0 0
    outer loop
      vertex 288 139.195 118.775
      vertex 288 249 0
      vertex 288 143.079 122.272
    endloop
  endfacet
  facet normal 1 -0 0
    outer loop
      vertex 288 134.668 116.161
      vertex 288 249 0
      vertex 288 139.195 118.775
    endloop
  endfacet
  facet normal 1 -0 0
    outer loop
      vertex 288 129.698 114.546
      vertex 288 249 0
      vertex 288 134.668 116.161
    endloop
  endfacet
  facet normal 1 -0 0
    outer loop
      vertex 288 124.5 114
      vertex 288 249 0
      vertex 288 129.698 114.546
    endloop
  endfacet
  facet normal 1 0 0
    outer loop
      vertex 288 0 0
      vertex 288 124.5 114
      vertex 288 119.302 114.546
    endloop
  endfacet
  facet normal 1 0 0
    outer loop
      vertex 288 0 0
      vertex 288 119.302 114.546
      vertex 288 114.332 116.161
    endloop
  endfacet
  facet normal 1 0 0
    outer loop
      vertex 288 0 0
      vertex 288 114.332 116.161
      vertex 288 109.805 118.775
    endloop
  endfacet
  facet normal 1 0 0
    outer loop
      vertex 288 0 139
      vertex 288 100.724 131.275
      vertex 288 99.637 136.387
    endloop
  endfacet
  facet normal 1 0 0
    outer loop
      vertex 288 0 139
      vertex 288 102.849 126.5
      vertex 288 100.724 131.275
    endloop
  endfacet
  facet normal 1 0 0
    outer loop
      vertex 288 0 139
      vertex 288 105.921 122.272
      vertex 288 102.849 126.5
    endloop
  endfacet
  facet normal 1 0 0
    outer loop
      vertex 288 0 0
      vertex 288 105.921 122.272
      vertex 288 0 139
    endloop
  endfacet
  facet normal 1 0 0
    outer loop
      vertex 288 105.921 122.272
      vertex 288 0 0
      vertex 288 109.805 118.775
    endloop
  endfacet
  facet normal 1 0 0
    outer loop
      vertex 288 124.5 114
      vertex 288 0 0
      vertex 288 249 0
    endloop
  endfacet
  facet normal 0 0 -1
    outer loop
      vertex 149 0 0
      vertex 288 249 0
      vertex 288 0 0
    endloop
  endfacet
  facet normal -0 0 -1
    outer loop
      vertex 288 249 0
      vertex 149 0 0
      vertex 149 249 0
    endloop
  endfacet
  facet normal 0 -1 0
    outer loop
      vertex 149 0 0
      vertex 288 0 139
      vertex 149 0 139
    endloop
  endfacet
  facet normal 0 -1 -0
    outer loop
      vertex 288 0 139
      vertex 149 0 0
      vertex 288 0 0
    endloop
  endfacet
  facet normal 0 1 -0
    outer loop
      vertex 288 249 0
      vertex 149 249 139
      vertex 288 249 139
    endloop
  endfacet
  facet normal 0 1 0
    outer loop
      vertex 149 249 139
      vertex 288 249 0
      vertex 149 249 0
    endloop
  endfacet
  facet normal 1 0 0
    outer loop
      vertex 149.5 99.637 139
      vertex 149.5 0.5 139
      vertex 149.5 99.637 136.387
    endloop
  endfacet
  facet normal 1 0 0
    outer loop
      vertex 149.5 149.363 136.387
      vertex 149.5 248.5 139
      vertex 149.5 149.363 139
    endloop
  endfacet
  facet normal 1 0 0
    outer loop
      vertex 149.5 148.276 131.275
      vertex 149.5 248.5 139
      vertex 149.5 149.363 136.387
    endloop
  endfacet
  facet normal 1 0 0
    outer loop
      vertex 149.5 146.151 126.5
      vertex 149.5 248.5 139
      vertex 149.5 148.276 131.275
    endloop
  endfacet
  facet normal 1 0 0
    outer loop
      vertex 149.5 143.079 122.272
      vertex 149.5 248.5 139
      vertex 149.5 146.151 126.5
    endloop
  endfacet
  facet normal 1 0 0
    outer loop
      vertex 149.5 248.5 139
      vertex 149.5 143.079 122.272
      vertex 149.5 248.5 1
    endloop
  endfacet
  facet normal 1 -0 0
    outer loop
      vertex 149.5 139.195 118.775
      vertex 149.5 248.5 1
      vertex 149.5 143.079 122.272
    endloop
  endfacet
  facet normal 1 -0 0
    outer loop
      vertex 149.5 134.668 116.161
      vertex 149.5 248.5 1
      vertex 149.5 139.195 118.775
    endloop
  endfacet
  facet normal 1 -0 0
    outer loop
      vertex 149.5 129.698 114.546
      vertex 149.5 248.5 1
      vertex 149.5 134.668 116.161
    endloop
  endfacet
  facet normal 1 -0 0
    outer loop
      vertex 149.5 124.5 114
      vertex 149.5 248.5 1
      vertex 149.5 129.698 114.546
    endloop
  endfacet
  facet normal 1 0 0
    outer loop
      vertex 149.5 0.5 1
      vertex 149.5 124.5 114
      vertex 149.5 119.302 114.546
    endloop
  endfacet
  facet normal 1 0 0
    outer loop
      vertex 149.5 0.5 1
      vertex 149.5 119.302 114.546
      vertex 149.5 114.332 116.161
    endloop
  endfacet
  facet normal 1 0 0
    outer loop
      vertex 149.5 0.5 1
      vertex 149.5 114.332 116.161
      vertex 149.5 109.805 118.775
    endloop
  endfacet
  facet normal 1 0 0
    outer loop
      vertex 149.5 0.5 139
      vertex 149.5 100.724 131.275
      vertex 149.5 99.637 136.387
    endloop
  endfacet
  facet normal 1 0 0
    outer loop
      vertex 149.5 0.5 139
      vertex 149.5 102.849 126.5
      vertex 149.5 100.724 131.275
    endloop
  endfacet
  facet normal 1 0 0
    outer loop
      vertex 149.5 0.5 139
      vertex 149.5 105.921 122.272
      vertex 149.5 102.849 126.5
    endloop
  endfacet
  facet normal 1 0 0
    outer loop
      vertex 149.5 0.5 1
      vertex 149.5 105.921 122.272
      vertex 149.5 0.5 139
    endloop
  endfacet
  facet normal 1 0 0
    outer loop
      vertex 149.5 105.921 122.272
      vertex 149.5 0.5 1
      vertex 149.5 109.805 118.775
    endloop
  endfacet
  facet normal 1 0 0
    outer loop
      vertex 149.5 124.5 114
      vertex 149.5 0.5 1
      vertex 149.5 248.5 1
    endloop
  endfacet
  facet normal -1 0 0
    outer loop
      vertex 287.5 143.079 122.272
      vertex 287.5 248.5 139
      vertex 287.5 248.5 1
    endloop
  endfacet
  facet normal -1 0 0
    outer loop
      vertex 287.5 248.5 139
      vertex 287.5 148.276 131.275
      vertex 287.5 149.363 136.387
    endloop
  endfacet
  facet normal -1 0 0
    outer loop
      vertex 287.5 248.5 139
      vertex 287.5 146.151 126.5
      vertex 287.5 148.276 131.275
    endloop
  endfacet
  facet normal -1 0 0
    outer loop
      vertex 287.5 248.5 139
      vertex 287.5 143.079 122.272
      vertex 287.5 146.151 126.5
    endloop
  endfacet
  facet normal -1 0 0
    outer loop
      vertex 287.5 248.5 1
      vertex 287.5 139.195 118.775
      vertex 287.5 143.079 122.272
    endloop
  endfacet
  facet normal -1 0 0
    outer loop
      vertex 287.5 248.5 1
      vertex 287.5 134.668 116.161
      vertex 287.5 139.195 118.775
    endloop
  endfacet
  facet normal -1 0 0
    outer loop
      vertex 287.5 248.5 1
      vertex 287.5 129.698 114.546
      vertex 287.5 134.668 116.161
    endloop
  endfacet
  facet normal -1 0 0
    outer loop
      vertex 287.5 248.5 1
      vertex 287.5 124.5 114
      vertex 287.5 129.698 114.546
    endloop
  endfacet
  facet normal -1 0 0
    outer loop
      vertex 287.5 0.5 1
      vertex 287.5 124.5 114
      vertex 287.5 248.5 1
    endloop
  endfacet
  facet normal -1 -0 0
    outer loop
      vertex 287.5 124.5 114
      vertex 287.5 0.5 1
      vertex 287.5 119.302 114.546
    endloop
  endfacet
  facet normal -1 -0 0
    outer loop
      vertex 287.5 119.302 114.546
      vertex 287.5 0.5 1
      vertex 287.5 114.332 116.161
    endloop
  endfacet
  facet normal -1 -0 0
    outer loop
      vertex 287.5 114.332 116.161
      vertex 287.5 0.5 1
      vertex 287.5 109.805 118.775
    endloop
  endfacet
  facet normal -1 0 0
    outer loop
      vertex 287.5 0.5 1
      vertex 287.5 105.921 122.272
      vertex 287.5 109.805 118.775
    endloop
  endfacet
  facet normal -1 0 0
    outer loop
      vertex 287.5 0.5 139
      vertex 287.5 105.921 122.272
      vertex 287.5 0.5 1
    endloop
  endfacet
  facet normal -1 0 0
    outer loop
      vertex 287.5 105.921 122.272
      vertex 287.5 0.5 139
      vertex 287.5 102.849 126.5
    endloop
  endfacet
  facet normal -1 0 0
    outer loop
      vertex 287.5 102.849 126.5
      vertex 287.5 0.5 139
      vertex 287.5 100.724 131.275
    endloop
  endfacet
  facet normal -1 0 0
    outer loop
      vertex 287.5 100.724 131.275
      vertex 287.5 0.5 139
      vertex 287.5 99.637 136.387
    endloop
  endfacet
  facet normal -1 0 0
    outer loop
      vertex 287.5 99.637 136.387
      vertex 287.5 0.5 139
      vertex 287.5 99.637 139
    endloop
  endfacet
  facet normal -1 -0 0
    outer loop
      vertex 287.5 248.5 139
      vertex 287.5 149.363 136.387
      vertex 287.5 149.363 139
    endloop
  endfacet
  facet normal -0 0 1
    outer loop
      vertex 149.5 248.5 1
      vertex 287.5 0.5 1
      vertex 287.5 248.5 1
    endloop
  endfacet
  facet normal 0 0 1
    outer loop
      vertex 287.5 0.5 1
      vertex 149.5 248.5 1
      vertex 149.5 0.5 1
    endloop
  endfacet
  facet normal 0 1 -0
    outer loop
      vertex 287.5 0.5 1
      vertex 149.5 0.5 139
      vertex 287.5 0.5 139
    endloop
  endfacet
  facet normal 0 1 0
    outer loop
      vertex 149.5 0.5 139
      vertex 287.5 0.5 1
      vertex 149.5 0.5 1
    endloop
  endfacet
  facet normal 0 -1 0
    outer loop
      vertex 149.5 248.5 1
      vertex 287.5 248.5 139
      vertex 149.5 248.5 139
    endloop
  endfacet
  facet normal 0 -1 -0
    outer loop
      vertex 287.5 248.5 139
      vertex 149.5 248.5 1
      vertex 287.5 248.5 1
    endloop
  endfacet
  facet normal 0 -0.104466 0.994528
    outer loop
      vertex 149 129.698 114.546
      vertex 149.5 124.5 114
      vertex 149.5 129.698 114.546
    endloop
  endfacet
  facet normal 0 -0.104466 0.994528
    outer loop
      vertex 149.5 124.5 114
      vertex 149 129.698 114.546
      vertex 149 124.5 114
    endloop
  endfacet
  facet normal 0 -0.104466 0.994528
    outer loop
      vertex 287.5 129.698 114.546
      vertex 288 124.5 114
      vertex 288 129.698 114.546
    endloop
  endfacet
  facet normal 0 -0.104466 0.994528
    outer loop
      vertex 288 124.5 114
      vertex 287.5 129.698 114.546
      vertex 287.5 124.5 114
    endloop
  endfacet
  facet normal 0 1 -0
    outer loop
      vertex 149.5 99.637 136.387
      vertex 149 99.637 139
      vertex 149.5 99.637 139
    endloop
  endfacet
  facet normal 0 1 0
    outer loop
      vertex 149 99.637 139
      vertex 149.5 99.637 136.387
      vertex 149 99.637 136.387
    endloop
  endfacet
  facet normal 0 1 -0
    outer loop
      vertex 288 99.637 136.387
      vertex 287.5 99.637 139
      vertex 288 99.637 139
    endloop
  endfacet
  facet normal 0 1 0
    outer loop
      vertex 287.5 99.637 139
      vertex 288 99.637 136.387
      vertex 287.5 99.637 136.387
    endloop
  endfacet
  facet normal 0 -0.309043 0.951048
    outer loop
      vertex 149 134.668 116.161
      vertex 149.5 129.698 114.546
      vertex 149.5 134.668 116.161
    endloop
  endfacet
  facet normal 0 -0.309043 0.951048
    outer loop
      vertex 149.5 129.698 114.546
      vertex 149 134.668 116.161
      vertex 149 129.698 114.546
    endloop
  endfacet
  facet normal 0 -0.309043 0.951048
    outer loop
      vertex 287.5 134.668 116.161
      vertex 288 129.698 114.546
      vertex 288 134.668 116.161
    endloop
  endfacet
  facet normal 0 -0.309043 0.951048
    outer loop
      vertex 288 129.698 114.546
      vertex 287.5 134.668 116.161
      vertex 287.5 129.698 114.546
    endloop
  endfacet
  facet normal -0 0.500048 0.865998
    outer loop
      vertex 149 114.332 116.161
      vertex 149.5 109.805 118.775
      vertex 149.5 114.332 116.161
    endloop
  endfacet
  facet normal 0 0.500048 0.865998
    outer loop
      vertex 149.5 109.805 118.775
      vertex 149 114.332 116.161
      vertex 149 109.805 118.775
    endloop
  endfacet
  facet normal -0 0.500048 0.865998
    outer loop
      vertex 287.5 114.332 116.161
      vertex 288 109.805 118.775
      vertex 288 114.332 116.161
    endloop
  endfacet
  facet normal 0 0.500048 0.865998
    outer loop
      vertex 288 109.805 118.775
      vertex 287.5 114.332 116.161
      vertex 287.5 109.805 118.775
    endloop
  endfacet
  facet normal 0 -0.500048 0.865998
    outer loop
      vertex 149 139.195 118.775
      vertex 149.5 134.668 116.161
      vertex 149.5 139.195 118.775
    endloop
  endfacet
  facet normal 0 -0.500048 0.865998
    outer loop
      vertex 149.5 134.668 116.161
      vertex 149 139.195 118.775
      vertex 149 134.668 116.161
    endloop
  endfacet
  facet normal 0 -0.500048 0.865998
    outer loop
      vertex 287.5 139.195 118.775
      vertex 288 134.668 116.161
      vertex 288 139.195 118.775
    endloop
  endfacet
  facet normal 0 -0.500048 0.865998
    outer loop
      vertex 288 134.668 116.161
      vertex 287.5 139.195 118.775
      vertex 287.5 134.668 116.161
    endloop
  endfacet
  facet normal 0 -0.978132 0.207987
    outer loop
      vertex 149 148.276 131.275
      vertex 149.5 149.363 136.387
      vertex 149 149.363 136.387
    endloop
  endfacet
  facet normal 0 -0.978132 0.207987
    outer loop
      vertex 149.5 149.363 136.387
      vertex 149 148.276 131.275
      vertex 149.5 148.276 131.275
    endloop
  endfacet
  facet normal 0 -0.978132 0.207987
    outer loop
      vertex 287.5 148.276 131.275
      vertex 288 149.363 136.387
      vertex 287.5 149.363 136.387
    endloop
  endfacet
  facet normal 0 -0.978132 0.207987
    outer loop
      vertex 288 149.363 136.387
      vertex 287.5 148.276 131.275
      vertex 288 148.276 131.275
    endloop
  endfacet
  facet normal 0 -0.809001 0.587808
    outer loop
      vertex 149 143.079 122.272
      vertex 149.5 146.151 126.5
      vertex 149 146.151 126.5
    endloop
  endfacet
  facet normal 0 -0.809001 0.587808
    outer loop
      vertex 149.5 146.151 126.5
      vertex 149 143.079 122.272
      vertex 149.5 143.079 122.272
    endloop
  endfacet
  facet normal 0 -0.809001 0.587808
    outer loop
      vertex 287.5 143.079 122.272
      vertex 288 146.151 126.5
      vertex 287.5 146.151 126.5
    endloop
  endfacet
  facet normal 0 -0.809001 0.587808
    outer loop
      vertex 288 146.151 126.5
      vertex 287.5 143.079 122.272
      vertex 288 143.079 122.272
    endloop
  endfacet
  facet normal -0 0.104466 0.994528
    outer loop
      vertex 149 124.5 114
      vertex 149.5 119.302 114.546
      vertex 149.5 124.5 114
    endloop
  endfacet
  facet normal 0 0.104466 0.994528
    outer loop
      vertex 149.5 119.302 114.546
      vertex 149 124.5 114
      vertex 149 119.302 114.546
    endloop
  endfacet
  facet normal -0 0.104466 0.994528
    outer loop
      vertex 287.5 124.5 114
      vertex 288 119.302 114.546
      vertex 288 124.5 114
    endloop
  endfacet
  facet normal 0 0.104466 0.994528
    outer loop
      vertex 288 119.302 114.546
      vertex 287.5 124.5 114
      vertex 287.5 119.302 114.546
    endloop
  endfacet
  facet normal 0 -0.669113 0.743161
    outer loop
      vertex 149 143.079 122.272
      vertex 149.5 139.195 118.775
      vertex 149.5 143.079 122.272
    endloop
  endfacet
  facet normal 0 -0.669113 0.743161
    outer loop
      vertex 149.5 139.195 118.775
      vertex 149 143.079 122.272
      vertex 149 139.195 118.775
    endloop
  endfacet
  facet normal 0 -0.669113 0.743161
    outer loop
      vertex 287.5 143.079 122.272
      vertex 288 139.195 118.775
      vertex 288 143.079 122.272
    endloop
  endfacet
  facet normal 0 -0.669113 0.743161
    outer loop
      vertex 288 139.195 118.775
      vertex 287.5 143.079 122.272
      vertex 287.5 139.195 118.775
    endloop
  endfacet
  facet normal 0 -1 0
    outer loop
      vertex 149 149.363 136.387
      vertex 149.5 149.363 139
      vertex 149 149.363 139
    endloop
  endfacet
  facet normal 0 -1 -0
    outer loop
      vertex 149.5 149.363 139
      vertex 149 149.363 136.387
      vertex 149.5 149.363 136.387
    endloop
  endfacet
  facet normal 0 -1 0
    outer loop
      vertex 287.5 149.363 136.387
      vertex 288 149.363 139
      vertex 287.5 149.363 139
    endloop
  endfacet
  facet normal 0 -1 -0
    outer loop
      vertex 288 149.363 139
      vertex 287.5 149.363 136.387
      vertex 288 149.363 136.387
    endloop
  endfacet
  facet normal 0 -0.913614 0.406582
    outer loop
      vertex 149 146.151 126.5
      vertex 149.5 148.276 131.275
      vertex 149 148.276 131.275
    endloop
  endfacet
  facet normal 0 -0.913614 0.406582
    outer loop
      vertex 149.5 148.276 131.275
      vertex 149 146.151 126.5
      vertex 149.5 146.151 126.5
    endloop
  endfacet
  facet normal 0 -0.913614 0.406582
    outer loop
      vertex 287.5 146.151 126.5
      vertex 288 148.276 131.275
      vertex 287.5 148.276 131.275
    endloop
  endfacet
  facet normal 0 -0.913614 0.406582
    outer loop
      vertex 288 148.276 131.275
      vertex 287.5 146.151 126.5
      vertex 288 146.151 126.5
    endloop
  endfacet
  facet normal 0 0.809001 0.587808
    outer loop
      vertex 149.5 105.921 122.272
      vertex 149 102.849 126.5
      vertex 149.5 102.849 126.5
    endloop
  endfacet
  facet normal 0 0.809001 0.587808
    outer loop
      vertex 149 102.849 126.5
      vertex 149.5 105.921 122.272
      vertex 149 105.921 122.272
    endloop
  endfacet
  facet normal 0 0.809001 0.587808
    outer loop
      vertex 288 105.921 122.272
      vertex 287.5 102.849 126.5
      vertex 288 102.849 126.5
    endloop
  endfacet
  facet normal 0 0.809001 0.587808
    outer loop
      vertex 287.5 102.849 126.5
      vertex 288 105.921 122.272
      vertex 287.5 105.921 122.272
    endloop
  endfacet
  facet normal -0 0.669113 0.743161
    outer loop
      vertex 149 109.805 118.775
      vertex 149.5 105.921 122.272
      vertex 149.5 109.805 118.775
    endloop
  endfacet
  facet normal 0 0.669113 0.743161
    outer loop
      vertex 149.5 105.921 122.272
      vertex 149 109.805 118.775
      vertex 149 105.921 122.272
    endloop
  endfacet
  facet normal -0 0.669113 0.743161
    outer loop
      vertex 287.5 109.805 118.775
      vertex 288 105.921 122.272
      vertex 288 109.805 118.775
    endloop
  endfacet
  facet normal 0 0.669113 0.743161
    outer loop
      vertex 288 105.921 122.272
      vertex 287.5 109.805 118.775
      vertex 287.5 105.921 122.272
    endloop
  endfacet
  facet normal -0 0.309043 0.951048
    outer loop
      vertex 149 119.302 114.546
      vertex 149.5 114.332 116.161
      vertex 149.5 119.302 114.546
    endloop
  endfacet
  facet normal 0 0.309043 0.951048
    outer loop
      vertex 149.5 114.332 116.161
      vertex 149 119.302 114.546
      vertex 149 114.332 116.161
    endloop
  endfacet
  facet normal -0 0.309043 0.951048
    outer loop
      vertex 287.5 119.302 114.546
      vertex 288 114.332 116.161
      vertex 288 119.302 114.546
    endloop
  endfacet
  facet normal 0 0.309043 0.951048
    outer loop
      vertex 288 114.332 116.161
      vertex 287.5 119.302 114.546
      vertex 287.5 114.332 116.161
    endloop
  endfacet
  facet normal 0 0.913614 0.406582
    outer loop
      vertex 149.5 102.849 126.5
      vertex 149 100.724 131.275
      vertex 149.5 100.724 131.275
    endloop
  endfacet
  facet normal 0 0.913614 0.406582
    outer loop
      vertex 149 100.724 131.275
      vertex 149.5 102.849 126.5
      vertex 149 102.849 126.5
    endloop
  endfacet
  facet normal 0 0.913614 0.406582
    outer loop
      vertex 288 102.849 126.5
      vertex 287.5 100.724 131.275
      vertex 288 100.724 131.275
    endloop
  endfacet
  facet normal 0 0.913614 0.406582
    outer loop
      vertex 287.5 100.724 131.275
      vertex 288 102.849 126.5
      vertex 287.5 102.849 126.5
    endloop
  endfacet
  facet normal 0 0.978132 0.207987
    outer loop
      vertex 149.5 100.724 131.275
      vertex 149 99.637 136.387
      vertex 149.5 99.637 136.387
    endloop
  endfacet
  facet normal 0 0.978132 0.207987
    outer loop
      vertex 149 99.637 136.387
      vertex 149.5 100.724 131.275
      vertex 149 100.724 131.275
    endloop
  endfacet
  facet normal 0 0.978132 0.207987
    outer loop
      vertex 288 100.724 131.275
      vertex 287.5 99.637 136.387
      vertex 288 99.637 136.387
    endloop
  endfacet
  facet normal 0 0.978132 0.207987
    outer loop
      vertex 287.5 99.637 136.387
      vertex 288 100.724 131.275
      vertex 287.5 100.724 131.275
    endloop
  endfacet
endsolid OpenSCAD_Model
