  0
SECTION
  2
HEADER
  9
$ACADVER
  1
AC1018
  9
$ACADMAINTVER
 70
     0
  9
$DWGCODEPAGE
  3
ANSI_1252
  9
$INSBASE
 10
0.0
 20
0.0
 30
0.0
  9
$EXTMIN
 10
1.000000000000000E+20
 20
1.000000000000000E+20
 30
1.000000000000000E+20
  9
$EXTMAX
 10
-1.000000000000000E+20
 20
-1.000000000000000E+20
 30
-1.000000000000000E+20
  9
$LIMMIN
 10
0.0
 20
0.0
  9
$LIMMAX
 10
12.0
 20
9.0
  9
$ORTHOMODE
 70
     0
  9
$REGENMODE
 70
     1
  9
$FILLMODE
 70
     1
  9
$QTEXTMODE
 70
     0
  9
$MIRRTEXT
 70
     1
  9
$LTSCALE
 40
1.0
  9
$ATTMODE
 70
     1
  9
$TEXTSIZE
 40
0.2
  9
$TRACEWID
 40
0.05
  9
$TEXTSTYLE
  7
Standard
  9
$CLAYER
  8
0
  9
$CELTYPE
  6
ByLayer
  9
$CECOLOR
 62
   256
  9
$CELTSCALE
 40
1.0
  9
$DISPSILH
 70
     0
  9
$DIMSCALE
 40
1.0
  9
$DIMASZ
 40
0.18
  9
$DIMEXO
 40
0.0625
  9
$DIMDLI
 40
0.38
  9
$DIMRND
 40
0.0
  9
$DIMDLE
 40
0.0
  9
$DIMEXE
 40
0.18
  9
$DIMTP
 40
0.0
  9
$DIMTM
 40
0.0
  9
$DIMTXT
 40
0.18
  9
$DIMCEN
 40
0.09
  9
$DIMTSZ
 40
0.0
  9
$DIMTOL
 70
     0
  9
$DIMLIM
 70
     0
  9
$DIMTIH
 70
     1
  9
$DIMTOH
 70
     1
  9
$DIMSE1
 70
     0
  9
$DIMSE2
 70
     0
  9
$DIMTAD
 70
     0
  9
$DIMZIN
 70
     0
  9
$DIMBLK
  1

  9
$DIMASO
 70
     1
  9
$DIMSHO
 70
     1
  9
$DIMPOST
  1

  9
$DIMAPOST
  1

  9
$DIMALT
 70
     0
  9
$DIMALTD
 70
     2
  9
$DIMALTF
 40
25.4
  9
$DIMLFAC
 40
1.0
  9
$DIMTOFL
 70
     0
  9
$DIMTVP
 40
0.0
  9
$DIMTIX
 70
     0
  9
$DIMSOXD
 70
     0
  9
$DIMSAH
 70
     0
  9
$DIMBLK1
  1

  9
$DIMBLK2
  1

  9
$DIMSTYLE
  2
Standard
  9
$DIMCLRD
 70
     0
  9
$DIMCLRE
 70
     0
  9
$DIMCLRT
 70
     0
  9
$DIMTFAC
 40
1.0
  9
$DIMGAP
 40
0.09
  9
$DIMJUST
 70
     0
  9
$DIMSD1
 70
     0
  9
$DIMSD2
 70
     0
  9
$DIMTOLJ
 70
     1
  9
$DIMTZIN
 70
     0
  9
$DIMALTZ
 70
     0
  9
$DIMALTTZ
 70
     0
  9
$DIMUPT
 70
     0
  9
$DIMDEC
 70
     4
  9
$DIMTDEC
 70
     4
  9
$DIMALTU
 70
     2
  9
$DIMALTTD
 70
     2
  9
$DIMTXSTY
  7
Standard
  9
$DIMAUNIT
 70
     0
  9
$DIMADEC
 70
     0
  9
$DIMALTRND
 40
0.0
  9
$DIMAZIN
 70
     0
  9
$DIMDSEP
 70
    46
  9
$DIMATFIT
 70
     3
  9
$DIMFRAC
 70
     0
  9
$DIMLDRBLK
  1

  9
$DIMLUNIT
 70
     2
  9
$DIMLWD
 70
    -2
  9
$DIMLWE
 70
    -2
  9
$DIMTMOVE
 70
     0
  9
$LUNITS
 70
     2
  9
$LUPREC
 70
     4
  9
$SKETCHINC
 40
0.1
  9
$FILLETRAD
 40
0.5
  9
$AUNITS
 70
     0
  9
$AUPREC
 70
     0
  9
$MENU
  1
.
  9
$ELEVATION
 40
0.0
  9
$PELEVATION
 40
0.0
  9
$THICKNESS
 40
0.0
  9
$LIMCHECK
 70
     0
  9
$CHAMFERA
 40
0.5
  9
$CHAMFERB
 40
0.5
  9
$CHAMFERC
 40
1.0
  9
$CHAMFERD
 40
0.0
  9
$SKPOLY
 70
     0
  9
$TDCREATE
 40
2459123.317826354
  9
$TDUCREATE
 40
2459122.921993021
  9
$TDUPDATE
 40
2459123.317826366
  9
$TDUUPDATE
 40
2459122.921993033
  9
$TDINDWG
 40
0.0000000116
  9
$TDUSRTIMER
 40
0.0000000116
  9
$USRTIMER
 70
     1
  9
$ANGBASE
 50
0.0
  9
$ANGDIR
 70
     0
  9
$PDMODE
 70
     0
  9
$PDSIZE
 40
0.0
  9
$PLINEWID
 40
0.0
  9
$SPLFRAME
 70
     0
  9
$SPLINETYPE
 70
     6
  9
$SPLINESEGS
 70
     8
  9
$HANDSEED
  5
49
  9
$SURFTAB1
 70
     6
  9
$SURFTAB2
 70
     6
  9
$SURFTYPE
 70
     6
  9
$SURFU
 70
     6
  9
$SURFV
 70
     6
  9
$UCSBASE
  2

  9
$UCSNAME
  2

  9
$UCSORG
 10
0.0
 20
0.0
 30
0.0
  9
$UCSXDIR
 10
1.0
 20
0.0
 30
0.0
  9
$UCSYDIR
 10
0.0
 20
1.0
 30
0.0
  9
$UCSORTHOREF
  2

  9
$UCSORTHOVIEW
 70
     0
  9
$UCSORGTOP
 10
0.0
 20
0.0
 30
0.0
  9
$UCSORGBOTTOM
 10
0.0
 20
0.0
 30
0.0
  9
$UCSORGLEFT
 10
0.0
 20
0.0
 30
0.0
  9
$UCSORGRIGHT
 10
0.0
 20
0.0
 30
0.0
  9
$UCSORGFRONT
 10
0.0
 20
0.0
 30
0.0
  9
$UCSORGBACK
 10
0.0
 20
0.0
 30
0.0
  9
$PUCSBASE
  2

  9
$PUCSNAME
  2

  9
$PUCSORG
 10
0.0
 20
0.0
 30
0.0
  9
$PUCSXDIR
 10
1.0
 20
0.0
 30
0.0
  9
$PUCSYDIR
 10
0.0
 20
1.0
 30
0.0
  9
$PUCSORTHOREF
  2

  9
$PUCSORTHOVIEW
 70
     0
  9
$PUCSORGTOP
 10
0.0
 20
0.0
 30
0.0
  9
$PUCSORGBOTTOM
 10
0.0
 20
0.0
 30
0.0
  9
$PUCSORGLEFT
 10
0.0
 20
0.0
 30
0.0
  9
$PUCSORGRIGHT
 10
0.0
 20
0.0
 30
0.0
  9
$PUCSORGFRONT
 10
0.0
 20
0.0
 30
0.0
  9
$PUCSORGBACK
 10
0.0
 20
0.0
 30
0.0
  9
$USERI1
 70
     0
  9
$USERI2
 70
     0
  9
$USERI3
 70
     0
  9
$USERI4
 70
     0
  9
$USERI5
 70
     0
  9
$USERR1
 40
0.0
  9
$USERR2
 40
0.0
  9
$USERR3
 40
0.0
  9
$USERR4
 40
0.0
  9
$USERR5
 40
0.0
  9
$WORLDVIEW
 70
     1
  9
$SHADEDGE
 70
     3
  9
$SHADEDIF
 70
    70
  9
$TILEMODE
 70
     1
  9
$MAXACTVP
 70
    64
  9
$PINSBASE
 10
0.0
 20
0.0
 30
0.0
  9
$PLIMCHECK
 70
     0
  9
$PEXTMIN
 10
1.000000000000000E+20
 20
1.000000000000000E+20
 30
1.000000000000000E+20
  9
$PEXTMAX
 10
-1.000000000000000E+20
 20
-1.000000000000000E+20
 30
-1.000000000000000E+20
  9
$PLIMMIN
 10
0.0
 20
0.0
  9
$PLIMMAX
 10
12.0
 20
9.0
  9
$UNITMODE
 70
     0
  9
$VISRETAIN
 70
     1
  9
$PLINEGEN
 70
     0
  9
$PSLTSCALE
 70
     1
  9
$TREEDEPTH
 70
  3020
  9
$CMLSTYLE
  2
Standard
  9
$CMLJUST
 70
     0
  9
$CMLSCALE
 40
1.0
  9
$PROXYGRAPHICS
 70
     1
  9
$MEASUREMENT
 70
     0
  9
$CELWEIGHT
370
    -1
  9
$ENDCAPS
280
     0
  9
$JOINSTYLE
280
     0
  9
$LWDISPLAY
290
     1
  9
$INSUNITS
 70
     1
  9
$HYPERLINKBASE
  1

  9
$STYLESHEET
  1

  9
$XEDIT
290
     1
  9
$CEPSNTYPE
380
     0
  9
$PSTYLEMODE
290
     1
  9
$FINGERPRINTGUID
  2
{4CC5C4B1-32F6-455C-B9D3-EFA916216D52}
  9
$VERSIONGUID
  2
{FAEB1C32-E019-11D5-929B-00C0DF256EC4}
  9
$EXTNAMES
290
     1
  9
$PSVPSCALE
 40
0.0
  9
$OLESTARTUP
290
     0
  9
$SORTENTS
280
   127
  9
$INDEXCTL
280
     0
  9
$HIDETEXT
280
     1
  9
$XCLIPFRAME
290
     0
  9
$HALOGAP
280
     0
  9
$OBSCOLOR
 70
   257
  9
$OBSLTYPE
280
     0
  9
$INTERSECTIONDISPLAY
280
     0
  9
$INTERSECTIONCOLOR
 70
   257
  9
$DIMASSOC
280
     2
  9
$PROJECTNAME
  1

  0
ENDSEC
  0
SECTION
  2
CLASSES
  0
CLASS
  1
ACDBDICTIONARYWDFLT
  2
AcDbDictionaryWithDefault
  3
ObjectDBX Classes
 90
        0
 91
        3
280
     0
281
     0
  0
CLASS
  1
VISUALSTYLE
  2
AcDbVisualStyle
  3
ObjectDBX Classes
 90
     4095
 91
        3
280
     0
281
     0
  0
ENDSEC
  0
SECTION
  2
TABLES
  0
TABLE
  2
VPORT
  5
8
330
0
100
AcDbSymbolTable
 70
     1
  0
VPORT
  5
29
330
8
100
AcDbSymbolTableRecord
100
AcDbViewportTableRecord
  2
*Active
 70
     0
 10
0.0
 20
0.0
 11
1.0
 21
1.0
 12
0.0
 22
0.0
 13
0.0
 23
0.0
 14
0.5
 24
0.5
 15
0.5
 25
0.5
 16
0.0
 26
0.0
 36
1.0
 17
640.0
 27
-400.0
 37
0.0
 40
800.0
 41
1.6
 42
50.0
 43
0.0
 44
0.0
 50
0.0
 51
0.0
 71
     0
 72
   100
 73
     1
 74
     3
 75
     0
 76
     0
 77
     0
 78
     0
281
     0
 65
     1
110
0.0
120
0.0
130
0.0
111
1.0
121
0.0
131
0.0
112
0.0
122
1.0
132
0.0
 79
     0
146
0.0
  0
ENDTAB
  0
TABLE
  2
LTYPE
  5
5
330
0
100
AcDbSymbolTable
 70
     1
  0
LTYPE
  5
14
330
5
100
AcDbSymbolTableRecord
100
AcDbLinetypeTableRecord
  2
ByBlock
 70
     0
  3

 72
    65
 73
     0
 40
0.0
  0
LTYPE
  5
15
330
5
100
AcDbSymbolTableRecord
100
AcDbLinetypeTableRecord
  2
ByLayer
 70
     0
  3

 72
    65
 73
     0
 40
0.0
  0
LTYPE
  5
16
330
5
100
AcDbSymbolTableRecord
100
AcDbLinetypeTableRecord
  2
Continuous
 70
     0
  3
Solid line
 72
    65
 73
     0
 40
0.0
  0
ENDTAB
  0
TABLE
  2
LAYER
  5
2
330
0
100
AcDbSymbolTable
 70
     2
  0
LAYER
  5
10
330
2
100
AcDbSymbolTableRecord
100
AcDbLayerTableRecord
  2
0
 70
     0
 62
     7
  6
Continuous
370
    -3
390
F
  0
LAYER
  5
3B
330
2
100
AcDbSymbolTableRecord
100
AcDbLayerTableRecord
  2
Layer 1
 70
     0
 62
     7
  6
Continuous
370
    -3
390
F
  0
ENDTAB
  0
TABLE
  2
STYLE
  5
3
330
0
100
AcDbSymbolTable
 70
     1
  0
STYLE
  5
11
330
3
100
AcDbSymbolTableRecord
100
AcDbTextStyleTableRecord
  2
Standard
 70
     0
 40
0.0
 41
1.0
 50
0.0
 71
     0
 42
0.2
  3
txt
  4

  0
ENDTAB
  0
TABLE
  2
VIEW
  5
6
330
0
100
AcDbSymbolTable
 70
     0
  0
ENDTAB
  0
TABLE
  2
UCS
  5
7
330
0
100
AcDbSymbolTable
 70
     0
  0
ENDTAB
  0
TABLE
  2
APPID
  5
9
330
0
100
AcDbSymbolTable
 70
     1
  0
APPID
  5
12
330
9
100
AcDbSymbolTableRecord
100
AcDbRegAppTableRecord
  2
ACAD
 70
     0
  0
ENDTAB
  0
TABLE
  2
DIMSTYLE
  5
A
330
0
100
AcDbSymbolTable
 70
     1
100
AcDbDimStyleTable
  0
DIMSTYLE
105
27
330
A
100
AcDbSymbolTableRecord
100
AcDbDimStyleTableRecord
  2
Standard
 70
     0
340
11
  0
ENDTAB
  0
TABLE
  2
BLOCK_RECORD
  5
1
330
0
100
AcDbSymbolTable
 70
     2
  0
BLOCK_RECORD
  5
1F
330
1
100
AcDbSymbolTableRecord
100
AcDbBlockTableRecord
  2
*Model_Space
340
22
  0
BLOCK_RECORD
  5
1B
330
1
100
AcDbSymbolTableRecord
100
AcDbBlockTableRecord
  2
*Paper_Space
340
1E
  0
BLOCK_RECORD
  5
23
330
1
100
AcDbSymbolTableRecord
100
AcDbBlockTableRecord
  2
*Paper_Space0
340
26
  0
BLOCK_RECORD
  5
3C
330
1
100
AcDbSymbolTableRecord
100
AcDbBlockTableRecord
  2
block 2
340
0
102
{BLKREFS
331
3D
102
}
  0
ENDTAB
  0
ENDSEC
  0
SECTION
  2
BLOCKS
  0
BLOCK
  5
20
330
1F
100
AcDbEntity
  8
0
100
AcDbBlockBegin
  2
*Model_Space
 70
     0
 71
     0
 10
0.0
 20
0.0
 30
0.0
  3
*Model_Space
  1

  0
ENDBLK
  5
21
330
1F
100
AcDbEntity
  8
0
100
AcDbBlockEnd
  0
BLOCK
  5
1C
330
1B
100
AcDbEntity
 67
     1
  8
0
100
AcDbBlockBegin
  2
*Paper_Space
 70
     0
 71
     0
 10
0.0
 20
0.0
 30
0.0
  3
*Paper_Space
  1

  0
ENDBLK
  5
1D
330
1B
100
AcDbEntity
 67
     1
  8
0
100
AcDbBlockEnd
  0
BLOCK
  5
24
330
23
100
AcDbEntity
  8
0
100
AcDbBlockBegin
  2
*Paper_Space0
 70
     0
 71
     0
 10
0.0
 20
0.0
 30
0.0
  3
*Paper_Space0
  1

  0
ENDBLK
  5
25
330
23
100
AcDbEntity
  8
0
100
AcDbBlockEnd
  0
BLOCK
  5
3E
330
3C
100
AcDbEntity
  8
0
100
AcDbBlockBegin
  2
block 2
 70
     0
 71
     0
 10
0.0
 20
0.0
 30
0.0
  3
block 2
  1

  0
SPLINE
  5
40
330
3C
100
AcDbEntity
  8
Layer 1
370
     0
100
AcDbSpline
210
0.0
220
0.0
230
1.0
 70
    11
 71
     3
 72
    17
 73
    13
 74
     0
 42
0.0000000001
 43
0.0000000001
 40
0.0
 40
0.0
 40
0.0
 40
0.0
 40
1.0
 40
1.0
 40
1.0
 40
2.0
 40
2.0
 40
2.0
 40
3.0
 40
3.0
 40
3.0
 40
4.0
 40
4.0
 40
4.0
 40
4.0
 10
354.333984375
 20
-675.8310546875
 30
0.0
 10
354.333984375
 20
-481.8037109375
 30
0.0
 10
354.333984375
 20
-287.77685546875
 30
0.0
 10
354.333984375
 20
-93.75
 30
0.0
 10
548.861328125
 20
-93.75
 30
0.0
 10
743.388671875
 20
-93.75
 30
0.0
 10
937.9150390625
 20
-93.75
 30
0.0
 10
937.9150390625
 20
-287.77685546875
 30
0.0
 10
937.9150390625
 20
-481.8037109375
 30
0.0
 10
937.9150390625
 20
-675.8310546875
 30
0.0
 10
743.388671875
 20
-675.8310546875
 30
0.0
 10
548.861328125
 20
-675.8310546875
 30
0.0
 10
354.333984375
 20
-675.8310546875
 30
0.0
  0
SPLINE
  5
41
330
3C
100
AcDbEntity
  8
Layer 1
370
     0
100
AcDbSpline
210
0.0
220
0.0
230
1.0
 70
    11
 71
     3
 72
   239
 73
   235
 74
     0
 42
0.0000000001
 43
0.0000000001
 40
0.0
 40
0.0
 40
0.0
 40
0.0
 40
1.0
 40
1.0
 40
1.0
 40
2.0
 40
2.0
 40
2.0
 40
3.0
 40
3.0
 40
3.0
 40
4.0
 40
4.0
 40
4.0
 40
5.0
 40
5.0
 40
5.0
 40
6.0
 40
6.0
 40
6.0
 40
7.0
 40
7.0
 40
7.0
 40
8.0
 40
8.0
 40
8.0
 40
9.0
 40
9.0
 40
9.0
 40
10.0
 40
10.0
 40
10.0
 40
11.0
 40
11.0
 40
11.0
 40
12.0
 40
12.0
 40
12.0
 40
13.0
 40
13.0
 40
13.0
 40
14.0
 40
14.0
 40
14.0
 40
15.0
 40
15.0
 40
15.0
 40
16.0
 40
16.0
 40
16.0
 40
17.0
 40
17.0
 40
17.0
 40
18.0
 40
18.0
 40
18.0
 40
19.0
 40
19.0
 40
19.0
 40
20.0
 40
20.0
 40
20.0
 40
21.0
 40
21.0
 40
21.0
 40
22.0
 40
22.0
 40
22.0
 40
23.0
 40
23.0
 40
23.0
 40
24.0
 40
24.0
 40
24.0
 40
25.0
 40
25.0
 40
25.0
 40
26.0
 40
26.0
 40
26.0
 40
27.0
 40
27.0
 40
27.0
 40
28.0
 40
28.0
 40
28.0
 40
29.0
 40
29.0
 40
29.0
 40
30.0
 40
30.0
 40
30.0
 40
31.0
 40
31.0
 40
31.0
 40
32.0
 40
32.0
 40
32.0
 40
33.0
 40
33.0
 40
33.0
 40
34.0
 40
34.0
 40
34.0
 40
35.0
 40
35.0
 40
35.0
 40
36.0
 40
36.0
 40
36.0
 40
37.0
 40
37.0
 40
37.0
 40
38.0
 40
38.0
 40
38.0
 40
39.0
 40
39.0
 40
39.0
 40
40.0
 40
40.0
 40
40.0
 40
41.0
 40
41.0
 40
41.0
 40
42.0
 40
42.0
 40
42.0
 40
43.0
 40
43.0
 40
43.0
 40
44.0
 40
44.0
 40
44.0
 40
45.0
 40
45.0
 40
45.0
 40
46.0
 40
46.0
 40
46.0
 40
47.0
 40
47.0
 40
47.0
 40
48.0
 40
48.0
 40
48.0
 40
49.0
 40
49.0
 40
49.0
 40
50.0
 40
50.0
 40
50.0
 40
51.0
 40
51.0
 40
51.0
 40
52.0
 40
52.0
 40
52.0
 40
53.0
 40
53.0
 40
53.0
 40
54.0
 40
54.0
 40
54.0
 40
55.0
 40
55.0
 40
55.0
 40
56.0
 40
56.0
 40
56.0
 40
57.0
 40
57.0
 40
57.0
 40
58.0
 40
58.0
 40
58.0
 40
59.0
 40
59.0
 40
59.0
 40
60.0
 40
60.0
 40
60.0
 40
61.0
 40
61.0
 40
61.0
 40
62.0
 40
62.0
 40
62.0
 40
63.0
 40
63.0
 40
63.0
 40
64.0
 40
64.0
 40
64.0
 40
65.0
 40
65.0
 40
65.0
 40
66.0
 40
66.0
 40
66.0
 40
67.0
 40
67.0
 40
67.0
 40
68.0
 40
68.0
 40
68.0
 40
69.0
 40
69.0
 40
69.0
 40
70.0
 40
70.0
 40
70.0
 40
71.0
 40
71.0
 40
71.0
 40
72.0
 40
72.0
 40
72.0
 40
73.0
 40
73.0
 40
73.0
 40
74.0
 40
74.0
 40
74.0
 40
75.0
 40
75.0
 40
75.0
 40
76.0
 40
76.0
 40
76.0
 40
77.0
 40
77.0
 40
77.0
 40
78.0
 40
78.0
 40
78.0
 40
78.0
 10
520.11083984375
 20
-278.65869140625
 30
0.0
 10
513.64306640625
 20
-289.8701171875
 30
0.0
 10
509.8115234375
 20
-301.7578125
 30
0.0
 10
507.25830078125
 20
-314.1484375
 30
0.0
 10
506.08349609375
 20
-319.8486328125
 30
0.0
 10
504.96044921875
 20
-325.70947265625
 30
0.0
 10
502.6640625
 20
-330.99853515625
 30
0.0
 10
497.787109375
 20
-342.22802734375
 30
0.0
 10
492.982421875
 20
-353.30517578125
 30
0.0
 10
495.353515625
 20
-365.98291015625
 30
0.0
 10
496.38134765625
 20
-371.47900390625
 30
0.0
 10
496.9296875
 20
-376.98974609375
 30
0.0
 10
500.2109375
 20
-381.94677734375
 30
0.0
 10
508.10205078125
 20
-393.86962890625
 30
0.0
 10
518.6376953125
 20
-403.08203125
 30
0.0
 10
529.54052734375
 20
-412.0234375
 30
0.0
 10
533.123046875
 20
-414.9619140625
 30
0.0
 10
536.326171875
 20
-418.1201171875
 30
0.0
 10
535.1875
 20
-423.75390625
 30
0.0
 10
533.12890625
 20
-433.943359375
 30
0.0
 10
531.482421875
 20
-444.220703125
 30
0.0
 10
529.84619140625
 20
-454.490234375
 30
0.0
 10
528.8798828125
 20
-460.5517578125
 30
0.0
 10
528.677734375
 20
-466.7587890625
 30
0.0
 10
527.39501953125
 20
-472.7421875
 30
0.0
 10
525.40234375
 20
-482.03515625
 30
0.0
 10
522.72412109375
 20
-491.1796875
 30
0.0
 10
520.44091796875
 20
-500.4130859375
 30
0.0
 10
517.29833984375
 20
-513.1220703125
 30
0.0
 10
516.03515625
 20
-526.08984375
 30
0.0
 10
515.671875
 20
-539.1337890625
 30
0.0
 10
515.52734375
 20
-544.3232421875
 30
0.0
 10
515.80517578125
 20
-549.5712890625
 30
0.0
 10
516.439453125
 20
-554.7255859375
 30
0.0
 10
517.19873046875
 20
-560.890625
 30
0.0
 10
517.93798828125
 20
-567.1376953125
 30
0.0
 10
521.4130859375
 20
-572.607421875
 30
0.0
 10
524.556640625
 20
-577.5556640625
 30
0.0
 10
527.4296875
 20
-582.6826171875
 30
0.0
 10
530.6962890625
 20
-587.5458984375
 30
0.0
 10
535.52880859375
 20
-594.7412109375
 30
0.0
 10
535.755859375
 20
-594.802734375
 30
0.0
 10
529.29345703125
 20
-600.943359375
 30
0.0
 10
521.85205078125
 20
-608.015625
 30
0.0
 10
516.525390625
 20
-616.513671875
 30
0.0
 10
511.8876953125
 20
-625.521484375
 30
0.0
 10
510.33154296875
 20
-628.544921875
 30
0.0
 10
511.13720703125
 20
-632.7373046875
 30
0.0
 10
513.2392578125
 20
-634.1240234375
 30
0.0
 10
517.7626953125
 20
-637.1083984375
 30
0.0
 10
522.9990234375
 20
-637.921875
 30
0.0
 10
527.84033203125
 20
-636.515625
 30
0.0
 10
537.423828125
 20
-633.734375
 30
0.0
 10
546.85546875
 20
-630.314453125
 30
0.0
 10
556.12255859375
 20
-626.5927734375
 30
0.0
 10
566.3671875
 20
-622.478515625
 30
0.0
 10
574.892578125
 20
-615.5498046875
 30
0.0
 10
583.30859375
 20
-608.544921875
 30
0.0
 10
585.93798828125
 20
-606.35546875
 30
0.0
 10
588.52001953125
 20
-603.1953125
 30
0.0
 10
591.55224609375
 20
-602.576171875
 30
0.0
 10
600.787109375
 20
-600.69140625
 30
0.0
 10
610.22705078125
 20
-598.853515625
 30
0.0
 10
619.59423828125
 20
-598.818359375
 30
0.0
 10
631.265625
 20
-598.7744140625
 30
0.0
 10
642.9765625
 20
-600.2646484375
 30
0.0
 10
654.6083984375
 20
-601.626953125
 30
0.0
 10
663.7177734375
 20
-602.6943359375
 30
0.0
 10
672.740234375
 20
-604.529296875
 30
0.0
 10
681.7802734375
 20
-606.1416015625
 30
0.0
 10
683.154296875
 20
-606.38671875
 30
0.0
 10
684.875
 20
-606.912109375
 30
0.0
 10
685.65625
 20
-607.9140625
 30
0.0
 10
693.3369140625
 20
-617.7822265625
 30
0.0
 10
700.66796875
 20
-627.9267578125
 30
0.0
 10
708.48046875
 20
-637.6865234375
 30
0.0
 10
713.791015625
 20
-644.3203125
 30
0.0
 10
719.7607421875
 20
-650.3662109375
 30
0.0
 10
728.404296875
 20
-652.7958984375
 30
0.0
 10
732.6416015625
 20
-653.986328125
 30
0.0
 10
737.50390625
 20
-653.3583984375
 30
0.0
 10
738.3505859375
 20
-650.8134765625
 30
0.0
 10
739.8828125
 20
-646.20703125
 30
0.0
 10
741.814453125
 20
-641.458984375
 30
0.0
 10
741.9580078125
 20
-636.720703125
 30
0.0
 10
742.31640625
 20
-624.9716796875
 30
0.0
 10
739.107421875
 20
-613.685546875
 30
0.0
 10
735.8720703125
 20
-602.4716796875
 30
0.0
 10
734.3056640625
 20
-597.0419921875
 30
0.0
 10
732.1875
 20
-592.298828125
 30
0.0
 10
737.498046875
 20
-586.6123046875
 30
0.0
 10
745.900390625
 20
-577.6142578125
 30
0.0
 10
751.1455078125
 20
-566.4892578125
 30
0.0
 10
752.76953125
 20
-553.9091796875
 30
0.0
 10
753.1611328125
 20
-550.87890625
 30
0.0
 10
753.365234375
 20
-547.541015625
 30
0.0
 10
756.6923828125
 20
-545.380859375
 30
0.0
 10
768.0859375
 20
-537.9873046875
 30
0.0
 10
779.19140625
 20
-530.1494140625
 30
0.0
 10
790.607421875
 20
-522.7919921875
 30
0.0
 10
806.33984375
 20
-512.65234375
 30
0.0
 10
822.22265625
 20
-502.744140625
 30
0.0
 10
838.1083984375
 20
-492.84375
 30
0.0
 10
843.197265625
 20
-489.6728515625
 30
0.0
 10
848.46875
 20
-486.7900390625
 30
0.0
 10
853.7109375
 20
-483.8720703125
 30
0.0
 10
855.8681640625
 20
-482.6708984375
 30
0.0
 10
856.2158203125
 20
-481.45703125
 30
0.0
 10
854.033203125
 20
-480.095703125
 30
0.0
 10
843.8681640625
 20
-473.7548828125
 30
0.0
 10
833.73046875
 20
-467.3671875
 30
0.0
 10
823.4609375
 20
-461.19921875
 30
0.0
 10
818.5419921875
 20
-458.244140625
 30
0.0
 10
813.353515625
 20
-455.73828125
 30
0.0
 10
808.2939453125
 20
-453.0322265625
 30
0.0
 10
829.263671875
 20
-436.783203125
 30
0.0
 10
854.109375
 20
-427.109375
 30
0.0
 10
875.4755859375
 20
-411.068359375
 30
0.0
 10
854.4736328125
 20
-393.9990234375
 30
0.0
 10
829.546875
 20
-385.7822265625
 30
0.0
 10
805.8837890625
 20
-374.87353515625
 30
0.0
 10
831.7138671875
 20
-350.0224609375
 30
0.0
 10
860.9541015625
 20
-330.10546875
 30
0.0
 10
889.7841796875
 20
-308.9609375
 30
0.0
 10
886.3935546875
 20
-306.2451171875
 30
0.0
 10
883.548828125
 20
-303.90283203125
 30
0.0
 10
880.6376953125
 20
-301.64794921875
 30
0.0
 10
872.1005859375
 20
-295.03759765625
 30
0.0
 10
863.861328125
 20
-287.97705078125
 30
0.0
 10
854.9130859375
 20
-281.97607421875
 30
0.0
 10
838.0478515625
 20
-270.66552734375
 30
0.0
 10
820.755859375
 20
-259.9892578125
 30
0.0
 10
803.6640625
 20
-249.0146484375
 30
0.0
 10
798.5673828125
 20
-245.7412109375
 30
0.0
 10
793.5458984375
 20
-242.3505859375
 30
0.0
 10
788.5126953125
 20
-239.02880859375
 30
0.0
 10
765.9443359375
 20
-262.259765625
 30
0.0
 10
743.7431640625
 20
-285.1123046875
 30
0.0
 10
722.1689453125
 20
-307.31884765625
 30
0.0
 10
718.1513671875
 20
-297.0615234375
 30
0.0
 10
714.1923828125
 20
-286.4912109375
 30
0.0
 10
709.8232421875
 20
-276.0927734375
 30
0.0
 10
708.578125
 20
-273.12939453125
 30
0.0
 10
709.587890625
 20
-271.54443359375
 30
0.0
 10
711.3857421875
 20
-269.60693359375
 30
0.0
 10
716.2734375
 20
-264.3408203125
 30
0.0
 10
721.15625
 20
-259.06396484375
 30
0.0
 10
725.8486328125
 20
-253.6259765625
 30
0.0
 10
734.3076171875
 20
-243.82470703125
 30
0.0
 10
742.732421875
 20
-233.99072265625
 30
0.0
 10
750.9677734375
 20
-224.00244140625
 30
0.0
 10
757.451171875
 20
-216.14013671875
 30
0.0
 10
763.8271484375
 20
-208.17333984375
 30
0.0
 10
769.8955078125
 20
-199.9892578125
 30
0.0
 10
779.873046875
 20
-186.533203125
 30
0.0
 10
787.16796875
 20
-171.58349609375
 30
0.0
 10
793.9208984375
 20
-156.298828125
 30
0.0
 10
800.1708984375
 20
-142.1533203125
 30
0.0
 10
802.7412109375
 20
-127.2138671875
 30
0.0
 10
805.01953125
 20
-111.783203125
 30
0.0
 10
802.974609375
 20
-112.28759765625
 30
0.0
 10
801.015625
 20
-112.474609375
 30
0.0
 10
799.3203125
 20
-113.2431640625
 30
0.0
 10
793.224609375
 20
-116.0078125
 30
0.0
 10
786.9951171875
 20
-118.58544921875
 30
0.0
 10
781.2197265625
 20
-121.93017578125
 30
0.0
 10
765.8564453125
 20
-130.82958984375
 30
0.0
 10
751.58203125
 20
-141.26953125
 30
0.0
 10
738.84765625
 20
-153.701171875
 30
0.0
 10
732.37109375
 20
-160.0234375
 30
0.0
 10
725.935546875
 20
-166.3935546875
 30
0.0
 10
719.6640625
 20
-172.91748046875
 30
0.0
 10
714.9462890625
 20
-177.82421875
 30
0.0
 10
709.9140625
 20
-182.59326171875
 30
0.0
 10
706.0791015625
 20
-188.15283203125
 30
0.0
 10
695.587890625
 20
-203.3583984375
 30
0.0
 10
685.5498046875
 20
-218.88134765625
 30
0.0
 10
675.5908203125
 20
-234.44482421875
 30
0.0
 10
673.595703125
 20
-237.56298828125
 30
0.0
 10
672.1015625
 20
-239.48388671875
 30
0.0
 10
668.291015625
 20
-237.283203125
 30
0.0
 10
666.861328125
 20
-236.4580078125
 30
0.0
 10
665.025390625
 20
-236.341796875
 30
0.0
 10
663.376953125
 20
-235.89208984375
 30
0.0
 10
652.2255859375
 20
-232.84912109375
 30
0.0
 10
641.0185546875
 20
-230.083984375
 30
0.0
 10
629.345703125
 20
-230.2890625
 30
0.0
 10
620.8916015625
 20
-230.4375
 30
0.0
 10
612.43212890625
 20
-230.59716796875
 30
0.0
 10
603.99365234375
 20
-231.08251953125
 30
0.0
 10
598.4794921875
 20
-231.39990234375
 30
0.0
 10
592.7890625
 20
-231.583984375
 30
0.0
 10
587.55029296875
 20
-233.10888671875
 30
0.0
 10
577.85205078125
 20
-235.9326171875
 30
0.0
 10
568.3828125
 20
-239.57861328125
 30
0.0
 10
558.91259765625
 20
-243.13134765625
 30
0.0
 10
555.6728515625
 20
-244.3466796875
 30
0.0
 10
552.943359375
 20
-245.21826171875
 30
0.0
 10
549.2587890625
 20
-243.9462890625
 30
0.0
 10
538.65478515625
 20
-240.28466796875
 30
0.0
 10
527.92578125
 20
-236.87744140625
 30
0.0
 10
517.05712890625
 20
-234.111328125
 30
0.0
 10
500.00830078125
 20
-229.7734375
 30
0.0
 10
483.0751953125
 20
-224.78271484375
 30
0.0
 10
465.38232421875
 20
-223.423828125
 30
0.0
 10
455.56103515625
 20
-222.669921875
 30
0.0
 10
445.78955078125
 20
-220.97021484375
 30
0.0
 10
435.96484375
 20
-220.65771484375
 30
0.0
 10
424.783203125
 20
-220.30224609375
 30
0.0
 10
413.55859375
 20
-220.83740234375
 30
0.0
 10
402.37060546875
 20
-221.36376953125
 30
0.0
 10
398.265625
 20
-221.55712890625
 30
0.0
 10
394.1337890625
 20
-222.560546875
 30
0.0
 10
390.1552734375
 20
-223.6923828125
 30
0.0
 10
386.10498046875
 20
-224.84375
 30
0.0
 10
385.2294921875
 20
-227.1630859375
 30
0.0
 10
387.365234375
 20
-230.77001953125
 30
0.0
 10
388.7880859375
 20
-233.17236328125
 30
0.0
 10
390.5361328125
 20
-235.57568359375
 30
0.0
 10
392.67578125
 20
-237.318359375
 30
0.0
 10
396.64990234375
 20
-240.5546875
 30
0.0
 10
400.95947265625
 20
-243.39453125
 30
0.0
 10
405.2314453125
 20
-246.24609375
 30
0.0
 10
415.8505859375
 20
-253.33544921875
 30
0.0
 10
426.94970703125
 20
-259.68603515625
 30
0.0
 10
439.130859375
 20
-263.53076171875
 30
0.0
 10
451.556640625
 20
-267.4521484375
 30
0.0
 10
464.2138671875
 20
-270.73974609375
 30
0.0
 10
476.923828125
 20
-273.6240234375
 30
0.0
 10
485.38671875
 20
-275.54443359375
 30
0.0
 10
494.1005859375
 20
-276.43603515625
 30
0.0
 10
502.740234375
 20
-277.474609375
 30
0.0
 10
508.38427734375
 20
-278.15283203125
 30
0.0
 10
514.095703125
 20
-278.26904296875
 30
0.0
 10
520.11083984375
 20
-278.65869140625
 30
0.0
  0
HATCH
  5
42
330
3C
100
AcDbEntity
  8
Layer 1
 62
    18
420
        0
100
AcDbHatch
 10
0.0
 20
0.0
 30
0.0
210
0.0
220
0.0
230
1.0
  2
SOLID
 70
     1
 71
     0
 91
        2
 92
        1
 93
        1
 72
     4
 94
        3
 73
     0
 74
     1
 95
       17
 96
       13
 40
0.0
 40
0.0
 40
0.0
 40
0.0
 40
1.0
 40
1.0
 40
1.0
 40
2.0
 40
2.0
 40
2.0
 40
3.0
 40
3.0
 40
3.0
 40
4.0
 40
4.0
 40
4.0
 40
4.0
 10
354.333984375
 20
-675.8310546875
 10
354.333984375
 20
-481.8037109375
 10
354.333984375
 20
-287.77685546875
 10
354.333984375
 20
-93.75
 10
548.861328125
 20
-93.75
 10
743.388671875
 20
-93.75
 10
937.9150390625
 20
-93.75
 10
937.9150390625
 20
-287.77685546875
 10
937.9150390625
 20
-481.8037109375
 10
937.9150390625
 20
-675.8310546875
 10
743.388671875
 20
-675.8310546875
 10
548.861328125
 20
-675.8310546875
 10
354.333984375
 20
-675.8310546875
 97
        0
 92
        1
 93
        1
 72
     4
 94
        3
 73
     0
 74
     1
 95
      239
 96
      235
 40
0.0
 40
0.0
 40
0.0
 40
0.0
 40
1.0
 40
1.0
 40
1.0
 40
2.0
 40
2.0
 40
2.0
 40
3.0
 40
3.0
 40
3.0
 40
4.0
 40
4.0
 40
4.0
 40
5.0
 40
5.0
 40
5.0
 40
6.0
 40
6.0
 40
6.0
 40
7.0
 40
7.0
 40
7.0
 40
8.0
 40
8.0
 40
8.0
 40
9.0
 40
9.0
 40
9.0
 40
10.0
 40
10.0
 40
10.0
 40
11.0
 40
11.0
 40
11.0
 40
12.0
 40
12.0
 40
12.0
 40
13.0
 40
13.0
 40
13.0
 40
14.0
 40
14.0
 40
14.0
 40
15.0
 40
15.0
 40
15.0
 40
16.0
 40
16.0
 40
16.0
 40
17.0
 40
17.0
 40
17.0
 40
18.0
 40
18.0
 40
18.0
 40
19.0
 40
19.0
 40
19.0
 40
20.0
 40
20.0
 40
20.0
 40
21.0
 40
21.0
 40
21.0
 40
22.0
 40
22.0
 40
22.0
 40
23.0
 40
23.0
 40
23.0
 40
24.0
 40
24.0
 40
24.0
 40
25.0
 40
25.0
 40
25.0
 40
26.0
 40
26.0
 40
26.0
 40
27.0
 40
27.0
 40
27.0
 40
28.0
 40
28.0
 40
28.0
 40
29.0
 40
29.0
 40
29.0
 40
30.0
 40
30.0
 40
30.0
 40
31.0
 40
31.0
 40
31.0
 40
32.0
 40
32.0
 40
32.0
 40
33.0
 40
33.0
 40
33.0
 40
34.0
 40
34.0
 40
34.0
 40
35.0
 40
35.0
 40
35.0
 40
36.0
 40
36.0
 40
36.0
 40
37.0
 40
37.0
 40
37.0
 40
38.0
 40
38.0
 40
38.0
 40
39.0
 40
39.0
 40
39.0
 40
40.0
 40
40.0
 40
40.0
 40
41.0
 40
41.0
 40
41.0
 40
42.0
 40
42.0
 40
42.0
 40
43.0
 40
43.0
 40
43.0
 40
44.0
 40
44.0
 40
44.0
 40
45.0
 40
45.0
 40
45.0
 40
46.0
 40
46.0
 40
46.0
 40
47.0
 40
47.0
 40
47.0
 40
48.0
 40
48.0
 40
48.0
 40
49.0
 40
49.0
 40
49.0
 40
50.0
 40
50.0
 40
50.0
 40
51.0
 40
51.0
 40
51.0
 40
52.0
 40
52.0
 40
52.0
 40
53.0
 40
53.0
 40
53.0
 40
54.0
 40
54.0
 40
54.0
 40
55.0
 40
55.0
 40
55.0
 40
56.0
 40
56.0
 40
56.0
 40
57.0
 40
57.0
 40
57.0
 40
58.0
 40
58.0
 40
58.0
 40
59.0
 40
59.0
 40
59.0
 40
60.0
 40
60.0
 40
60.0
 40
61.0
 40
61.0
 40
61.0
 40
62.0
 40
62.0
 40
62.0
 40
63.0
 40
63.0
 40
63.0
 40
64.0
 40
64.0
 40
64.0
 40
65.0
 40
65.0
 40
65.0
 40
66.0
 40
66.0
 40
66.0
 40
67.0
 40
67.0
 40
67.0
 40
68.0
 40
68.0
 40
68.0
 40
69.0
 40
69.0
 40
69.0
 40
70.0
 40
70.0
 40
70.0
 40
71.0
 40
71.0
 40
71.0
 40
72.0
 40
72.0
 40
72.0
 40
73.0
 40
73.0
 40
73.0
 40
74.0
 40
74.0
 40
74.0
 40
75.0
 40
75.0
 40
75.0
 40
76.0
 40
76.0
 40
76.0
 40
77.0
 40
77.0
 40
77.0
 40
78.0
 40
78.0
 40
78.0
 40
78.0
 10
520.11083984375
 20
-278.65869140625
 10
513.64306640625
 20
-289.8701171875
 10
509.8115234375
 20
-301.7578125
 10
507.25830078125
 20
-314.1484375
 10
506.08349609375
 20
-319.8486328125
 10
504.96044921875
 20
-325.70947265625
 10
502.6640625
 20
-330.99853515625
 10
497.787109375
 20
-342.22802734375
 10
492.982421875
 20
-353.30517578125
 10
495.353515625
 20
-365.98291015625
 10
496.38134765625
 20
-371.47900390625
 10
496.9296875
 20
-376.98974609375
 10
500.2109375
 20
-381.94677734375
 10
508.10205078125
 20
-393.86962890625
 10
518.6376953125
 20
-403.08203125
 10
529.54052734375
 20
-412.0234375
 10
533.123046875
 20
-414.9619140625
 10
536.326171875
 20
-418.1201171875
 10
535.1875
 20
-423.75390625
 10
533.12890625
 20
-433.943359375
 10
531.482421875
 20
-444.220703125
 10
529.84619140625
 20
-454.490234375
 10
528.8798828125
 20
-460.5517578125
 10
528.677734375
 20
-466.7587890625
 10
527.39501953125
 20
-472.7421875
 10
525.40234375
 20
-482.03515625
 10
522.72412109375
 20
-491.1796875
 10
520.44091796875
 20
-500.4130859375
 10
517.29833984375
 20
-513.1220703125
 10
516.03515625
 20
-526.08984375
 10
515.671875
 20
-539.1337890625
 10
515.52734375
 20
-544.3232421875
 10
515.80517578125
 20
-549.5712890625
 10
516.439453125
 20
-554.7255859375
 10
517.19873046875
 20
-560.890625
 10
517.93798828125
 20
-567.1376953125
 10
521.4130859375
 20
-572.607421875
 10
524.556640625
 20
-577.5556640625
 10
527.4296875
 20
-582.6826171875
 10
530.6962890625
 20
-587.5458984375
 10
535.52880859375
 20
-594.7412109375
 10
535.755859375
 20
-594.802734375
 10
529.29345703125
 20
-600.943359375
 10
521.85205078125
 20
-608.015625
 10
516.525390625
 20
-616.513671875
 10
511.8876953125
 20
-625.521484375
 10
510.33154296875
 20
-628.544921875
 10
511.13720703125
 20
-632.7373046875
 10
513.2392578125
 20
-634.1240234375
 10
517.7626953125
 20
-637.1083984375
 10
522.9990234375
 20
-637.921875
 10
527.84033203125
 20
-636.515625
 10
537.423828125
 20
-633.734375
 10
546.85546875
 20
-630.314453125
 10
556.12255859375
 20
-626.5927734375
 10
566.3671875
 20
-622.478515625
 10
574.892578125
 20
-615.5498046875
 10
583.30859375
 20
-608.544921875
 10
585.93798828125
 20
-606.35546875
 10
588.52001953125
 20
-603.1953125
 10
591.55224609375
 20
-602.576171875
 10
600.787109375
 20
-600.69140625
 10
610.22705078125
 20
-598.853515625
 10
619.59423828125
 20
-598.818359375
 10
631.265625
 20
-598.7744140625
 10
642.9765625
 20
-600.2646484375
 10
654.6083984375
 20
-601.626953125
 10
663.7177734375
 20
-602.6943359375
 10
672.740234375
 20
-604.529296875
 10
681.7802734375
 20
-606.1416015625
 10
683.154296875
 20
-606.38671875
 10
684.875
 20
-606.912109375
 10
685.65625
 20
-607.9140625
 10
693.3369140625
 20
-617.7822265625
 10
700.66796875
 20
-627.9267578125
 10
708.48046875
 20
-637.6865234375
 10
713.791015625
 20
-644.3203125
 10
719.7607421875
 20
-650.3662109375
 10
728.404296875
 20
-652.7958984375
 10
732.6416015625
 20
-653.986328125
 10
737.50390625
 20
-653.3583984375
 10
738.3505859375
 20
-650.8134765625
 10
739.8828125
 20
-646.20703125
 10
741.814453125
 20
-641.458984375
 10
741.9580078125
 20
-636.720703125
 10
742.31640625
 20
-624.9716796875
 10
739.107421875
 20
-613.685546875
 10
735.8720703125
 20
-602.4716796875
 10
734.3056640625
 20
-597.0419921875
 10
732.1875
 20
-592.298828125
 10
737.498046875
 20
-586.6123046875
 10
745.900390625
 20
-577.6142578125
 10
751.1455078125
 20
-566.4892578125
 10
752.76953125
 20
-553.9091796875
 10
753.1611328125
 20
-550.87890625
 10
753.365234375
 20
-547.541015625
 10
756.6923828125
 20
-545.380859375
 10
768.0859375
 20
-537.9873046875
 10
779.19140625
 20
-530.1494140625
 10
790.607421875
 20
-522.7919921875
 10
806.33984375
 20
-512.65234375
 10
822.22265625
 20
-502.744140625
 10
838.1083984375
 20
-492.84375
 10
843.197265625
 20
-489.6728515625
 10
848.46875
 20
-486.7900390625
 10
853.7109375
 20
-483.8720703125
 10
855.8681640625
 20
-482.6708984375
 10
856.2158203125
 20
-481.45703125
 10
854.033203125
 20
-480.095703125
 10
843.8681640625
 20
-473.7548828125
 10
833.73046875
 20
-467.3671875
 10
823.4609375
 20
-461.19921875
 10
818.5419921875
 20
-458.244140625
 10
813.353515625
 20
-455.73828125
 10
808.2939453125
 20
-453.0322265625
 10
829.263671875
 20
-436.783203125
 10
854.109375
 20
-427.109375
 10
875.4755859375
 20
-411.068359375
 10
854.4736328125
 20
-393.9990234375
 10
829.546875
 20
-385.7822265625
 10
805.8837890625
 20
-374.87353515625
 10
831.7138671875
 20
-350.0224609375
 10
860.9541015625
 20
-330.10546875
 10
889.7841796875
 20
-308.9609375
 10
886.3935546875
 20
-306.2451171875
 10
883.548828125
 20
-303.90283203125
 10
880.6376953125
 20
-301.64794921875
 10
872.1005859375
 20
-295.03759765625
 10
863.861328125
 20
-287.97705078125
 10
854.9130859375
 20
-281.97607421875
 10
838.0478515625
 20
-270.66552734375
 10
820.755859375
 20
-259.9892578125
 10
803.6640625
 20
-249.0146484375
 10
798.5673828125
 20
-245.7412109375
 10
793.5458984375
 20
-242.3505859375
 10
788.5126953125
 20
-239.02880859375
 10
765.9443359375
 20
-262.259765625
 10
743.7431640625
 20
-285.1123046875
 10
722.1689453125
 20
-307.31884765625
 10
718.1513671875
 20
-297.0615234375
 10
714.1923828125
 20
-286.4912109375
 10
709.8232421875
 20
-276.0927734375
 10
708.578125
 20
-273.12939453125
 10
709.587890625
 20
-271.54443359375
 10
711.3857421875
 20
-269.60693359375
 10
716.2734375
 20
-264.3408203125
 10
721.15625
 20
-259.06396484375
 10
725.8486328125
 20
-253.6259765625
 10
734.3076171875
 20
-243.82470703125
 10
742.732421875
 20
-233.99072265625
 10
750.9677734375
 20
-224.00244140625
 10
757.451171875
 20
-216.14013671875
 10
763.8271484375
 20
-208.17333984375
 10
769.8955078125
 20
-199.9892578125
 10
779.873046875
 20
-186.533203125
 10
787.16796875
 20
-171.58349609375
 10
793.9208984375
 20
-156.298828125
 10
800.1708984375
 20
-142.1533203125
 10
802.7412109375
 20
-127.2138671875
 10
805.01953125
 20
-111.783203125
 10
802.974609375
 20
-112.28759765625
 10
801.015625
 20
-112.474609375
 10
799.3203125
 20
-113.2431640625
 10
793.224609375
 20
-116.0078125
 10
786.9951171875
 20
-118.58544921875
 10
781.2197265625
 20
-121.93017578125
 10
765.8564453125
 20
-130.82958984375
 10
751.58203125
 20
-141.26953125
 10
738.84765625
 20
-153.701171875
 10
732.37109375
 20
-160.0234375
 10
725.935546875
 20
-166.3935546875
 10
719.6640625
 20
-172.91748046875
 10
714.9462890625
 20
-177.82421875
 10
709.9140625
 20
-182.59326171875
 10
706.0791015625
 20
-188.15283203125
 10
695.587890625
 20
-203.3583984375
 10
685.5498046875
 20
-218.88134765625
 10
675.5908203125
 20
-234.44482421875
 10
673.595703125
 20
-237.56298828125
 10
672.1015625
 20
-239.48388671875
 10
668.291015625
 20
-237.283203125
 10
666.861328125
 20
-236.4580078125
 10
665.025390625
 20
-236.341796875
 10
663.376953125
 20
-235.89208984375
 10
652.2255859375
 20
-232.84912109375
 10
641.0185546875
 20
-230.083984375
 10
629.345703125
 20
-230.2890625
 10
620.8916015625
 20
-230.4375
 10
612.43212890625
 20
-230.59716796875
 10
603.99365234375
 20
-231.08251953125
 10
598.4794921875
 20
-231.39990234375
 10
592.7890625
 20
-231.583984375
 10
587.55029296875
 20
-233.10888671875
 10
577.85205078125
 20
-235.9326171875
 10
568.3828125
 20
-239.57861328125
 10
558.91259765625
 20
-243.13134765625
 10
555.6728515625
 20
-244.3466796875
 10
552.943359375
 20
-245.21826171875
 10
549.2587890625
 20
-243.9462890625
 10
538.65478515625
 20
-240.28466796875
 10
527.92578125
 20
-236.87744140625
 10
517.05712890625
 20
-234.111328125
 10
500.00830078125
 20
-229.7734375
 10
483.0751953125
 20
-224.78271484375
 10
465.38232421875
 20
-223.423828125
 10
455.56103515625
 20
-222.669921875
 10
445.78955078125
 20
-220.97021484375
 10
435.96484375
 20
-220.65771484375
 10
424.783203125
 20
-220.30224609375
 10
413.55859375
 20
-220.83740234375
 10
402.37060546875
 20
-221.36376953125
 10
398.265625
 20
-221.55712890625
 10
394.1337890625
 20
-222.560546875
 10
390.1552734375
 20
-223.6923828125
 10
386.10498046875
 20
-224.84375
 10
385.2294921875
 20
-227.1630859375
 10
387.365234375
 20
-230.77001953125
 10
388.7880859375
 20
-233.17236328125
 10
390.5361328125
 20
-235.57568359375
 10
392.67578125
 20
-237.318359375
 10
396.64990234375
 20
-240.5546875
 10
400.95947265625
 20
-243.39453125
 10
405.2314453125
 20
-246.24609375
 10
415.8505859375
 20
-253.33544921875
 10
426.94970703125
 20
-259.68603515625
 10
439.130859375
 20
-263.53076171875
 10
451.556640625
 20
-267.4521484375
 10
464.2138671875
 20
-270.73974609375
 10
476.923828125
 20
-273.6240234375
 10
485.38671875
 20
-275.54443359375
 10
494.1005859375
 20
-276.43603515625
 10
502.740234375
 20
-277.474609375
 10
508.38427734375
 20
-278.15283203125
 10
514.095703125
 20
-278.26904296875
 10
520.11083984375
 20
-278.65869140625
 97
        0
 75
     0
 76
     1
 98
        0
  0
SPLINE
  5
43
330
3C
100
AcDbEntity
  8
Layer 1
370
     0
100
AcDbSpline
210
0.0
220
0.0
230
1.0
 70
    11
 71
     3
 72
   239
 73
   235
 74
     0
 42
0.0000000001
 43
0.0000000001
 40
0.0
 40
0.0
 40
0.0
 40
0.0
 40
1.0
 40
1.0
 40
1.0
 40
2.0
 40
2.0
 40
2.0
 40
3.0
 40
3.0
 40
3.0
 40
4.0
 40
4.0
 40
4.0
 40
5.0
 40
5.0
 40
5.0
 40
6.0
 40
6.0
 40
6.0
 40
7.0
 40
7.0
 40
7.0
 40
8.0
 40
8.0
 40
8.0
 40
9.0
 40
9.0
 40
9.0
 40
10.0
 40
10.0
 40
10.0
 40
11.0
 40
11.0
 40
11.0
 40
12.0
 40
12.0
 40
12.0
 40
13.0
 40
13.0
 40
13.0
 40
14.0
 40
14.0
 40
14.0
 40
15.0
 40
15.0
 40
15.0
 40
16.0
 40
16.0
 40
16.0
 40
17.0
 40
17.0
 40
17.0
 40
18.0
 40
18.0
 40
18.0
 40
19.0
 40
19.0
 40
19.0
 40
20.0
 40
20.0
 40
20.0
 40
21.0
 40
21.0
 40
21.0
 40
22.0
 40
22.0
 40
22.0
 40
23.0
 40
23.0
 40
23.0
 40
24.0
 40
24.0
 40
24.0
 40
25.0
 40
25.0
 40
25.0
 40
26.0
 40
26.0
 40
26.0
 40
27.0
 40
27.0
 40
27.0
 40
28.0
 40
28.0
 40
28.0
 40
29.0
 40
29.0
 40
29.0
 40
30.0
 40
30.0
 40
30.0
 40
31.0
 40
31.0
 40
31.0
 40
32.0
 40
32.0
 40
32.0
 40
33.0
 40
33.0
 40
33.0
 40
34.0
 40
34.0
 40
34.0
 40
35.0
 40
35.0
 40
35.0
 40
36.0
 40
36.0
 40
36.0
 40
37.0
 40
37.0
 40
37.0
 40
38.0
 40
38.0
 40
38.0
 40
39.0
 40
39.0
 40
39.0
 40
40.0
 40
40.0
 40
40.0
 40
41.0
 40
41.0
 40
41.0
 40
42.0
 40
42.0
 40
42.0
 40
43.0
 40
43.0
 40
43.0
 40
44.0
 40
44.0
 40
44.0
 40
45.0
 40
45.0
 40
45.0
 40
46.0
 40
46.0
 40
46.0
 40
47.0
 40
47.0
 40
47.0
 40
48.0
 40
48.0
 40
48.0
 40
49.0
 40
49.0
 40
49.0
 40
50.0
 40
50.0
 40
50.0
 40
51.0
 40
51.0
 40
51.0
 40
52.0
 40
52.0
 40
52.0
 40
53.0
 40
53.0
 40
53.0
 40
54.0
 40
54.0
 40
54.0
 40
55.0
 40
55.0
 40
55.0
 40
56.0
 40
56.0
 40
56.0
 40
57.0
 40
57.0
 40
57.0
 40
58.0
 40
58.0
 40
58.0
 40
59.0
 40
59.0
 40
59.0
 40
60.0
 40
60.0
 40
60.0
 40
61.0
 40
61.0
 40
61.0
 40
62.0
 40
62.0
 40
62.0
 40
63.0
 40
63.0
 40
63.0
 40
64.0
 40
64.0
 40
64.0
 40
65.0
 40
65.0
 40
65.0
 40
66.0
 40
66.0
 40
66.0
 40
67.0
 40
67.0
 40
67.0
 40
68.0
 40
68.0
 40
68.0
 40
69.0
 40
69.0
 40
69.0
 40
70.0
 40
70.0
 40
70.0
 40
71.0
 40
71.0
 40
71.0
 40
72.0
 40
72.0
 40
72.0
 40
73.0
 40
73.0
 40
73.0
 40
74.0
 40
74.0
 40
74.0
 40
75.0
 40
75.0
 40
75.0
 40
76.0
 40
76.0
 40
76.0
 40
77.0
 40
77.0
 40
77.0
 40
78.0
 40
78.0
 40
78.0
 40
78.0
 10
520.11083984375
 20
-278.65869140625
 30
0.0
 10
514.095703125
 20
-278.26904296875
 30
0.0
 10
508.38427734375
 20
-278.15283203125
 30
0.0
 10
502.740234375
 20
-277.474609375
 30
0.0
 10
494.1005859375
 20
-276.43603515625
 30
0.0
 10
485.38671875
 20
-275.54443359375
 30
0.0
 10
476.923828125
 20
-273.6240234375
 30
0.0
 10
464.2138671875
 20
-270.73974609375
 30
0.0
 10
451.556640625
 20
-267.4521484375
 30
0.0
 10
439.130859375
 20
-263.53076171875
 30
0.0
 10
426.94970703125
 20
-259.68603515625
 30
0.0
 10
415.8505859375
 20
-253.33544921875
 30
0.0
 10
405.2314453125
 20
-246.24609375
 30
0.0
 10
400.95947265625
 20
-243.39453125
 30
0.0
 10
396.64990234375
 20
-240.5546875
 30
0.0
 10
392.67578125
 20
-237.318359375
 30
0.0
 10
390.5361328125
 20
-235.57568359375
 30
0.0
 10
388.7880859375
 20
-233.17236328125
 30
0.0
 10
387.365234375
 20
-230.77001953125
 30
0.0
 10
385.2294921875
 20
-227.1630859375
 30
0.0
 10
386.10498046875
 20
-224.84375
 30
0.0
 10
390.1552734375
 20
-223.6923828125
 30
0.0
 10
394.1337890625
 20
-222.560546875
 30
0.0
 10
398.265625
 20
-221.55712890625
 30
0.0
 10
402.37060546875
 20
-221.36376953125
 30
0.0
 10
413.55859375
 20
-220.83740234375
 30
0.0
 10
424.783203125
 20
-220.30224609375
 30
0.0
 10
435.96484375
 20
-220.65771484375
 30
0.0
 10
445.78955078125
 20
-220.97021484375
 30
0.0
 10
455.56103515625
 20
-222.669921875
 30
0.0
 10
465.38232421875
 20
-223.423828125
 30
0.0
 10
483.0751953125
 20
-224.78271484375
 30
0.0
 10
500.00830078125
 20
-229.7734375
 30
0.0
 10
517.05712890625
 20
-234.111328125
 30
0.0
 10
527.92578125
 20
-236.87744140625
 30
0.0
 10
538.65478515625
 20
-240.28466796875
 30
0.0
 10
549.2587890625
 20
-243.9462890625
 30
0.0
 10
552.943359375
 20
-245.21826171875
 30
0.0
 10
555.6728515625
 20
-244.3466796875
 30
0.0
 10
558.91259765625
 20
-243.13134765625
 30
0.0
 10
568.3828125
 20
-239.57861328125
 30
0.0
 10
577.85205078125
 20
-235.9326171875
 30
0.0
 10
587.55029296875
 20
-233.10888671875
 30
0.0
 10
592.7890625
 20
-231.583984375
 30
0.0
 10
598.4794921875
 20
-231.39990234375
 30
0.0
 10
603.99365234375
 20
-231.08251953125
 30
0.0
 10
612.43212890625
 20
-230.59716796875
 30
0.0
 10
620.8916015625
 20
-230.4375
 30
0.0
 10
629.345703125
 20
-230.2890625
 30
0.0
 10
641.0185546875
 20
-230.083984375
 30
0.0
 10
652.2255859375
 20
-232.84912109375
 30
0.0
 10
663.376953125
 20
-235.89208984375
 30
0.0
 10
665.025390625
 20
-236.341796875
 30
0.0
 10
666.861328125
 20
-236.4580078125
 30
0.0
 10
668.291015625
 20
-237.283203125
 30
0.0
 10
672.1015625
 20
-239.48388671875
 30
0.0
 10
673.595703125
 20
-237.56298828125
 30
0.0
 10
675.5908203125
 20
-234.44482421875
 30
0.0
 10
685.5498046875
 20
-218.88134765625
 30
0.0
 10
695.587890625
 20
-203.3583984375
 30
0.0
 10
706.0791015625
 20
-188.15283203125
 30
0.0
 10
709.9140625
 20
-182.59326171875
 30
0.0
 10
714.9462890625
 20
-177.82421875
 30
0.0
 10
719.6640625
 20
-172.91748046875
 30
0.0
 10
725.935546875
 20
-166.3935546875
 30
0.0
 10
732.37109375
 20
-160.0234375
 30
0.0
 10
738.84765625
 20
-153.701171875
 30
0.0
 10
751.58203125
 20
-141.26953125
 30
0.0
 10
765.8564453125
 20
-130.82958984375
 30
0.0
 10
781.2197265625
 20
-121.93017578125
 30
0.0
 10
786.9951171875
 20
-118.58544921875
 30
0.0
 10
793.224609375
 20
-116.0078125
 30
0.0
 10
799.3203125
 20
-113.2431640625
 30
0.0
 10
801.015625
 20
-112.474609375
 30
0.0
 10
802.974609375
 20
-112.28759765625
 30
0.0
 10
805.01953125
 20
-111.783203125
 30
0.0
 10
802.7412109375
 20
-127.2138671875
 30
0.0
 10
800.1708984375
 20
-142.1533203125
 30
0.0
 10
793.9208984375
 20
-156.298828125
 30
0.0
 10
787.16796875
 20
-171.58349609375
 30
0.0
 10
779.873046875
 20
-186.533203125
 30
0.0
 10
769.8955078125
 20
-199.9892578125
 30
0.0
 10
763.8271484375
 20
-208.17333984375
 30
0.0
 10
757.451171875
 20
-216.14013671875
 30
0.0
 10
750.9677734375
 20
-224.00244140625
 30
0.0
 10
742.732421875
 20
-233.99072265625
 30
0.0
 10
734.3076171875
 20
-243.82470703125
 30
0.0
 10
725.8486328125
 20
-253.6259765625
 30
0.0
 10
721.15625
 20
-259.06396484375
 30
0.0
 10
716.2734375
 20
-264.3408203125
 30
0.0
 10
711.3857421875
 20
-269.60693359375
 30
0.0
 10
709.587890625
 20
-271.54443359375
 30
0.0
 10
708.578125
 20
-273.12939453125
 30
0.0
 10
709.8232421875
 20
-276.0927734375
 30
0.0
 10
714.1923828125
 20
-286.4912109375
 30
0.0
 10
718.1513671875
 20
-297.0615234375
 30
0.0
 10
722.1689453125
 20
-307.31884765625
 30
0.0
 10
743.7431640625
 20
-285.1123046875
 30
0.0
 10
765.9443359375
 20
-262.259765625
 30
0.0
 10
788.5126953125
 20
-239.02880859375
 30
0.0
 10
793.5458984375
 20
-242.3505859375
 30
0.0
 10
798.5673828125
 20
-245.7412109375
 30
0.0
 10
803.6640625
 20
-249.0146484375
 30
0.0
 10
820.755859375
 20
-259.9892578125
 30
0.0
 10
838.0478515625
 20
-270.66552734375
 30
0.0
 10
854.9130859375
 20
-281.97607421875
 30
0.0
 10
863.861328125
 20
-287.97705078125
 30
0.0
 10
872.1005859375
 20
-295.03759765625
 30
0.0
 10
880.6376953125
 20
-301.64794921875
 30
0.0
 10
883.548828125
 20
-303.90283203125
 30
0.0
 10
886.3935546875
 20
-306.2451171875
 30
0.0
 10
889.7841796875
 20
-308.9609375
 30
0.0
 10
860.9541015625
 20
-330.10546875
 30
0.0
 10
831.7138671875
 20
-350.0224609375
 30
0.0
 10
805.8837890625
 20
-374.87353515625
 30
0.0
 10
829.546875
 20
-385.7822265625
 30
0.0
 10
854.4736328125
 20
-393.9990234375
 30
0.0
 10
875.4755859375
 20
-411.068359375
 30
0.0
 10
854.109375
 20
-427.109375
 30
0.0
 10
829.263671875
 20
-436.783203125
 30
0.0
 10
808.2939453125
 20
-453.0322265625
 30
0.0
 10
813.353515625
 20
-455.73828125
 30
0.0
 10
818.5419921875
 20
-458.244140625
 30
0.0
 10
823.4609375
 20
-461.19921875
 30
0.0
 10
833.73046875
 20
-467.3671875
 30
0.0
 10
843.8681640625
 20
-473.7548828125
 30
0.0
 10
854.033203125
 20
-480.095703125
 30
0.0
 10
856.2158203125
 20
-481.45703125
 30
0.0
 10
855.8681640625
 20
-482.6708984375
 30
0.0
 10
853.7109375
 20
-483.8720703125
 30
0.0
 10
848.46875
 20
-486.7900390625
 30
0.0
 10
843.197265625
 20
-489.6728515625
 30
0.0
 10
838.1083984375
 20
-492.84375
 30
0.0
 10
822.22265625
 20
-502.744140625
 30
0.0
 10
806.33984375
 20
-512.65234375
 30
0.0
 10
790.607421875
 20
-522.7919921875
 30
0.0
 10
779.19140625
 20
-530.1494140625
 30
0.0
 10
768.0859375
 20
-537.9873046875
 30
0.0
 10
756.6923828125
 20
-545.380859375
 30
0.0
 10
753.365234375
 20
-547.541015625
 30
0.0
 10
753.1611328125
 20
-550.87890625
 30
0.0
 10
752.76953125
 20
-553.9091796875
 30
0.0
 10
751.1455078125
 20
-566.4892578125
 30
0.0
 10
745.900390625
 20
-577.6142578125
 30
0.0
 10
737.498046875
 20
-586.6123046875
 30
0.0
 10
732.1875
 20
-592.298828125
 30
0.0
 10
734.3056640625
 20
-597.0419921875
 30
0.0
 10
735.8720703125
 20
-602.4716796875
 30
0.0
 10
739.107421875
 20
-613.685546875
 30
0.0
 10
742.31640625
 20
-624.9716796875
 30
0.0
 10
741.9580078125
 20
-636.720703125
 30
0.0
 10
741.814453125
 20
-641.458984375
 30
0.0
 10
739.8828125
 20
-646.20703125
 30
0.0
 10
738.3505859375
 20
-650.8134765625
 30
0.0
 10
737.50390625
 20
-653.3583984375
 30
0.0
 10
732.6416015625
 20
-653.986328125
 30
0.0
 10
728.404296875
 20
-652.7958984375
 30
0.0
 10
719.7607421875
 20
-650.3662109375
 30
0.0
 10
713.791015625
 20
-644.3203125
 30
0.0
 10
708.48046875
 20
-637.6865234375
 30
0.0
 10
700.66796875
 20
-627.9267578125
 30
0.0
 10
693.3369140625
 20
-617.7822265625
 30
0.0
 10
685.65625
 20
-607.9140625
 30
0.0
 10
684.875
 20
-606.912109375
 30
0.0
 10
683.154296875
 20
-606.38671875
 30
0.0
 10
681.7802734375
 20
-606.1416015625
 30
0.0
 10
672.740234375
 20
-604.529296875
 30
0.0
 10
663.7177734375
 20
-602.6943359375
 30
0.0
 10
654.6083984375
 20
-601.626953125
 30
0.0
 10
642.9765625
 20
-600.2646484375
 30
0.0
 10
631.265625
 20
-598.7744140625
 30
0.0
 10
619.59423828125
 20
-598.818359375
 30
0.0
 10
610.22705078125
 20
-598.853515625
 30
0.0
 10
600.787109375
 20
-600.69140625
 30
0.0
 10
591.55224609375
 20
-602.576171875
 30
0.0
 10
588.52001953125
 20
-603.1953125
 30
0.0
 10
585.93798828125
 20
-606.35546875
 30
0.0
 10
583.30859375
 20
-608.544921875
 30
0.0
 10
574.892578125
 20
-615.5498046875
 30
0.0
 10
566.3671875
 20
-622.478515625
 30
0.0
 10
556.12255859375
 20
-626.5927734375
 30
0.0
 10
546.85546875
 20
-630.314453125
 30
0.0
 10
537.423828125
 20
-633.734375
 30
0.0
 10
527.84033203125
 20
-636.515625
 30
0.0
 10
522.9990234375
 20
-637.921875
 30
0.0
 10
517.7626953125
 20
-637.1083984375
 30
0.0
 10
513.2392578125
 20
-634.1240234375
 30
0.0
 10
511.13720703125
 20
-632.7373046875
 30
0.0
 10
510.33154296875
 20
-628.544921875
 30
0.0
 10
511.8876953125
 20
-625.521484375
 30
0.0
 10
516.525390625
 20
-616.513671875
 30
0.0
 10
521.85205078125
 20
-608.015625
 30
0.0
 10
529.29345703125
 20
-600.943359375
 30
0.0
 10
535.755859375
 20
-594.802734375
 30
0.0
 10
535.52880859375
 20
-594.7412109375
 30
0.0
 10
530.6962890625
 20
-587.5458984375
 30
0.0
 10
527.4296875
 20
-582.6826171875
 30
0.0
 10
524.556640625
 20
-577.5556640625
 30
0.0
 10
521.4130859375
 20
-572.607421875
 30
0.0
 10
517.93798828125
 20
-567.1376953125
 30
0.0
 10
517.19873046875
 20
-560.890625
 30
0.0
 10
516.439453125
 20
-554.7255859375
 30
0.0
 10
515.80517578125
 20
-549.5712890625
 30
0.0
 10
515.52734375
 20
-544.3232421875
 30
0.0
 10
515.671875
 20
-539.1337890625
 30
0.0
 10
516.03515625
 20
-526.08984375
 30
0.0
 10
517.29833984375
 20
-513.1220703125
 30
0.0
 10
520.44091796875
 20
-500.4130859375
 30
0.0
 10
522.72412109375
 20
-491.1796875
 30
0.0
 10
525.40234375
 20
-482.03515625
 30
0.0
 10
527.39501953125
 20
-472.7421875
 30
0.0
 10
528.677734375
 20
-466.7587890625
 30
0.0
 10
528.8798828125
 20
-460.5517578125
 30
0.0
 10
529.84619140625
 20
-454.490234375
 30
0.0
 10
531.482421875
 20
-444.220703125
 30
0.0
 10
533.12890625
 20
-433.943359375
 30
0.0
 10
535.1875
 20
-423.75390625
 30
0.0
 10
536.326171875
 20
-418.1201171875
 30
0.0
 10
533.123046875
 20
-414.9619140625
 30
0.0
 10
529.54052734375
 20
-412.0234375
 30
0.0
 10
518.6376953125
 20
-403.08203125
 30
0.0
 10
508.10205078125
 20
-393.86962890625
 30
0.0
 10
500.2109375
 20
-381.94677734375
 30
0.0
 10
496.9296875
 20
-376.98974609375
 30
0.0
 10
496.38134765625
 20
-371.47900390625
 30
0.0
 10
495.353515625
 20
-365.98291015625
 30
0.0
 10
492.982421875
 20
-353.30517578125
 30
0.0
 10
497.787109375
 20
-342.22802734375
 30
0.0
 10
502.6640625
 20
-330.99853515625
 30
0.0
 10
504.96044921875
 20
-325.70947265625
 30
0.0
 10
506.08349609375
 20
-319.8486328125
 30
0.0
 10
507.25830078125
 20
-314.1484375
 30
0.0
 10
509.8115234375
 20
-301.7578125
 30
0.0
 10
513.64306640625
 20
-289.8701171875
 30
0.0
 10
520.11083984375
 20
-278.65869140625
 30
0.0
  0
SPLINE
  5
44
330
3C
100
AcDbEntity
  8
Layer 1
370
     0
100
AcDbSpline
210
0.0
220
0.0
230
1.0
 70
    11
 71
     3
 72
    44
 73
    40
 74
     0
 42
0.0000000001
 43
0.0000000001
 40
0.0
 40
0.0
 40
0.0
 40
0.0
 40
1.0
 40
1.0
 40
1.0
 40
2.0
 40
2.0
 40
2.0
 40
3.0
 40
3.0
 40
3.0
 40
4.0
 40
4.0
 40
4.0
 40
5.0
 40
5.0
 40
5.0
 40
6.0
 40
6.0
 40
6.0
 40
7.0
 40
7.0
 40
7.0
 40
8.0
 40
8.0
 40
8.0
 40
9.0
 40
9.0
 40
9.0
 40
10.0
 40
10.0
 40
10.0
 40
11.0
 40
11.0
 40
11.0
 40
12.0
 40
12.0
 40
12.0
 40
13.0
 40
13.0
 40
13.0
 40
13.0
 10
752.7724609375
 20
-516.2392578125
 30
0.0
 10
765.1484375
 20
-504.341796875
 30
0.0
 10
776.947265625
 20
-492.9990234375
 30
0.0
 10
788.931640625
 20
-481.4775390625
 30
0.0
 10
786.1005859375
 20
-479.8828125
 30
0.0
 10
783.6630859375
 20
-478.255859375
 30
0.0
 10
781.029296875
 20
-477.068359375
 30
0.0
 10
768.1279296875
 20
-471.255859375
 30
0.0
 10
755.2119140625
 20
-465.4716796875
 30
0.0
 10
742.2109375
 20
-459.8876953125
 30
0.0
 10
739.2177734375
 20
-458.6025390625
 30
0.0
 10
738.451171875
 20
-457.0615234375
 30
0.0
 10
739.8798828125
 20
-454.2578125
 30
0.0
 10
740.65234375
 20
-452.7421875
 30
0.0
 10
741.126953125
 20
-450.986328125
 30
0.0
 10
742.1923828125
 20
-449.7236328125
 30
0.0
 10
745.0185546875
 20
-446.37109375
 30
0.0
 10
748.1083984375
 20
-443.240234375
 30
0.0
 10
751.0654296875
 20
-439.99609375
 30
0.0
 10
758.0615234375
 20
-432.322265625
 30
0.0
 10
765.0419921875
 20
-424.6337890625
 30
0.0
 10
772.798828125
 20
-416.103515625
 30
0.0
 10
753.775390625
 20
-409.6337890625
 30
0.0
 10
735.4638671875
 20
-403.4072265625
 30
0.0
 10
716.75390625
 20
-397.04443359375
 30
0.0
 10
717.05078125
 20
-399.1357421875
 30
0.0
 10
717.1533203125
 20
-400.32666015625
 30
0.0
 10
717.396484375
 20
-401.48828125
 30
0.0
 10
718.8203125
 20
-408.2900390625
 30
0.0
 10
719.8154296875
 20
-415.2275390625
 30
0.0
 10
721.859375
 20
-421.83984375
 30
0.0
 10
723.6865234375
 20
-427.7529296875
 30
0.0
 10
726.787109375
 20
-433.2607421875
 30
0.0
 10
729.1416015625
 20
-439.0234375
 30
0.0
 10
737.13671875
 20
-458.583984375
 30
0.0
 10
743.7392578125
 20
-478.6103515625
 30
0.0
 10
748.87890625
 20
-499.109375
 30
0.0
 10
750.26171875
 20
-504.6259765625
 30
0.0
 10
751.408203125
 20
-510.2021484375
 30
0.0
 10
752.7724609375
 20
-516.2392578125
 30
0.0
  0
HATCH
  5
45
330
3C
100
AcDbEntity
  8
Layer 1
 62
     7
420
 16777215
100
AcDbHatch
 10
0.0
 20
0.0
 30
0.0
210
0.0
220
0.0
230
1.0
  2
SOLID
 70
     1
 71
     0
 91
        2
 92
        1
 93
        1
 72
     4
 94
        3
 73
     0
 74
     1
 95
      239
 96
      235
 40
0.0
 40
0.0
 40
0.0
 40
0.0
 40
1.0
 40
1.0
 40
1.0
 40
2.0
 40
2.0
 40
2.0
 40
3.0
 40
3.0
 40
3.0
 40
4.0
 40
4.0
 40
4.0
 40
5.0
 40
5.0
 40
5.0
 40
6.0
 40
6.0
 40
6.0
 40
7.0
 40
7.0
 40
7.0
 40
8.0
 40
8.0
 40
8.0
 40
9.0
 40
9.0
 40
9.0
 40
10.0
 40
10.0
 40
10.0
 40
11.0
 40
11.0
 40
11.0
 40
12.0
 40
12.0
 40
12.0
 40
13.0
 40
13.0
 40
13.0
 40
14.0
 40
14.0
 40
14.0
 40
15.0
 40
15.0
 40
15.0
 40
16.0
 40
16.0
 40
16.0
 40
17.0
 40
17.0
 40
17.0
 40
18.0
 40
18.0
 40
18.0
 40
19.0
 40
19.0
 40
19.0
 40
20.0
 40
20.0
 40
20.0
 40
21.0
 40
21.0
 40
21.0
 40
22.0
 40
22.0
 40
22.0
 40
23.0
 40
23.0
 40
23.0
 40
24.0
 40
24.0
 40
24.0
 40
25.0
 40
25.0
 40
25.0
 40
26.0
 40
26.0
 40
26.0
 40
27.0
 40
27.0
 40
27.0
 40
28.0
 40
28.0
 40
28.0
 40
29.0
 40
29.0
 40
29.0
 40
30.0
 40
30.0
 40
30.0
 40
31.0
 40
31.0
 40
31.0
 40
32.0
 40
32.0
 40
32.0
 40
33.0
 40
33.0
 40
33.0
 40
34.0
 40
34.0
 40
34.0
 40
35.0
 40
35.0
 40
35.0
 40
36.0
 40
36.0
 40
36.0
 40
37.0
 40
37.0
 40
37.0
 40
38.0
 40
38.0
 40
38.0
 40
39.0
 40
39.0
 40
39.0
 40
40.0
 40
40.0
 40
40.0
 40
41.0
 40
41.0
 40
41.0
 40
42.0
 40
42.0
 40
42.0
 40
43.0
 40
43.0
 40
43.0
 40
44.0
 40
44.0
 40
44.0
 40
45.0
 40
45.0
 40
45.0
 40
46.0
 40
46.0
 40
46.0
 40
47.0
 40
47.0
 40
47.0
 40
48.0
 40
48.0
 40
48.0
 40
49.0
 40
49.0
 40
49.0
 40
50.0
 40
50.0
 40
50.0
 40
51.0
 40
51.0
 40
51.0
 40
52.0
 40
52.0
 40
52.0
 40
53.0
 40
53.0
 40
53.0
 40
54.0
 40
54.0
 40
54.0
 40
55.0
 40
55.0
 40
55.0
 40
56.0
 40
56.0
 40
56.0
 40
57.0
 40
57.0
 40
57.0
 40
58.0
 40
58.0
 40
58.0
 40
59.0
 40
59.0
 40
59.0
 40
60.0
 40
60.0
 40
60.0
 40
61.0
 40
61.0
 40
61.0
 40
62.0
 40
62.0
 40
62.0
 40
63.0
 40
63.0
 40
63.0
 40
64.0
 40
64.0
 40
64.0
 40
65.0
 40
65.0
 40
65.0
 40
66.0
 40
66.0
 40
66.0
 40
67.0
 40
67.0
 40
67.0
 40
68.0
 40
68.0
 40
68.0
 40
69.0
 40
69.0
 40
69.0
 40
70.0
 40
70.0
 40
70.0
 40
71.0
 40
71.0
 40
71.0
 40
72.0
 40
72.0
 40
72.0
 40
73.0
 40
73.0
 40
73.0
 40
74.0
 40
74.0
 40
74.0
 40
75.0
 40
75.0
 40
75.0
 40
76.0
 40
76.0
 40
76.0
 40
77.0
 40
77.0
 40
77.0
 40
78.0
 40
78.0
 40
78.0
 40
78.0
 10
520.11083984375
 20
-278.65869140625
 10
514.095703125
 20
-278.26904296875
 10
508.38427734375
 20
-278.15283203125
 10
502.740234375
 20
-277.474609375
 10
494.1005859375
 20
-276.43603515625
 10
485.38671875
 20
-275.54443359375
 10
476.923828125
 20
-273.6240234375
 10
464.2138671875
 20
-270.73974609375
 10
451.556640625
 20
-267.4521484375
 10
439.130859375
 20
-263.53076171875
 10
426.94970703125
 20
-259.68603515625
 10
415.8505859375
 20
-253.33544921875
 10
405.2314453125
 20
-246.24609375
 10
400.95947265625
 20
-243.39453125
 10
396.64990234375
 20
-240.5546875
 10
392.67578125
 20
-237.318359375
 10
390.5361328125
 20
-235.57568359375
 10
388.7880859375
 20
-233.17236328125
 10
387.365234375
 20
-230.77001953125
 10
385.2294921875
 20
-227.1630859375
 10
386.10498046875
 20
-224.84375
 10
390.1552734375
 20
-223.6923828125
 10
394.1337890625
 20
-222.560546875
 10
398.265625
 20
-221.55712890625
 10
402.37060546875
 20
-221.36376953125
 10
413.55859375
 20
-220.83740234375
 10
424.783203125
 20
-220.30224609375
 10
435.96484375
 20
-220.65771484375
 10
445.78955078125
 20
-220.97021484375
 10
455.56103515625
 20
-222.669921875
 10
465.38232421875
 20
-223.423828125
 10
483.0751953125
 20
-224.78271484375
 10
500.00830078125
 20
-229.7734375
 10
517.05712890625
 20
-234.111328125
 10
527.92578125
 20
-236.87744140625
 10
538.65478515625
 20
-240.28466796875
 10
549.2587890625
 20
-243.9462890625
 10
552.943359375
 20
-245.21826171875
 10
555.6728515625
 20
-244.3466796875
 10
558.91259765625
 20
-243.13134765625
 10
568.3828125
 20
-239.57861328125
 10
577.85205078125
 20
-235.9326171875
 10
587.55029296875
 20
-233.10888671875
 10
592.7890625
 20
-231.583984375
 10
598.4794921875
 20
-231.39990234375
 10
603.99365234375
 20
-231.08251953125
 10
612.43212890625
 20
-230.59716796875
 10
620.8916015625
 20
-230.4375
 10
629.345703125
 20
-230.2890625
 10
641.0185546875
 20
-230.083984375
 10
652.2255859375
 20
-232.84912109375
 10
663.376953125
 20
-235.89208984375
 10
665.025390625
 20
-236.341796875
 10
666.861328125
 20
-236.4580078125
 10
668.291015625
 20
-237.283203125
 10
672.1015625
 20
-239.48388671875
 10
673.595703125
 20
-237.56298828125
 10
675.5908203125
 20
-234.44482421875
 10
685.5498046875
 20
-218.88134765625
 10
695.587890625
 20
-203.3583984375
 10
706.0791015625
 20
-188.15283203125
 10
709.9140625
 20
-182.59326171875
 10
714.9462890625
 20
-177.82421875
 10
719.6640625
 20
-172.91748046875
 10
725.935546875
 20
-166.3935546875
 10
732.37109375
 20
-160.0234375
 10
738.84765625
 20
-153.701171875
 10
751.58203125
 20
-141.26953125
 10
765.8564453125
 20
-130.82958984375
 10
781.2197265625
 20
-121.93017578125
 10
786.9951171875
 20
-118.58544921875
 10
793.224609375
 20
-116.0078125
 10
799.3203125
 20
-113.2431640625
 10
801.015625
 20
-112.474609375
 10
802.974609375
 20
-112.28759765625
 10
805.01953125
 20
-111.783203125
 10
802.7412109375
 20
-127.2138671875
 10
800.1708984375
 20
-142.1533203125
 10
793.9208984375
 20
-156.298828125
 10
787.16796875
 20
-171.58349609375
 10
779.873046875
 20
-186.533203125
 10
769.8955078125
 20
-199.9892578125
 10
763.8271484375
 20
-208.17333984375
 10
757.451171875
 20
-216.14013671875
 10
750.9677734375
 20
-224.00244140625
 10
742.732421875
 20
-233.99072265625
 10
734.3076171875
 20
-243.82470703125
 10
725.8486328125
 20
-253.6259765625
 10
721.15625
 20
-259.06396484375
 10
716.2734375
 20
-264.3408203125
 10
711.3857421875
 20
-269.60693359375
 10
709.587890625
 20
-271.54443359375
 10
708.578125
 20
-273.12939453125
 10
709.8232421875
 20
-276.0927734375
 10
714.1923828125
 20
-286.4912109375
 10
718.1513671875
 20
-297.0615234375
 10
722.1689453125
 20
-307.31884765625
 10
743.7431640625
 20
-285.1123046875
 10
765.9443359375
 20
-262.259765625
 10
788.5126953125
 20
-239.02880859375
 10
793.5458984375
 20
-242.3505859375
 10
798.5673828125
 20
-245.7412109375
 10
803.6640625
 20
-249.0146484375
 10
820.755859375
 20
-259.9892578125
 10
838.0478515625
 20
-270.66552734375
 10
854.9130859375
 20
-281.97607421875
 10
863.861328125
 20
-287.97705078125
 10
872.1005859375
 20
-295.03759765625
 10
880.6376953125
 20
-301.64794921875
 10
883.548828125
 20
-303.90283203125
 10
886.3935546875
 20
-306.2451171875
 10
889.7841796875
 20
-308.9609375
 10
860.9541015625
 20
-330.10546875
 10
831.7138671875
 20
-350.0224609375
 10
805.8837890625
 20
-374.87353515625
 10
829.546875
 20
-385.7822265625
 10
854.4736328125
 20
-393.9990234375
 10
875.4755859375
 20
-411.068359375
 10
854.109375
 20
-427.109375
 10
829.263671875
 20
-436.783203125
 10
808.2939453125
 20
-453.0322265625
 10
813.353515625
 20
-455.73828125
 10
818.5419921875
 20
-458.244140625
 10
823.4609375
 20
-461.19921875
 10
833.73046875
 20
-467.3671875
 10
843.8681640625
 20
-473.7548828125
 10
854.033203125
 20
-480.095703125
 10
856.2158203125
 20
-481.45703125
 10
855.8681640625
 20
-482.6708984375
 10
853.7109375
 20
-483.8720703125
 10
848.46875
 20
-486.7900390625
 10
843.197265625
 20
-489.6728515625
 10
838.1083984375
 20
-492.84375
 10
822.22265625
 20
-502.744140625
 10
806.33984375
 20
-512.65234375
 10
790.607421875
 20
-522.7919921875
 10
779.19140625
 20
-530.1494140625
 10
768.0859375
 20
-537.9873046875
 10
756.6923828125
 20
-545.380859375
 10
753.365234375
 20
-547.541015625
 10
753.1611328125
 20
-550.87890625
 10
752.76953125
 20
-553.9091796875
 10
751.1455078125
 20
-566.4892578125
 10
745.900390625
 20
-577.6142578125
 10
737.498046875
 20
-586.6123046875
 10
732.1875
 20
-592.298828125
 10
734.3056640625
 20
-597.0419921875
 10
735.8720703125
 20
-602.4716796875
 10
739.107421875
 20
-613.685546875
 10
742.31640625
 20
-624.9716796875
 10
741.9580078125
 20
-636.720703125
 10
741.814453125
 20
-641.458984375
 10
739.8828125
 20
-646.20703125
 10
738.3505859375
 20
-650.8134765625
 10
737.50390625
 20
-653.3583984375
 10
732.6416015625
 20
-653.986328125
 10
728.404296875
 20
-652.7958984375
 10
719.7607421875
 20
-650.3662109375
 10
713.791015625
 20
-644.3203125
 10
708.48046875
 20
-637.6865234375
 10
700.66796875
 20
-627.9267578125
 10
693.3369140625
 20
-617.7822265625
 10
685.65625
 20
-607.9140625
 10
684.875
 20
-606.912109375
 10
683.154296875
 20
-606.38671875
 10
681.7802734375
 20
-606.1416015625
 10
672.740234375
 20
-604.529296875
 10
663.7177734375
 20
-602.6943359375
 10
654.6083984375
 20
-601.626953125
 10
642.9765625
 20
-600.2646484375
 10
631.265625
 20
-598.7744140625
 10
619.59423828125
 20
-598.818359375
 10
610.22705078125
 20
-598.853515625
 10
600.787109375
 20
-600.69140625
 10
591.55224609375
 20
-602.576171875
 10
588.52001953125
 20
-603.1953125
 10
585.93798828125
 20
-606.35546875
 10
583.30859375
 20
-608.544921875
 10
574.892578125
 20
-615.5498046875
 10
566.3671875
 20
-622.478515625
 10
556.12255859375
 20
-626.5927734375
 10
546.85546875
 20
-630.314453125
 10
537.423828125
 20
-633.734375
 10
527.84033203125
 20
-636.515625
 10
522.9990234375
 20
-637.921875
 10
517.7626953125
 20
-637.1083984375
 10
513.2392578125
 20
-634.1240234375
 10
511.13720703125
 20
-632.7373046875
 10
510.33154296875
 20
-628.544921875
 10
511.8876953125
 20
-625.521484375
 10
516.525390625
 20
-616.513671875
 10
521.85205078125
 20
-608.015625
 10
529.29345703125
 20
-600.943359375
 10
535.755859375
 20
-594.802734375
 10
535.52880859375
 20
-594.7412109375
 10
530.6962890625
 20
-587.5458984375
 10
527.4296875
 20
-582.6826171875
 10
524.556640625
 20
-577.5556640625
 10
521.4130859375
 20
-572.607421875
 10
517.93798828125
 20
-567.1376953125
 10
517.19873046875
 20
-560.890625
 10
516.439453125
 20
-554.7255859375
 10
515.80517578125
 20
-549.5712890625
 10
515.52734375
 20
-544.3232421875
 10
515.671875
 20
-539.1337890625
 10
516.03515625
 20
-526.08984375
 10
517.29833984375
 20
-513.1220703125
 10
520.44091796875
 20
-500.4130859375
 10
522.72412109375
 20
-491.1796875
 10
525.40234375
 20
-482.03515625
 10
527.39501953125
 20
-472.7421875
 10
528.677734375
 20
-466.7587890625
 10
528.8798828125
 20
-460.5517578125
 10
529.84619140625
 20
-454.490234375
 10
531.482421875
 20
-444.220703125
 10
533.12890625
 20
-433.943359375
 10
535.1875
 20
-423.75390625
 10
536.326171875
 20
-418.1201171875
 10
533.123046875
 20
-414.9619140625
 10
529.54052734375
 20
-412.0234375
 10
518.6376953125
 20
-403.08203125
 10
508.10205078125
 20
-393.86962890625
 10
500.2109375
 20
-381.94677734375
 10
496.9296875
 20
-376.98974609375
 10
496.38134765625
 20
-371.47900390625
 10
495.353515625
 20
-365.98291015625
 10
492.982421875
 20
-353.30517578125
 10
497.787109375
 20
-342.22802734375
 10
502.6640625
 20
-330.99853515625
 10
504.96044921875
 20
-325.70947265625
 10
506.08349609375
 20
-319.8486328125
 10
507.25830078125
 20
-314.1484375
 10
509.8115234375
 20
-301.7578125
 10
513.64306640625
 20
-289.8701171875
 10
520.11083984375
 20
-278.65869140625
 97
        0
 92
        1
 93
        1
 72
     4
 94
        3
 73
     0
 74
     1
 95
       44
 96
       40
 40
0.0
 40
0.0
 40
0.0
 40
0.0
 40
1.0
 40
1.0
 40
1.0
 40
2.0
 40
2.0
 40
2.0
 40
3.0
 40
3.0
 40
3.0
 40
4.0
 40
4.0
 40
4.0
 40
5.0
 40
5.0
 40
5.0
 40
6.0
 40
6.0
 40
6.0
 40
7.0
 40
7.0
 40
7.0
 40
8.0
 40
8.0
 40
8.0
 40
9.0
 40
9.0
 40
9.0
 40
10.0
 40
10.0
 40
10.0
 40
11.0
 40
11.0
 40
11.0
 40
12.0
 40
12.0
 40
12.0
 40
13.0
 40
13.0
 40
13.0
 40
13.0
 10
752.7724609375
 20
-516.2392578125
 10
765.1484375
 20
-504.341796875
 10
776.947265625
 20
-492.9990234375
 10
788.931640625
 20
-481.4775390625
 10
786.1005859375
 20
-479.8828125
 10
783.6630859375
 20
-478.255859375
 10
781.029296875
 20
-477.068359375
 10
768.1279296875
 20
-471.255859375
 10
755.2119140625
 20
-465.4716796875
 10
742.2109375
 20
-459.8876953125
 10
739.2177734375
 20
-458.6025390625
 10
738.451171875
 20
-457.0615234375
 10
739.8798828125
 20
-454.2578125
 10
740.65234375
 20
-452.7421875
 10
741.126953125
 20
-450.986328125
 10
742.1923828125
 20
-449.7236328125
 10
745.0185546875
 20
-446.37109375
 10
748.1083984375
 20
-443.240234375
 10
751.0654296875
 20
-439.99609375
 10
758.0615234375
 20
-432.322265625
 10
765.0419921875
 20
-424.6337890625
 10
772.798828125
 20
-416.103515625
 10
753.775390625
 20
-409.6337890625
 10
735.4638671875
 20
-403.4072265625
 10
716.75390625
 20
-397.04443359375
 10
717.05078125
 20
-399.1357421875
 10
717.1533203125
 20
-400.32666015625
 10
717.396484375
 20
-401.48828125
 10
718.8203125
 20
-408.2900390625
 10
719.8154296875
 20
-415.2275390625
 10
721.859375
 20
-421.83984375
 10
723.6865234375
 20
-427.7529296875
 10
726.787109375
 20
-433.2607421875
 10
729.1416015625
 20
-439.0234375
 10
737.13671875
 20
-458.583984375
 10
743.7392578125
 20
-478.6103515625
 10
748.87890625
 20
-499.109375
 10
750.26171875
 20
-504.6259765625
 10
751.408203125
 20
-510.2021484375
 10
752.7724609375
 20
-516.2392578125
 97
        0
 75
     0
 76
     1
 98
        0
  0
SPLINE
  5
46
330
3C
100
AcDbEntity
  8
Layer 1
370
     0
100
AcDbSpline
210
0.0
220
0.0
230
1.0
 70
    11
 71
     3
 72
    44
 73
    40
 74
     0
 42
0.0000000001
 43
0.0000000001
 40
0.0
 40
0.0
 40
0.0
 40
0.0
 40
1.0
 40
1.0
 40
1.0
 40
2.0
 40
2.0
 40
2.0
 40
3.0
 40
3.0
 40
3.0
 40
4.0
 40
4.0
 40
4.0
 40
5.0
 40
5.0
 40
5.0
 40
6.0
 40
6.0
 40
6.0
 40
7.0
 40
7.0
 40
7.0
 40
8.0
 40
8.0
 40
8.0
 40
9.0
 40
9.0
 40
9.0
 40
10.0
 40
10.0
 40
10.0
 40
11.0
 40
11.0
 40
11.0
 40
12.0
 40
12.0
 40
12.0
 40
13.0
 40
13.0
 40
13.0
 40
13.0
 10
752.7724609375
 20
-516.2392578125
 30
0.0
 10
751.408203125
 20
-510.2021484375
 30
0.0
 10
750.26171875
 20
-504.6259765625
 30
0.0
 10
748.87890625
 20
-499.109375
 30
0.0
 10
743.7392578125
 20
-478.6103515625
 30
0.0
 10
737.13671875
 20
-458.583984375
 30
0.0
 10
729.1416015625
 20
-439.0234375
 30
0.0
 10
726.787109375
 20
-433.2607421875
 30
0.0
 10
723.6865234375
 20
-427.7529296875
 30
0.0
 10
721.859375
 20
-421.83984375
 30
0.0
 10
719.8154296875
 20
-415.2275390625
 30
0.0
 10
718.8203125
 20
-408.2900390625
 30
0.0
 10
717.396484375
 20
-401.48828125
 30
0.0
 10
717.1533203125
 20
-400.32666015625
 30
0.0
 10
717.05078125
 20
-399.1357421875
 30
0.0
 10
716.75390625
 20
-397.04443359375
 30
0.0
 10
735.4638671875
 20
-403.4072265625
 30
0.0
 10
753.775390625
 20
-409.6337890625
 30
0.0
 10
772.798828125
 20
-416.103515625
 30
0.0
 10
765.0419921875
 20
-424.6337890625
 30
0.0
 10
758.0615234375
 20
-432.322265625
 30
0.0
 10
751.0654296875
 20
-439.99609375
 30
0.0
 10
748.1083984375
 20
-443.240234375
 30
0.0
 10
745.0185546875
 20
-446.37109375
 30
0.0
 10
742.1923828125
 20
-449.7236328125
 30
0.0
 10
741.126953125
 20
-450.986328125
 30
0.0
 10
740.65234375
 20
-452.7421875
 30
0.0
 10
739.8798828125
 20
-454.2578125
 30
0.0
 10
738.451171875
 20
-457.0615234375
 30
0.0
 10
739.2177734375
 20
-458.6025390625
 30
0.0
 10
742.2109375
 20
-459.8876953125
 30
0.0
 10
755.2119140625
 20
-465.4716796875
 30
0.0
 10
768.1279296875
 20
-471.255859375
 30
0.0
 10
781.029296875
 20
-477.068359375
 30
0.0
 10
783.6630859375
 20
-478.255859375
 30
0.0
 10
786.1005859375
 20
-479.8828125
 30
0.0
 10
788.931640625
 20
-481.4775390625
 30
0.0
 10
776.947265625
 20
-492.9990234375
 30
0.0
 10
765.1484375
 20
-504.341796875
 30
0.0
 10
752.7724609375
 20
-516.2392578125
 30
0.0
  0
HATCH
  5
47
330
3C
100
AcDbEntity
  8
Layer 1
 62
    18
420
        0
100
AcDbHatch
 10
0.0
 20
0.0
 30
0.0
210
0.0
220
0.0
230
1.0
  2
SOLID
 70
     1
 71
     0
 91
        1
 92
        1
 93
        1
 72
     4
 94
        3
 73
     0
 74
     1
 95
       44
 96
       40
 40
0.0
 40
0.0
 40
0.0
 40
0.0
 40
1.0
 40
1.0
 40
1.0
 40
2.0
 40
2.0
 40
2.0
 40
3.0
 40
3.0
 40
3.0
 40
4.0
 40
4.0
 40
4.0
 40
5.0
 40
5.0
 40
5.0
 40
6.0
 40
6.0
 40
6.0
 40
7.0
 40
7.0
 40
7.0
 40
8.0
 40
8.0
 40
8.0
 40
9.0
 40
9.0
 40
9.0
 40
10.0
 40
10.0
 40
10.0
 40
11.0
 40
11.0
 40
11.0
 40
12.0
 40
12.0
 40
12.0
 40
13.0
 40
13.0
 40
13.0
 40
13.0
 10
752.7724609375
 20
-516.2392578125
 10
751.408203125
 20
-510.2021484375
 10
750.26171875
 20
-504.6259765625
 10
748.87890625
 20
-499.109375
 10
743.7392578125
 20
-478.6103515625
 10
737.13671875
 20
-458.583984375
 10
729.1416015625
 20
-439.0234375
 10
726.787109375
 20
-433.2607421875
 10
723.6865234375
 20
-427.7529296875
 10
721.859375
 20
-421.83984375
 10
719.8154296875
 20
-415.2275390625
 10
718.8203125
 20
-408.2900390625
 10
717.396484375
 20
-401.48828125
 10
717.1533203125
 20
-400.32666015625
 10
717.05078125
 20
-399.1357421875
 10
716.75390625
 20
-397.04443359375
 10
735.4638671875
 20
-403.4072265625
 10
753.775390625
 20
-409.6337890625
 10
772.798828125
 20
-416.103515625
 10
765.0419921875
 20
-424.6337890625
 10
758.0615234375
 20
-432.322265625
 10
751.0654296875
 20
-439.99609375
 10
748.1083984375
 20
-443.240234375
 10
745.0185546875
 20
-446.37109375
 10
742.1923828125
 20
-449.7236328125
 10
741.126953125
 20
-450.986328125
 10
740.65234375
 20
-452.7421875
 10
739.8798828125
 20
-454.2578125
 10
738.451171875
 20
-457.0615234375
 10
739.2177734375
 20
-458.6025390625
 10
742.2109375
 20
-459.8876953125
 10
755.2119140625
 20
-465.4716796875
 10
768.1279296875
 20
-471.255859375
 10
781.029296875
 20
-477.068359375
 10
783.6630859375
 20
-478.255859375
 10
786.1005859375
 20
-479.8828125
 10
788.931640625
 20
-481.4775390625
 10
776.947265625
 20
-492.9990234375
 10
765.1484375
 20
-504.341796875
 10
752.7724609375
 20
-516.2392578125
 97
        0
 75
     0
 76
     1
 98
        0
  0
ENDBLK
  5
3F
330
3C
100
AcDbEntity
  8
0
100
AcDbBlockEnd
  0
ENDSEC
  0
SECTION
  2
ENTITIES
  0
INSERT
  5
3D
330
1F
100
AcDbEntity
  8
Layer 1
100
AcDbBlockReference
  2
block 2
 10
0.0
 20
0.0
 30
0.0
  0
ENDSEC
  0
SECTION
  2
OBJECTS
  0
DICTIONARY
  5
C
330
0
100
AcDbDictionary
281
     1
  3
ACAD_GROUP
350
D
  3
ACAD_LAYOUT
350
1A
  3
ACAD_MLINESTYLE
350
17
  3
ACAD_PLOTSETTINGS
350
19
  3
ACAD_PLOTSTYLENAME
350
E
  3
ACAD_TABLESTYLE
350
48
  3
ACAD_VISUALSTYLE
350
2A
  0
DICTIONARY
  5
D
102
{ACAD_REACTORS
330
C
102
}
330
C
100
AcDbDictionary
281
     1
  0
DICTIONARY
  5
1A
102
{ACAD_REACTORS
330
C
102
}
330
C
100
AcDbDictionary
281
     1
  3
Layout1
350
1E
  3
Layout2
350
26
  3
Model
350
22
  0
DICTIONARY
  5
17
102
{ACAD_REACTORS
330
C
102
}
330
C
100
AcDbDictionary
281
     1
  3
Standard
350
18
  0
DICTIONARY
  5
19
102
{ACAD_REACTORS
330
C
102
}
330
C
100
AcDbDictionary
281
     1
  0
ACDBDICTIONARYWDFLT
  5
E
102
{ACAD_REACTORS
330
C
102
}
330
C
100
AcDbDictionary
281
     1
  3
Normal
350
F
100
AcDbDictionaryWithDefault
340
F
  0
DICTIONARY
  5
48
102
{ACAD_REACTORS
330
C
102
}
330
C
100
AcDbDictionary
281
     1
  0
DICTIONARY
  5
2A
102
{ACAD_REACTORS
330
C
102
}
330
C
100
AcDbDictionary
281
     1
  3
2dWireframe
350
2F
  3
3D Hidden
350
31
  3
3dWireframe
350
30
  3
Basic
350
32
  3
Brighten
350
36
  3
ColorChange
350
3A
  3
Conceptual
350
34
  3
Dim
350
35
  3
Facepattern
350
39
  3
Flat
350
2B
  3
FlatWithEdges
350
2C
  3
Gouraud
350
2D
  3
GouraudWithEdges
350
2E
  3
Linepattern
350
38
  3
Realistic
350
33
  3
Thicken
350
37
  0
LAYOUT
  5
1E
102
{ACAD_REACTORS
330
1A
102
}
330
1A
100
AcDbPlotSettings
  1

  2
none_device
  4

  6

 40
0.0
 41
0.0
 42
0.0
 43
0.0
 44
0.0
 45
0.0
 46
0.0
 47
0.0
 48
0.0
 49
0.0
140
0.0
141
0.0
142
1.0
143
1.0
 70
   688
 72
     0
 73
     0
 74
     5
  7

 75
    16
 76
     0
 77
     2
 78
   300
147
1.0
148
0.0
149
0.0
100
AcDbLayout
  1
Layout1
 70
     1
 71
     1
 10
0.0
 20
0.0
 11
12.0
 21
9.0
 12
0.0
 22
0.0
 32
0.0
 14
1.000000000000000E+20
 24
1.000000000000000E+20
 34
1.000000000000000E+20
 15
-1.000000000000000E+20
 25
-1.000000000000000E+20
 35
-1.000000000000000E+20
146
0.0
 13
0.0
 23
0.0
 33
0.0
 16
1.0
 26
0.0
 36
0.0
 17
0.0
 27
1.0
 37
0.0
 76
     0
330
1B
  0
LAYOUT
  5
26
102
{ACAD_REACTORS
330
1A
102
}
330
1A
100
AcDbPlotSettings
  1

  2
none_device
  4

  6

 40
0.0
 41
0.0
 42
0.0
 43
0.0
 44
0.0
 45
0.0
 46
0.0
 47
0.0
 48
0.0
 49
0.0
140
0.0
141
0.0
142
1.0
143
1.0
 70
   688
 72
     0
 73
     0
 74
     5
  7

 75
    16
 76
     0
 77
     2
 78
   300
147
1.0
148
0.0
149
0.0
100
AcDbLayout
  1
Layout2
 70
     1
 71
     2
 10
0.0
 20
0.0
 11
0.0
 21
0.0
 12
0.0
 22
0.0
 32
0.0
 14
0.0
 24
0.0
 34
0.0
 15
0.0
 25
0.0
 35
0.0
146
0.0
 13
0.0
 23
0.0
 33
0.0
 16
1.0
 26
0.0
 36
0.0
 17
0.0
 27
1.0
 37
0.0
 76
     0
330
23
  0
LAYOUT
  5
22
102
{ACAD_REACTORS
330
1A
102
}
330
1A
100
AcDbPlotSettings
  1

  2
none_device
  4

  6

 40
0.0
 41
0.0
 42
0.0
 43
0.0
 44
0.0
 45
0.0
 46
0.0
 47
0.0
 48
0.0
 49
0.0
140
0.0
141
0.0
142
1.0
143
1.0
 70
  1712
 72
     0
 73
     0
 74
     0
  7

 75
     0
 76
     0
 77
     2
 78
   300
147
1.0
148
0.0
149
0.0
100
AcDbLayout
  1
Model
 70
     1
 71
     0
 10
0.0
 20
0.0
 11
12.0
 21
9.0
 12
0.0
 22
0.0
 32
0.0
 14
1.000000000000000E+20
 24
1.000000000000000E+20
 34
1.000000000000000E+20
 15
-1.000000000000000E+20
 25
-1.000000000000000E+20
 35
-1.000000000000000E+20
146
0.0
 13
0.0
 23
0.0
 33
0.0
 16
1.0
 26
0.0
 36
0.0
 17
0.0
 27
1.0
 37
0.0
 76
     0
330
1F
331
29
  0
MLINESTYLE
  5
18
102
{ACAD_REACTORS
330
17
102
}
330
17
100
AcDbMlineStyle
  2
Standard
 70
     0
  3

 62
   256
 51
90.0
 52
90.0
 71
     2
 49
0.5
 62
   256
  6
BYLAYER
 49
-0.5
 62
   256
  6
BYLAYER
  0
ACDBPLACEHOLDER
  5
F
102
{ACAD_REACTORS
330
E
102
}
330
E
  0
VISUALSTYLE
  5
2F
102
{ACAD_REACTORS
330
2A
102
}
330
2A
100
AcDbVisualStyle
  2
2dWireframe
 70
     4
 71
     0
 72
     2
 73
     0
 90
        0
 40
-0.6
 41
-30.0
 62
     5
 63
     7
421
 16777215
 74
     1
 91
        4
 64
     7
 65
   257
 75
     1
175
     1
 42
1.0
 92
        0
 66
   257
 43
1.0
 76
     1
 77
     6
 78
     2
 67
     7
 79
     5
170
     0
171
     0
290
     0
174
     0
 93
        1
 44
0.0
173
     0
291
     0
 45
0.0
1001
ACAD
1000
AcDbSavedByObjectVersion
1070
     0
  0
VISUALSTYLE
  5
31
102
{ACAD_REACTORS
330
2A
102
}
330
2A
100
AcDbVisualStyle
  2
3D Hidden
 70
     6
 71
     1
 72
     2
 73
     2
 90
        0
 40
-0.6
 41
-30.0
 62
     5
 63
     7
421
 16777215
 74
     2
 91
        2
 64
     7
 65
   257
 75
     2
175
     1
 42
40.0
 92
        0
 66
   257
 43
1.0
 76
     1
 77
     6
 78
     2
 67
     7
 79
     3
170
     0
171
     0
290
     0
174
     0
 93
        1
 44
0.0
173
     0
291
     0
 45
0.0
1001
ACAD
1000
AcDbSavedByObjectVersion
1070
     0
  0
VISUALSTYLE
  5
30
102
{ACAD_REACTORS
330
2A
102
}
330
2A
100
AcDbVisualStyle
  2
3dWireframe
 70
     5
 71
     0
 72
     2
 73
     0
 90
        0
 40
-0.6
 41
-30.0
 62
     5
 63
     7
421
 16777215
 74
     1
 91
        4
 64
     7
 65
   257
 75
     1
175
     1
 42
1.0
 92
        0
 66
   257
 43
1.0
 76
     1
 77
     6
 78
     2
 67
     7
 79
     5
170
     0
171
     0
290
     0
174
     0
 93
        1
 44
0.0
173
     0
291
     0
 45
0.0
1001
ACAD
1000
AcDbSavedByObjectVersion
1070
     0
  0
VISUALSTYLE
  5
32
102
{ACAD_REACTORS
330
2A
102
}
330
2A
100
AcDbVisualStyle
  2
Basic
 70
     7
 71
     1
 72
     0
 73
     1
 90
        0
 40
-0.6
 41
-30.0
 62
     5
 63
     7
421
 16777215
 74
     0
 91
        4
 64
     7
 65
   257
 75
     1
175
     1
 42
1.0
 92
        8
 66
     7
 43
1.0
 76
     1
 77
     6
 78
     2
 67
     7
 79
     5
170
     0
171
     0
290
     0
174
     0
 93
        1
 44
0.0
173
     0
291
     1
 45
0.0
1001
ACAD
1000
AcDbSavedByObjectVersion
1070
     0
  0
VISUALSTYLE
  5
36
102
{ACAD_REACTORS
330
2A
102
}
330
2A
100
AcDbVisualStyle
  2
Brighten
 70
    12
 71
     2
 72
     2
 73
     0
 90
        0
 40
-0.6
 41
-30.0
 62
     5
 63
     7
421
 16777215
 74
     1
 91
        4
 64
     7
 65
   257
 75
     1
175
     1
 42
1.0
 92
        8
 66
     7
 43
1.0
 76
     1
 77
     6
 78
     2
 67
     7
 79
     5
170
     0
171
     0
290
     0
174
     0
 93
        1
 44
50.0
173
     0
291
     1
 45
0.0
1001
ACAD
1000
AcDbSavedByObjectVersion
1070
     0
  0
VISUALSTYLE
  5
3A
102
{ACAD_REACTORS
330
2A
102
}
330
2A
100
AcDbVisualStyle
  2
ColorChange
 70
    16
 71
     2
 72
     2
 73
     3
 90
        0
 40
-0.6
 41
-30.0
 62
     5
 63
     8
421
  8421504
 74
     1
 91
        4
 64
     7
 65
   257
 75
     1
175
     1
 42
1.0
 92
        8
 66
     8
424
  8421504
 43
1.0
 76
     1
 77
     6
 78
     2
 67
     7
 79
     5
170
     0
171
     0
290
     0
174
     0
 93
        1
 44
0.0
173
     0
291
     1
 45
0.0
1001
ACAD
1000
AcDbSavedByObjectVersion
1070
     0
  0
VISUALSTYLE
  5
34
102
{ACAD_REACTORS
330
2A
102
}
330
2A
100
AcDbVisualStyle
  2
Conceptual
 70
     9
 71
     3
 72
     2
 73
     0
 90
        0
 40
-0.6
 41
-30.0
 62
     5
 63
     7
421
 16777215
 74
     2
 91
        2
 64
     7
 65
   257
 75
     1
175
     1
 42
40.0
 92
        8
 66
     7
 43
1.0
 76
     1
 77
     6
 78
     2
 67
     7
 79
     3
170
     0
171
     0
290
     0
174
     0
 93
        1
 44
0.0
173
     0
291
     0
 45
0.0
1001
ACAD
1000
AcDbSavedByObjectVersion
1070
     0
  0
VISUALSTYLE
  5
35
102
{ACAD_REACTORS
330
2A
102
}
330
2A
100
AcDbVisualStyle
  2
Dim
 70
    11
 71
     2
 72
     2
 73
     0
 90
        0
 40
-0.6
 41
-30.0
 62
     5
 63
     7
421
 16777215
 74
     1
 91
        4
 64
     7
 65
   257
 75
     1
175
     1
 42
1.0
 92
        8
 66
     7
 43
1.0
 76
     1
 77
     6
 78
     2
 67
     7
 79
     5
170
     0
171
     0
290
     0
174
     0
 93
        1
 44
-50.0
173
     0
291
     1
 45
0.0
1001
ACAD
1000
AcDbSavedByObjectVersion
1070
     0
  0
VISUALSTYLE
  5
39
102
{ACAD_REACTORS
330
2A
102
}
330
2A
100
AcDbVisualStyle
  2
Facepattern
 70
    15
 71
     2
 72
     2
 73
     0
 90
        0
 40
-0.6
 41
-30.0
 62
     5
 63
     7
421
 16777215
 74
     1
 91
        4
 64
     7
 65
   257
 75
     1
175
     1
 42
1.0
 92
        8
 66
     7
 43
1.0
 76
     1
 77
     6
 78
     2
 67
     7
 79
     5
170
     0
171
     0
290
     0
174
     0
 93
        1
 44
0.0
173
     0
291
     1
 45
0.0
1001
ACAD
1000
AcDbSavedByObjectVersion
1070
     0
  0
VISUALSTYLE
  5
2B
102
{ACAD_REACTORS
330
2A
102
}
330
2A
100
AcDbVisualStyle
  2
Flat
 70
     0
 71
     2
 72
     1
 73
     1
 90
        2
 40
-0.6
 41
30.0
 62
     5
 63
     7
421
 16777215
 74
     0
 91
        4
 64
     7
 65
   257
 75
     1
175
     1
 42
1.0
 92
        8
 66
     7
 43
1.0
 76
     1
 77
     6
 78
     2
 67
     7
 79
     5
170
     0
171
     0
290
     0
174
     0
 93
       13
 44
0.0
173
     0
291
     1
 45
0.0
1001
ACAD
1000
AcDbSavedByObjectVersion
1070
     0
  0
VISUALSTYLE
  5
2C
102
{ACAD_REACTORS
330
2A
102
}
330
2A
100
AcDbVisualStyle
  2
FlatWithEdges
 70
     1
 71
     2
 72
     1
 73
     1
 90
        2
 40
-0.6
 41
30.0
 62
     5
 63
     7
421
 16777215
 74
     1
 91
        4
 64
     7
 65
   257
 75
     1
175
     1
 42
1.0
 92
        0
 66
   257
 43
1.0
 76
     1
 77
     6
 78
     2
 67
     7
 79
     5
170
     0
171
     0
290
     0
174
     0
 93
       13
 44
0.0
173
     0
291
     1
 45
0.0
1001
ACAD
1000
AcDbSavedByObjectVersion
1070
     0
  0
VISUALSTYLE
  5
2D
102
{ACAD_REACTORS
330
2A
102
}
330
2A
100
AcDbVisualStyle
  2
Gouraud
 70
     2
 71
     2
 72
     2
 73
     1
 90
        2
 40
-0.6
 41
30.0
 62
     5
 63
     7
421
 16777215
 74
     0
 91
        4
 64
     7
 65
   257
 75
     1
175
     1
 42
1.0
 92
        0
 66
     7
 43
1.0
 76
     1
 77
     6
 78
     2
 67
     7
 79
     5
170
     0
171
     0
290
     0
174
     0
 93
       13
 44
0.0
173
     0
291
     1
 45
0.0
1001
ACAD
1000
AcDbSavedByObjectVersion
1070
     0
  0
VISUALSTYLE
  5
2E
102
{ACAD_REACTORS
330
2A
102
}
330
2A
100
AcDbVisualStyle
  2
GouraudWithEdges
 70
     3
 71
     2
 72
     2
 73
     1
 90
        2
 40
-0.6
 41
30.0
 62
     5
 63
     7
421
 16777215
 74
     1
 91
        4
 64
     7
 65
   257
 75
     1
175
     1
 42
1.0
 92
        0
 66
   257
 43
1.0
 76
     1
 77
     6
 78
     2
 67
     7
 79
     5
170
     0
171
     0
290
     0
174
     0
 93
       13
 44
0.0
173
     0
291
     1
 45
0.0
1001
ACAD
1000
AcDbSavedByObjectVersion
1070
     0
  0
VISUALSTYLE
  5
38
102
{ACAD_REACTORS
330
2A
102
}
330
2A
100
AcDbVisualStyle
  2
Linepattern
 70
    14
 71
     2
 72
     2
 73
     0
 90
        0
 40
-0.6
 41
-30.0
 62
     5
 63
     7
421
 16777215
 74
     1
 91
        4
 64
     7
 65
   257
 75
     7
175
     7
 42
1.0
 92
        8
 66
     7
 43
1.0
 76
     1
 77
     6
 78
     2
 67
     7
 79
     5
170
     0
171
     0
290
     0
174
     0
 93
        1
 44
0.0
173
     0
291
     1
 45
0.0
1001
ACAD
1000
AcDbSavedByObjectVersion
1070
     0
  0
VISUALSTYLE
  5
33
102
{ACAD_REACTORS
330
2A
102
}
330
2A
100
AcDbVisualStyle
  2
Realistic
 70
     8
 71
     2
 72
     2
 73
     0
 90
        0
 40
-0.6
 41
-30.0
 62
     5
 63
     7
421
 16777215
 74
     1
 91
        0
 64
     7
 65
   257
 75
     1
175
     1
 42
1.0
 92
        8
 66
     8
424
  7895160
 43
1.0
 76
     1
 77
     6
 78
     2
 67
     7
 79
     5
170
     0
171
     0
290
     0
174
     0
 93
       13
 44
0.0
173
     0
291
     0
 45
0.0
1001
ACAD
1000
AcDbSavedByObjectVersion
1070
     0
  0
VISUALSTYLE
  5
37
102
{ACAD_REACTORS
330
2A
102
}
330
2A
100
AcDbVisualStyle
  2
Thicken
 70
    13
 71
     2
 72
     2
 73
     0
 90
        0
 40
-0.6
 41
-30.0
 62
     5
 63
     7
421
 16777215
 74
     1
 91
        4
 64
     7
 65
   257
 75
     1
175
     1
 42
1.0
 92
       12
 66
     7
 43
1.0
 76
     1
 77
     6
 78
     2
 67
     7
 79
     5
170
     0
171
     0
290
     0
174
     0
 93
        1
 44
0.0
173
     0
291
     1
 45
0.0
1001
ACAD
1000
AcDbSavedByObjectVersion
1070
     0
  0
ENDSEC
  0
EOF
